<svg width="504" height="180" viewBox="0 0 504 180" fill="none" xmlns="http://www.w3.org/2000/svg">
<g filter="url(#filter0_d_131_450)">
<path d="M9.92 57.12C8.16 57.12 6.74667 56.5333 5.68 55.36C4.66667 54.1867 4.16 52.6933 4.16 50.88C4.16 49.1733 4.69333 47.3067 5.76 45.28C6.88 43.2533 8.29333 41.28 10 39.36C11.76 37.44 13.5733 35.76 15.44 34.32C17.3067 32.88 18.9867 31.8933 20.48 31.36C21.1733 31.0933 21.8133 30.96 22.4 30.96C23.0933 30.96 23.5467 31.12 23.76 31.44C23.9733 31.76 24.1333 32.1067 24.24 32.48C24.4 32.8533 24.64 33.1467 24.96 33.36C25.5467 33.68 25.84 34.24 25.84 35.04C25.84 35.6267 25.68 36.3467 25.36 37.2C25.0933 38 24.6933 38.72 24.16 39.36C23.6267 39.9467 22.9867 40.24 22.24 40.24C21.5467 40.24 21.2 39.9467 21.2 39.36C21.2 38.9867 21.3867 38.5867 21.76 38.16C22.1333 37.7333 22.5067 37.28 22.88 36.8C23.2533 36.2667 23.44 35.76 23.44 35.28C23.44 34.8 23.2 34.56 22.72 34.56C21.8133 34.56 20.6933 35.04 19.36 36C18.0267 36.9067 16.6667 38.1067 15.28 39.6C13.8933 41.0933 12.5867 42.6933 11.36 44.4C10.1333 46.0533 9.14667 47.6267 8.4 49.12C7.65333 50.6133 7.28 51.84 7.28 52.8C7.28 53.4933 7.44 54.08 7.76 54.56C8.13333 54.9867 8.66667 55.2 9.36 55.2C10.48 55.2 11.7333 54.88 13.12 54.24C14.5067 53.6 15.8133 52.8267 17.04 51.92C18.32 51.0133 19.36 50.2133 20.16 49.52C21.6533 48.1867 23.0933 46.8533 24.48 45.52C25.92 44.1333 27.3333 42.7467 28.72 41.36C28.88 41.2 29.0667 41.12 29.28 41.12C29.76 41.12 30 41.3333 30 41.76C30 41.9733 29.5733 42.56 28.72 43.52C27.8667 44.4267 26.8533 45.4667 25.68 46.64C24.5067 47.8133 23.4133 48.88 22.4 49.84C21.3867 50.8 20.72 51.4133 20.4 51.68C19.5467 52.4267 18.5067 53.2267 17.28 54.08C16.1067 54.9333 14.88 55.6533 13.6 56.24C12.32 56.8267 11.0933 57.12 9.92 57.12ZM45.2019 56.96C44.3485 56.96 43.4419 56.5333 42.4819 55.68C41.5752 54.7733 41.1219 53.8933 41.1219 53.04C41.1219 51.9733 41.4952 50.7733 42.2419 49.44C42.9885 48.0533 43.8685 46.72 44.8819 45.44C45.8952 44.16 46.7752 43.0667 47.5219 42.16C48.2685 41.2 48.6419 40.56 48.6419 40.24V40.08C48.1619 39.6533 47.7085 39.2533 47.2819 38.88C46.8552 38.4533 46.2685 38.24 45.5219 38.24C44.9885 38.24 44.2952 38.56 43.4419 39.2C42.6419 39.84 41.8152 40.5867 40.9619 41.44C40.1085 42.2933 39.3352 43.0933 38.6419 43.84C37.9485 44.5867 37.4419 45.0933 37.1219 45.36C36.9085 45.5733 36.6952 45.7067 36.4819 45.76C36.3219 45.8133 36.1885 45.84 36.0819 45.84C35.8685 45.84 35.7619 45.7333 35.7619 45.52C35.7619 45.3067 35.8685 45.0933 36.0819 44.88C36.9352 43.76 37.9219 42.6133 39.0419 41.44C40.1619 40.2667 41.1752 39.2 42.0819 38.24C42.9885 37.2267 43.5219 36.5067 43.6819 36.08C44.1085 34.8533 44.5352 33.76 44.9619 32.8C45.4419 31.84 46.1885 30.9333 47.2019 30.08C47.6285 29.6533 48.1352 29.3067 48.7219 29.04C49.3085 28.7733 49.8952 28.64 50.4819 28.64C51.0152 28.64 51.4419 28.8 51.7619 29.12C52.1352 29.3867 52.3219 29.8133 52.3219 30.4C52.3219 31.04 52.0285 31.68 51.4419 32.32C50.9085 32.96 50.2685 33.5733 49.5219 34.16C48.7752 34.6933 48.1085 35.1733 47.5219 35.6C46.9885 36.0267 46.7485 36.3733 46.8019 36.64C47.1219 36.8533 47.7352 37.12 48.6419 37.44C49.6019 37.76 50.2685 37.92 50.6419 37.92C51.0685 37.92 51.4685 37.84 51.8419 37.68C52.2152 37.52 52.5885 37.44 52.9619 37.44C53.4952 37.44 54.0285 37.6 54.5619 37.92C55.0952 38.24 55.3619 38.72 55.3619 39.36C55.3619 39.8933 55.1485 40.4 54.7219 40.88C54.3485 41.3067 53.9485 41.68 53.5219 42C52.8819 42.48 52.0285 43.2 50.9619 44.16C49.8952 45.12 48.8019 46.1867 47.6819 47.36C46.6152 48.5333 45.6819 49.7067 44.8819 50.88C44.1352 52 43.7619 52.9867 43.7619 53.84C43.7619 54.0533 43.8152 54.2667 43.9219 54.48C43.9752 54.5333 44.0819 54.56 44.2419 54.56C45.3085 54.56 46.5085 54.08 47.8419 53.12C49.1752 52.16 50.5085 50.9867 51.8419 49.6C53.2285 48.2133 54.5085 46.8533 55.6819 45.52C56.9085 44.1333 57.9485 43.0667 58.8019 42.32C58.9085 42.2133 59.0419 42.1067 59.2019 42C59.3619 41.8933 59.5219 41.84 59.6819 41.84C59.9485 41.84 60.0819 42.0267 60.0819 42.4C60.0819 42.6133 59.7085 43.1467 58.9619 44C58.2685 44.8533 57.3619 45.8667 56.2419 47.04C55.1219 48.2133 53.9485 49.4133 52.7219 50.64C51.5485 51.8667 50.4552 52.96 49.4419 53.92C48.4285 54.8267 47.7085 55.4667 47.2819 55.84C46.6952 56.32 46.2685 56.6133 46.0019 56.72C45.7352 56.88 45.4685 56.96 45.2019 56.96ZM71.0306 55.28C67.8306 55.28 66.2306 53.7067 66.2306 50.56C66.2306 49.3333 66.5506 47.92 67.1906 46.32C67.884 44.6667 68.7906 43.0133 69.9106 41.36C71.0306 39.7067 72.284 38.1867 73.6706 36.8C75.0573 35.36 76.4706 34.2133 77.9106 33.36C79.404 32.4533 80.7906 32 82.0706 32C82.4973 32 82.7906 32.1067 82.9506 32.32C83.164 32.48 83.324 32.7733 83.4306 33.2C83.5373 33.4133 83.6173 33.6533 83.6706 33.92C83.724 34.1867 83.804 34.4533 83.9106 34.72C84.124 35.0933 84.3106 35.4667 84.4706 35.84C84.6306 36.2133 84.7106 36.6133 84.7106 37.04C84.7106 37.5733 84.5773 38.0533 84.3106 38.48C84.044 38.8533 83.724 39.2 83.3506 39.52C82.8173 40 82.0173 40.6133 80.9506 41.36C79.884 42.0533 78.7106 42.7733 77.4306 43.52C76.204 44.2133 75.004 44.8267 73.8306 45.36C72.7106 45.8933 71.804 46.2133 71.1106 46.32C70.6306 47.0667 70.124 48 69.5906 49.12C69.1106 50.1867 68.8706 51.1733 68.8706 52.08C68.8706 52.56 68.9773 52.9867 69.1906 53.36C69.4573 53.7333 69.8573 53.92 70.3906 53.92C71.244 53.92 72.364 53.52 73.7506 52.72C75.1906 51.8667 76.684 50.8533 78.2306 49.68C79.7773 48.4533 81.1906 47.28 82.4706 46.16C83.804 44.9867 84.7906 44.08 85.4306 43.44L87.9906 40.72C88.3106 40.4 88.6573 40.24 89.0306 40.24C89.3506 40.24 89.5106 40.3733 89.5106 40.64C89.5106 40.96 89.0573 41.6267 88.1506 42.64C87.244 43.6 86.1506 44.6933 84.8706 45.92C83.644 47.0933 82.4973 48.1867 81.4306 49.2C80.364 50.16 79.6706 50.7733 79.3506 51.04C78.2306 52 76.9506 52.96 75.5106 53.92C74.0706 54.8267 72.5773 55.28 71.0306 55.28ZM72.4706 44.24C73.004 43.92 73.804 43.4133 74.8706 42.72C75.9906 42.0267 77.1373 41.2533 78.3106 40.4C79.484 39.5467 80.4706 38.6933 81.2706 37.84C82.124 36.9867 82.5506 36.24 82.5506 35.6C82.5506 35.44 82.524 35.3067 82.4706 35.2C82.4173 35.1467 82.3106 35.12 82.1506 35.12C81.4573 35.12 80.6306 35.4933 79.6706 36.24C78.7106 36.9867 77.7506 37.8933 76.7906 38.96C75.8306 39.9733 74.9506 40.9867 74.1506 42C73.404 42.96 72.844 43.7067 72.4706 44.24ZM109.412 56.72C108.932 56.72 108.372 56.5067 107.732 56.08C107.146 55.6533 106.639 55.1733 106.212 54.64C105.786 54.0533 105.572 53.52 105.572 53.04C105.572 52.24 105.866 51.1733 106.452 49.84C107.039 48.4533 107.706 47.0933 108.452 45.76C109.252 44.4267 109.866 43.44 110.292 42.8C109.546 43.44 108.586 44.48 107.412 45.92C106.292 47.3067 105.066 48.8 103.732 50.4C102.452 51.9467 101.199 53.28 99.9725 54.4C98.7992 55.52 97.7858 56.08 96.9325 56.08C95.7592 56.08 94.7992 55.68 94.0525 54.88C93.3592 54.0267 93.0125 53.0133 93.0125 51.84C93.0125 50.24 93.4658 48.5333 94.3725 46.72C95.2792 44.8533 96.4525 43.0667 97.8925 41.36C99.3858 39.6 100.986 38 102.692 36.56C104.452 35.12 106.159 33.9733 107.812 33.12C109.519 32.2667 111.039 31.84 112.372 31.84C113.812 31.84 114.986 32.1867 115.892 32.88C116.799 33.52 117.252 34.5067 117.252 35.84C117.252 36.0533 117.199 36.4533 117.092 37.04C117.039 37.6267 116.852 37.92 116.532 37.92C116.372 37.92 116.106 37.68 115.732 37.2C115.412 36.72 114.959 36.24 114.372 35.76C113.786 35.28 113.039 35.04 112.132 35.04C110.639 35.04 109.066 35.6 107.412 36.72C105.812 37.7867 104.266 39.1733 102.772 40.88C101.279 42.5333 99.9725 44.24 98.8525 46C97.7325 47.76 96.8792 49.28 96.2925 50.56C96.1325 50.9333 95.9725 51.3333 95.8125 51.76C95.7058 52.1867 95.6525 52.6133 95.6525 53.04C95.6525 53.52 95.7858 53.76 96.0525 53.76C96.3192 53.76 96.8792 53.4667 97.7325 52.88C98.6392 52.2933 99.2792 51.8667 99.6525 51.6C101.519 50.2667 103.279 48.7467 104.932 47.04C106.639 45.3333 108.159 43.5733 109.492 41.76C109.919 41.1733 110.319 40.5867 110.692 40C111.066 39.4133 111.439 38.8533 111.812 38.32C112.079 37.9467 112.346 37.76 112.612 37.76C113.199 37.76 113.759 38.16 114.292 38.96C114.879 39.76 115.172 40.4533 115.172 41.04C115.172 41.3067 115.119 41.4667 115.012 41.52C114.959 41.5733 114.799 41.7333 114.532 42C113.732 42.8 112.932 43.92 112.132 45.36C111.386 46.8 110.719 48.2667 110.132 49.76C109.599 51.2 109.199 52.4267 108.932 53.44C108.879 53.6 108.826 53.8133 108.772 54.08C108.772 54.2933 108.906 54.3733 109.172 54.32C109.706 54.16 110.559 53.5733 111.732 52.56C112.959 51.4933 114.266 50.2933 115.652 48.96C117.092 47.5733 118.372 46.2933 119.492 45.12C120.666 43.9467 121.439 43.12 121.812 42.64C121.919 42.5333 122.026 42.4267 122.132 42.32C122.292 42.16 122.452 42.08 122.612 42.08C122.986 42.08 123.172 42.2667 123.172 42.64C123.172 42.8533 122.746 43.4933 121.892 44.56C121.039 45.5733 119.972 46.7733 118.692 48.16C117.412 49.4933 116.106 50.8267 114.772 52.16C113.439 53.44 112.266 54.5333 111.252 55.44C110.292 56.2933 109.679 56.72 109.412 56.72ZM136.329 58.08C135.369 58.08 134.542 57.76 133.849 57.12C133.209 56.48 132.702 55.7067 132.329 54.8C132.009 53.84 131.849 52.9333 131.849 52.08C131.849 51.2267 131.955 50.4 132.169 49.6C132.382 48.7467 132.675 47.92 133.049 47.12C133.742 45.5733 134.569 43.8667 135.529 42C136.542 40.08 137.609 38.1333 138.729 36.16C139.902 34.1333 141.075 32.2933 142.249 30.64C141.342 31.0133 140.275 31.44 139.049 31.92C137.875 32.3467 137.102 32.56 136.729 32.56C136.515 32.5067 136.355 32.3467 136.249 32.08C136.195 31.8133 136.169 31.5467 136.169 31.28C136.169 30.16 136.702 29.4133 137.769 29.04C139.422 28.5067 141.635 28.0267 144.409 27.6C146.435 24.9333 148.622 22.2667 150.969 19.6C153.369 16.9333 155.795 14.8267 158.249 13.28C158.729 12.96 159.262 13.12 159.849 13.76C160.435 14.3467 160.755 14.96 160.809 15.6C160.809 16.1867 160.595 16.5867 160.169 16.8C158.035 18.1333 156.062 19.6533 154.249 21.36C152.435 23.0133 150.569 24.9067 148.649 27.04C149.715 26.88 150.649 26.7733 151.449 26.72C152.249 26.6667 152.755 26.64 152.969 26.64C153.129 26.64 153.395 26.64 153.769 26.64C154.142 26.5867 154.542 26.56 154.969 26.56C155.609 26.56 156.195 26.6133 156.729 26.72C157.315 26.8267 157.609 27.0133 157.609 27.28C157.609 27.4933 157.369 27.68 156.889 27.84C156.462 27.9467 155.982 28.0267 155.449 28.08C154.915 28.08 154.515 28.1067 154.249 28.16C152.649 28.3733 151.209 28.5867 149.929 28.8C148.702 29.0133 147.555 29.28 146.489 29.6C145.262 31.0933 144.302 32.3467 143.609 33.36C142.969 34.3733 142.409 35.3067 141.929 36.16C141.502 36.96 140.969 37.8667 140.329 38.88C138.942 41.5467 137.742 44.2667 136.729 47.04C135.769 49.8133 135.289 52.0533 135.289 53.76C135.289 54.0267 135.315 54.24 135.369 54.4C135.422 54.56 135.582 54.64 135.849 54.64C136.169 54.64 136.462 54.56 136.729 54.4C137.049 54.1867 137.315 53.9733 137.529 53.76C138.275 53.1733 138.969 52.5067 139.609 51.76C140.302 50.96 140.969 50.2133 141.609 49.52C142.782 48.24 143.982 46.9867 145.209 45.76C146.435 44.5333 147.635 43.3067 148.809 42.08C148.915 41.9733 149.022 41.8933 149.129 41.84C149.235 41.7333 149.342 41.68 149.449 41.68C149.822 41.68 150.009 41.8933 150.009 42.32C150.009 42.48 149.902 42.72 149.689 43.04C149.049 43.8933 148.355 44.7467 147.609 45.6C146.862 46.4 146.142 47.2267 145.449 48.08C144.062 49.7333 142.675 51.36 141.289 52.96C139.955 54.56 138.622 56.2133 137.289 57.92C137.129 57.9733 136.969 58 136.809 58C136.649 58.0533 136.489 58.08 136.329 58.08ZM174.663 25.84C173.436 25.84 172.823 25.3867 172.823 24.48C172.823 23.84 173.169 23.1467 173.863 22.4C174.556 21.6533 175.569 21.12 176.903 20.8C177.703 20.5867 178.343 20.48 178.823 20.48C179.356 20.4267 179.863 20.32 180.343 20.16C180.129 21.1733 179.676 22.2667 178.983 23.44C178.343 24.6133 177.489 25.3333 176.423 25.6C175.889 25.76 175.303 25.84 174.663 25.84ZM161.863 57.68C161.009 57.68 160.209 57.3333 159.463 56.64C158.769 55.9467 158.343 55.2 158.183 54.4C158.343 53.3867 158.689 52.16 159.223 50.72C159.809 49.2267 160.476 47.68 161.223 46.08C161.969 44.48 162.716 42.9867 163.463 41.6C164.209 40.16 164.849 39.0133 165.383 38.16C164.369 39.0667 163.276 40.08 162.103 41.2C160.983 42.32 159.916 43.36 158.903 44.32C158.849 44.3733 158.716 44.48 158.503 44.64C158.343 44.8 158.183 44.88 158.023 44.88C157.649 44.88 157.463 44.72 157.463 44.4C157.463 44.1333 157.569 43.8933 157.783 43.68C159.223 42.08 160.716 40.48 162.263 38.88C163.863 37.28 165.409 35.6267 166.903 33.92C167.383 33.3333 167.783 32.88 168.103 32.56C168.476 32.1867 169.036 32 169.783 32C170.103 32 170.583 32.08 171.223 32.24C171.916 32.3467 172.476 32.56 172.903 32.88C173.383 33.2 173.463 33.6 173.143 34.08C172.769 34.6667 172.129 35.6267 171.223 36.96C170.316 38.2933 169.276 39.8133 168.103 41.52C166.983 43.2267 165.863 44.96 164.743 46.72C163.676 48.4267 162.796 49.9733 162.103 51.36C161.409 52.7467 161.063 53.7867 161.063 54.48C161.063 54.8 161.169 54.96 161.383 54.96C161.703 54.96 162.236 54.6667 162.983 54.08C163.783 53.4933 164.556 52.88 165.303 52.24C166.103 51.5467 166.636 51.0933 166.903 50.88C168.449 49.5467 169.969 48.1867 171.463 46.8C172.956 45.36 174.369 43.8667 175.703 42.32C175.809 42.2133 175.943 42.0533 176.103 41.84C176.316 41.6267 176.529 41.52 176.743 41.52C177.009 41.52 177.143 41.68 177.143 42C177.143 42.3733 177.009 42.7467 176.743 43.12C176.049 43.9733 175.276 44.8267 174.423 45.68C173.569 46.48 172.769 47.28 172.023 48.08C170.636 49.4667 169.276 50.8533 167.943 52.24C166.663 53.5733 165.383 54.96 164.103 56.4C163.836 56.72 163.489 57.0133 163.062 57.28C162.689 57.5467 162.289 57.68 161.863 57.68ZM200.181 56.88C199.381 56.88 198.475 56.64 197.461 56.16C196.501 55.7333 196.021 55.04 196.021 54.08C196.021 52.96 196.448 51.6267 197.301 50.08C198.155 48.5333 199.168 46.9333 200.341 45.28C201.515 43.5733 202.635 41.9467 203.701 40.4C204.821 38.8533 205.621 37.5467 206.101 36.48C205.781 36.64 205.248 36.96 204.501 37.44C203.808 37.8667 203.115 38.32 202.421 38.8C201.728 39.2267 201.221 39.5733 200.901 39.84C198.608 41.5467 196.608 43.3067 194.901 45.12C193.248 46.9333 191.568 49.0133 189.861 51.36C189.435 52 188.981 52.6667 188.501 53.36C188.075 54.0533 187.621 54.72 187.141 55.36C186.928 55.6267 186.555 55.8933 186.021 56.16C185.541 56.4267 185.088 56.56 184.661 56.56C183.968 56.56 183.621 56.1867 183.621 55.44C183.621 54.8 183.941 53.8133 184.581 52.48C185.275 51.1467 186.128 49.6267 187.141 47.92C188.155 46.2133 189.221 44.5333 190.341 42.88C191.461 41.1733 192.475 39.6533 193.381 38.32C194.288 36.9333 194.928 35.9467 195.301 35.36C195.195 35.52 194.901 35.8133 194.421 36.24C193.941 36.6133 193.461 37.0133 192.981 37.44C192.555 37.8133 192.235 38.08 192.021 38.24C191.008 39.2 190.021 40.1867 189.061 41.2C188.101 42.2133 187.141 43.2267 186.181 44.24C186.075 44.3467 185.861 44.5067 185.541 44.72C185.275 44.9333 185.035 45.04 184.821 45.04C184.555 45.04 184.421 44.9067 184.421 44.64C184.421 44.3733 184.795 43.8133 185.541 42.96C186.288 42.1067 187.221 41.0933 188.341 39.92C189.461 38.7467 190.608 37.5467 191.781 36.32C193.008 35.0933 194.075 34 194.981 33.04C195.888 32.08 196.501 31.4133 196.821 31.04C197.355 30.3467 197.915 29.7867 198.501 29.36C199.141 28.9333 199.888 28.72 200.741 28.72C201.221 28.72 201.808 28.96 202.501 29.44C203.195 29.8667 203.541 30.3733 203.541 30.96C203.541 31.1733 203.488 31.3067 203.381 31.36C201.781 32.6933 200.208 34.2667 198.661 36.08C197.168 37.8933 195.755 39.76 194.421 41.68C193.088 43.6 191.861 45.3867 190.741 47.04C192.021 45.6 193.461 44.1867 195.061 42.8C196.661 41.36 198.208 40.0267 199.701 38.8L205.381 34.16C205.755 33.84 206.128 33.4933 206.501 33.12C206.928 32.7467 207.328 32.4267 207.701 32.16C208.128 31.8933 208.581 31.7867 209.061 31.84C209.595 31.84 210.128 31.84 210.661 31.84C211.248 31.84 211.808 32 212.341 32.32C212.928 32.64 213.221 33.1467 213.221 33.84C213.221 34.5333 213.035 35.0667 212.661 35.44C212.341 35.76 211.968 36.1333 211.541 36.56C210.635 37.4133 209.515 38.5333 208.181 39.92C206.901 41.3067 205.621 42.8 204.341 44.4C203.061 46 201.995 47.6267 201.141 49.28C200.288 50.88 199.861 52.3733 199.861 53.76C199.861 53.92 199.861 54.08 199.861 54.24C199.861 54.4 199.888 54.56 199.941 54.72C201.061 54.2933 202.288 53.6 203.621 52.64C205.008 51.6267 206.395 50.5067 207.781 49.28C209.168 48.0533 210.448 46.8267 211.621 45.6C212.848 44.3733 213.861 43.28 214.661 42.32C214.768 42.2133 214.875 42.08 214.981 41.92C215.141 41.76 215.328 41.68 215.541 41.68C215.808 41.68 215.941 41.8667 215.941 42.24C215.941 42.4533 215.861 42.6933 215.701 42.96C214.688 44.2933 213.328 45.8667 211.621 47.68C209.915 49.4933 208.155 51.2267 206.341 52.88C204.528 54.48 202.901 55.7067 201.461 56.56C201.088 56.7733 200.661 56.88 200.181 56.88ZM207.095 86.64C204.642 86.64 203.415 85.4133 203.415 82.96C203.415 82.6933 203.442 82.4267 203.495 82.16C203.495 81.8933 203.522 81.6267 203.575 81.36C204.002 79.44 204.908 77.6 206.295 75.84C207.682 74.08 209.308 72.4267 211.175 70.88C213.042 69.3867 214.962 67.9733 216.935 66.64C218.855 65.36 220.588 64.24 222.135 63.28C223.042 62.6933 224.188 61.9733 225.575 61.12C227.015 60.2667 228.535 59.3333 230.135 58.32C231.735 57.36 233.255 56.4533 234.695 55.6C235.282 54.1067 235.788 52.4533 236.215 50.64C236.695 48.8267 236.908 47.0133 236.855 45.2C236.215 45.8933 235.362 46.8533 234.295 48.08C233.228 49.2533 232.055 50.4267 230.775 51.6C229.548 52.7733 228.295 53.7867 227.015 54.64C225.788 55.44 224.695 55.84 223.735 55.84C222.722 55.84 221.948 55.36 221.415 54.4C220.882 53.44 220.615 52.5067 220.615 51.6C220.615 50.1067 221.042 48.48 221.895 46.72C222.748 44.96 223.895 43.2267 225.335 41.52C226.775 39.8133 228.348 38.24 230.055 36.8C231.762 35.36 233.468 34.2133 235.175 33.36C236.882 32.5067 238.455 32.08 239.895 32.08C241.015 32.08 242.028 32.48 242.935 33.28C243.842 34.0267 244.295 34.9867 244.295 36.16C244.295 36.5333 244.188 36.9333 243.975 37.36C243.815 37.7333 243.522 37.92 243.095 37.92C242.722 37.92 242.428 37.7867 242.215 37.52C242.002 37.2 241.735 36.9067 241.415 36.64C241.095 36.32 240.535 36.16 239.735 36.16C238.562 36.16 237.282 36.56 235.895 37.36C234.562 38.1067 233.308 39.0133 232.135 40.08C230.962 41.1467 229.975 42.08 229.175 42.88C228.162 43.9467 227.175 45.2267 226.215 46.72C225.308 48.2133 224.588 49.6533 224.055 51.04C223.895 51.4133 223.735 51.84 223.575 52.32C223.468 52.8 223.415 53.2533 223.415 53.68C223.415 54.2133 223.602 54.48 223.975 54.48C224.082 54.48 224.188 54.48 224.295 54.48C224.402 54.4267 224.508 54.3733 224.615 54.32C226.162 53.68 227.788 52.5333 229.495 50.88C231.202 49.2267 232.802 47.44 234.295 45.52C235.788 43.5467 236.988 41.8667 237.895 40.48L238.215 40C238.535 38.9867 239.228 38.48 240.295 38.48C240.615 38.48 240.935 38.56 241.255 38.72C241.575 38.88 241.735 39.1733 241.735 39.6C241.735 41.9467 241.628 44 241.415 45.76C241.202 47.52 240.695 49.52 239.895 51.76C240.962 50.9067 241.948 50.08 242.855 49.28C243.815 48.48 244.748 47.6 245.655 46.64C246.508 45.7867 247.308 44.9067 248.055 44C248.855 43.0933 249.682 42.24 250.535 41.44C250.642 41.3333 250.748 41.2533 250.855 41.2C251.015 41.0933 251.175 41.04 251.335 41.04C251.655 41.04 251.815 41.2 251.815 41.52C251.815 41.7867 251.415 42.3733 250.615 43.28C249.868 44.1333 248.908 45.1467 247.735 46.32C246.615 47.4933 245.415 48.6933 244.135 49.92C242.908 51.0933 241.788 52.16 240.775 53.12C239.815 54.0267 239.148 54.64 238.775 54.96C236.322 61.4133 233.122 67.0133 229.175 71.76C225.282 76.56 220.322 80.6933 214.295 84.16C213.282 84.7467 212.135 85.3067 210.855 85.84C209.575 86.3733 208.322 86.64 207.095 86.64ZM208.935 84.64C210.375 84.64 211.948 84.1067 213.655 83.04C215.308 82.0267 216.962 80.7467 218.615 79.2C220.268 77.6533 221.762 76.1067 223.095 74.56C224.482 73.0667 225.575 71.8133 226.375 70.8C227.282 69.5733 228.162 68.3467 229.015 67.12C229.868 65.9467 230.668 64.72 231.415 63.44C232.535 61.5733 233.468 59.76 234.215 58C234.268 57.84 234.215 57.7333 234.055 57.68C233.948 57.68 233.895 57.68 233.895 57.68C232.242 58.8533 230.562 60 228.855 61.12C227.202 62.2933 225.522 63.44 223.815 64.56C222.962 65.0933 221.815 65.8667 220.375 66.88C218.935 67.9467 217.388 69.12 215.735 70.4C214.082 71.7333 212.508 73.0933 211.015 74.48C209.522 75.92 208.295 77.3067 207.335 78.64C206.375 80.0267 205.895 81.2533 205.895 82.32C205.895 83.1733 206.242 83.76 206.935 84.08C207.575 84.4533 208.242 84.64 208.935 84.64ZM287.417 58.08C286.457 58.08 285.63 57.76 284.937 57.12C284.297 56.48 283.79 55.7067 283.417 54.8C283.097 53.84 282.937 52.9333 282.937 52.08C282.937 51.2267 283.044 50.4 283.257 49.6C283.47 48.7467 283.764 47.92 284.137 47.12C285.524 44.0267 287.097 41.0667 288.857 38.24C290.617 35.4133 292.484 32.56 294.457 29.68C293.497 29.7333 292.217 29.6267 290.617 29.36C289.07 29.0933 287.737 28.6933 286.617 28.16C286.084 27.8933 285.657 27.4933 285.337 26.96C285.07 26.3733 284.937 25.8933 284.937 25.52C284.937 25.04 285.097 24.8533 285.417 24.96C287.337 26.08 289.097 26.8267 290.697 27.2C292.35 27.52 294.084 27.7067 295.897 27.76C297.71 25.36 299.63 22.9867 301.657 20.64C303.737 18.2933 305.764 16.3733 307.737 14.88C308.004 14.72 308.217 14.64 308.377 14.64C308.804 14.64 309.177 14.8533 309.497 15.28C309.87 15.7067 310.057 16.16 310.057 16.64C310.057 17.3333 309.79 17.8133 309.257 18.08C306.217 20.8533 303.124 24.1067 299.977 27.84C300.884 27.8933 301.844 27.9467 302.857 28C303.87 28 304.884 28 305.897 28C307.444 28 308.964 27.9733 310.457 27.92C311.95 27.8667 313.257 27.76 314.377 27.6C322.11 15.3867 329.47 7.25333 336.457 3.2C337.95 2.29333 339.31 1.68 340.537 1.36C341.764 0.986663 342.884 0.799995 343.897 0.799995C345.444 0.799995 346.697 1.14666 347.657 1.84C348.67 2.48 349.497 3.28 350.137 4.24C350.404 4.66666 350.537 5.17333 350.537 5.76C350.537 7.2 349.79 9.01333 348.297 11.2C346.804 13.3333 344.617 15.5733 341.737 17.92C338.857 20.2133 335.364 22.3733 331.257 24.4C327.15 26.3733 322.484 27.92 317.257 29.04C314.91 32.08 312.857 35.0133 311.097 37.84C309.337 40.6667 307.95 43.0667 306.937 45.04C308.43 43.6533 310.084 42.1867 311.897 40.64C313.764 39.04 315.577 37.4933 317.337 36C319.097 34.4533 320.537 33.12 321.657 32C321.924 31.7333 322.27 31.5467 322.697 31.44C323.177 31.3333 323.524 31.28 323.737 31.28C324.484 31.28 325.23 31.6533 325.977 32.4C326.777 33.1467 327.177 33.9733 327.177 34.88C327.177 35.68 326.83 36.4 326.137 37.04C324.537 38.48 322.91 40.16 321.257 42.08C319.604 43.9467 318.11 45.92 316.777 48C316.404 48.64 315.87 49.5733 315.177 50.8C314.537 52.0267 314.217 53.0133 314.217 53.76C314.217 54.2933 314.377 54.56 314.697 54.56C315.337 54.56 316.217 54.2133 317.337 53.52C318.51 52.8267 319.764 51.9467 321.097 50.88C322.484 49.76 323.844 48.6133 325.177 47.44C326.564 46.2667 327.79 45.1733 328.857 44.16C329.924 43.1467 330.697 42.3733 331.177 41.84C331.497 41.52 331.764 41.36 331.977 41.36C332.297 41.36 332.457 41.52 332.457 41.84C332.457 42 332.35 42.24 332.137 42.56C331.444 43.4667 330.43 44.6133 329.097 46C327.764 47.3333 326.297 48.72 324.697 50.16C323.097 51.5467 321.55 52.8267 320.057 54C318.617 55.12 317.417 55.9733 316.457 56.56C316.084 56.7733 315.604 56.88 315.017 56.88C314.217 56.88 313.284 56.6133 312.217 56.08C311.15 55.5467 310.617 54.8267 310.617 53.92C310.617 53.12 310.91 52.1067 311.497 50.88C312.084 49.6533 312.804 48.3467 313.657 46.96C314.51 45.5733 315.39 44.24 316.297 42.96C317.204 41.6267 317.977 40.5067 318.617 39.6C319.31 38.64 319.737 38 319.897 37.68C320.644 36.6667 321.097 36.0267 321.257 35.76C321.417 35.4933 321.524 35.28 321.577 35.12C321.15 35.44 320.484 35.9467 319.577 36.64C318.67 37.28 317.764 37.9467 316.857 38.64C315.95 39.3333 315.284 39.8667 314.857 40.24C311.87 42.8533 309.364 45.36 307.337 47.76C305.364 50.1067 303.524 52.6133 301.817 55.28C301.764 55.3333 301.63 55.3867 301.417 55.44C301.204 55.44 301.044 55.44 300.937 55.44C300.617 55.44 300.137 55.36 299.497 55.2C298.91 55.04 298.67 54.6933 298.777 54.16C299.097 53.36 299.524 52.5067 300.057 51.6C300.59 50.6933 301.337 49.4667 302.297 47.92C303.257 46.32 304.51 44.08 306.057 41.2C306.324 40.72 306.777 39.9467 307.417 38.88C308.057 37.8133 308.75 36.6667 309.497 35.44C310.297 34.2133 311.044 33.04 311.737 31.92C312.43 30.8 312.964 29.9467 313.337 29.36C312.324 29.4667 310.91 29.5733 309.097 29.68C307.284 29.7333 305.444 29.76 303.577 29.76C302.67 29.76 301.79 29.76 300.937 29.76C300.084 29.7067 299.284 29.6533 298.537 29.6C297.577 30.56 296.404 32 295.017 33.92C293.684 35.84 292.35 38 291.017 40.4C289.684 42.7467 288.564 45.0933 287.657 47.44C286.804 49.7867 286.377 51.8933 286.377 53.76C286.377 54.0267 286.404 54.24 286.457 54.4C286.51 54.56 286.67 54.64 286.937 54.64C287.257 54.64 287.55 54.56 287.817 54.4C288.137 54.1867 288.404 53.9733 288.617 53.76C289.364 53.1733 290.057 52.5067 290.697 51.76C291.39 50.96 292.057 50.2133 292.697 49.52C293.87 48.24 295.07 46.9867 296.297 45.76C297.524 44.5333 298.724 43.3067 299.897 42.08C300.004 41.9733 300.11 41.8933 300.217 41.84C300.324 41.7333 300.43 41.68 300.537 41.68C300.91 41.68 301.097 41.8933 301.097 42.32C301.097 42.48 300.99 42.72 300.777 43.04C300.137 43.8933 299.444 44.7467 298.697 45.6C297.95 46.4 297.23 47.2267 296.537 48.08C295.15 49.7333 293.764 51.36 292.377 52.96C291.044 54.56 289.71 56.2133 288.377 57.92C288.217 57.9733 288.057 58 287.897 58C287.737 58.0533 287.577 58.08 287.417 58.08ZM318.137 27.12C320.59 26.48 323.177 25.5467 325.897 24.32C328.67 23.04 331.364 21.6 333.977 20C336.59 18.3467 338.937 16.64 341.017 14.88C343.15 13.0667 344.83 11.3067 346.057 9.6C347.337 7.89333 347.977 6.37333 347.977 5.04C347.977 4.66666 347.95 4.37333 347.897 4.16C347.524 3.2 346.59 2.72 345.097 2.72C344.51 2.72 343.844 2.8 343.097 2.96C342.404 3.12 341.657 3.41333 340.857 3.84C337.977 5.28 335.284 7.06667 332.777 9.2C330.324 11.3333 327.924 13.8667 325.577 16.8C323.23 19.7333 320.75 23.1733 318.137 27.12ZM341.34 55.28C338.14 55.28 336.54 53.7067 336.54 50.56C336.54 49.3333 336.86 47.92 337.5 46.32C338.193 44.6667 339.1 43.0133 340.22 41.36C341.34 39.7067 342.593 38.1867 343.98 36.8C345.367 35.36 346.78 34.2133 348.22 33.36C349.713 32.4533 351.1 32 352.38 32C352.807 32 353.1 32.1067 353.26 32.32C353.473 32.48 353.633 32.7733 353.74 33.2C353.847 33.4133 353.927 33.6533 353.98 33.92C354.033 34.1867 354.113 34.4533 354.22 34.72C354.433 35.0933 354.62 35.4667 354.78 35.84C354.94 36.2133 355.02 36.6133 355.02 37.04C355.02 37.5733 354.887 38.0533 354.62 38.48C354.353 38.8533 354.033 39.2 353.66 39.52C353.127 40 352.327 40.6133 351.26 41.36C350.193 42.0533 349.02 42.7733 347.74 43.52C346.513 44.2133 345.313 44.8267 344.14 45.36C343.02 45.8933 342.113 46.2133 341.42 46.32C340.94 47.0667 340.433 48 339.9 49.12C339.42 50.1867 339.18 51.1733 339.18 52.08C339.18 52.56 339.287 52.9867 339.5 53.36C339.767 53.7333 340.167 53.92 340.7 53.92C341.553 53.92 342.673 53.52 344.06 52.72C345.5 51.8667 346.993 50.8533 348.54 49.68C350.087 48.4533 351.5 47.28 352.78 46.16C354.113 44.9867 355.1 44.08 355.74 43.44L358.3 40.72C358.62 40.4 358.967 40.24 359.34 40.24C359.66 40.24 359.82 40.3733 359.82 40.64C359.82 40.96 359.367 41.6267 358.46 42.64C357.553 43.6 356.46 44.6933 355.18 45.92C353.953 47.0933 352.807 48.1867 351.74 49.2C350.673 50.16 349.98 50.7733 349.66 51.04C348.54 52 347.26 52.96 345.82 53.92C344.38 54.8267 342.887 55.28 341.34 55.28ZM342.78 44.24C343.313 43.92 344.113 43.4133 345.18 42.72C346.3 42.0267 347.447 41.2533 348.62 40.4C349.793 39.5467 350.78 38.6933 351.58 37.84C352.433 36.9867 352.86 36.24 352.86 35.6C352.86 35.44 352.833 35.3067 352.78 35.2C352.727 35.1467 352.62 35.12 352.46 35.12C351.767 35.12 350.94 35.4933 349.98 36.24C349.02 36.9867 348.06 37.8933 347.1 38.96C346.14 39.9733 345.26 40.9867 344.46 42C343.713 42.96 343.153 43.7067 342.78 44.24ZM164.344 141.88C162.797 141.88 161.65 141.267 160.904 140.04C160.157 138.76 159.784 137.453 159.784 136.12C159.784 134.307 160.264 132.36 161.224 130.28C162.184 128.147 163.33 126.12 164.664 124.2C166.05 122.28 167.277 120.707 168.344 119.48C168.61 119.16 168.957 119 169.384 119C169.864 119 170.344 119.187 170.824 119.56C171.944 118.76 173.224 118.04 174.664 117.4C176.157 116.76 177.597 116.44 178.984 116.44C181.384 116.44 182.584 117.667 182.584 120.12C182.584 122.467 181.997 124.627 180.824 126.6C179.704 128.573 178.45 130.493 177.064 132.36C176.69 132.84 176.317 133.293 175.944 133.72C175.624 134.147 175.25 134.573 174.824 135C177.17 134.36 179.224 133.293 180.984 131.8C182.744 130.307 184.477 128.76 186.184 127.16C186.397 126.947 186.584 126.787 186.744 126.68C186.957 126.52 187.224 126.44 187.544 126.44C187.81 126.44 187.944 126.627 187.944 127C187.944 127.053 187.864 127.187 187.704 127.4C187.544 127.613 187.437 127.773 187.384 127.88C185.624 130.013 183.437 132.013 180.824 133.88C178.264 135.693 175.57 136.813 172.744 137.24C171.73 138.253 170.45 139.293 168.904 140.36C167.357 141.373 165.837 141.88 164.344 141.88ZM170.584 135.56C170.797 135.56 170.984 135.56 171.144 135.56C171.357 135.56 171.57 135.533 171.784 135.48C172.85 134.2 173.944 132.68 175.064 130.92C176.237 129.16 177.224 127.347 178.024 125.48C178.824 123.56 179.224 121.827 179.224 120.28C179.224 119.32 178.77 118.84 177.864 118.84C176.957 118.84 175.917 119.107 174.744 119.64C173.57 120.173 172.584 120.733 171.784 121.32V121.56C171.784 122.093 171.357 122.867 170.504 123.88C169.704 124.84 168.824 125.827 167.864 126.84C166.957 127.853 166.29 128.707 165.864 129.4C165.704 131.16 166.05 132.627 166.904 133.8C167.757 134.973 168.984 135.56 170.584 135.56ZM164.424 140.52C165.437 140.52 166.424 140.147 167.384 139.4C168.397 138.653 169.25 137.96 169.944 137.32C168.664 137.213 167.49 136.787 166.424 136.04C165.41 135.24 164.477 134.36 163.624 133.4C163.464 133.72 163.25 134.333 162.984 135.24C162.717 136.147 162.584 137.053 162.584 137.96C162.584 138.653 162.717 139.267 162.984 139.8C163.25 140.28 163.73 140.52 164.424 140.52ZM210.581 141.88C209.781 141.88 208.875 141.64 207.861 141.16C206.901 140.733 206.421 140.04 206.421 139.08C206.421 137.96 206.848 136.627 207.701 135.08C208.555 133.533 209.568 131.933 210.741 130.28C211.915 128.573 213.035 126.947 214.101 125.4C215.221 123.853 216.021 122.547 216.501 121.48C216.181 121.64 215.648 121.96 214.901 122.44C214.208 122.867 213.515 123.32 212.821 123.8C212.128 124.227 211.621 124.573 211.301 124.84C209.008 126.547 207.008 128.307 205.301 130.12C203.648 131.933 201.968 134.013 200.261 136.36C199.835 137 199.381 137.667 198.901 138.36C198.475 139.053 198.021 139.72 197.541 140.36C197.328 140.627 196.955 140.893 196.421 141.16C195.941 141.427 195.488 141.56 195.061 141.56C194.368 141.56 194.021 141.187 194.021 140.44C194.021 139.8 194.341 138.813 194.981 137.48C195.675 136.147 196.528 134.627 197.541 132.92C198.555 131.213 199.621 129.533 200.741 127.88C201.861 126.173 202.875 124.653 203.781 123.32C204.688 121.933 205.328 120.947 205.701 120.36C205.595 120.52 205.301 120.813 204.821 121.24C204.341 121.613 203.861 122.013 203.381 122.44C202.955 122.813 202.635 123.08 202.421 123.24C201.408 124.2 200.421 125.187 199.461 126.2C198.501 127.213 197.541 128.227 196.581 129.24C196.475 129.347 196.261 129.507 195.941 129.72C195.675 129.933 195.435 130.04 195.221 130.04C194.955 130.04 194.821 129.907 194.821 129.64C194.821 129.373 195.195 128.813 195.941 127.96C196.688 127.107 197.621 126.093 198.741 124.92C199.861 123.747 201.008 122.547 202.181 121.32C203.408 120.093 204.475 119 205.381 118.04C206.288 117.08 206.901 116.413 207.221 116.04C207.755 115.347 208.315 114.787 208.901 114.36C209.541 113.933 210.288 113.72 211.141 113.72C211.621 113.72 212.208 113.96 212.901 114.44C213.595 114.867 213.941 115.373 213.941 115.96C213.941 116.173 213.888 116.307 213.781 116.36C212.181 117.693 210.608 119.267 209.061 121.08C207.568 122.893 206.155 124.76 204.821 126.68C203.488 128.6 202.261 130.387 201.141 132.04C202.421 130.6 203.861 129.187 205.461 127.8C207.061 126.36 208.608 125.027 210.101 123.8L215.781 119.16C216.155 118.84 216.528 118.493 216.901 118.12C217.328 117.747 217.728 117.427 218.101 117.16C218.528 116.893 218.981 116.787 219.461 116.84C219.995 116.84 220.528 116.84 221.061 116.84C221.648 116.84 222.208 117 222.741 117.32C223.328 117.64 223.621 118.147 223.621 118.84C223.621 119.533 223.435 120.067 223.061 120.44C222.741 120.76 222.368 121.133 221.941 121.56C221.035 122.413 219.915 123.533 218.581 124.92C217.301 126.307 216.021 127.8 214.741 129.4C213.461 131 212.395 132.627 211.541 134.28C210.688 135.88 210.261 137.373 210.261 138.76C210.261 138.92 210.261 139.08 210.261 139.24C210.261 139.4 210.288 139.56 210.341 139.72C211.461 139.293 212.688 138.6 214.021 137.64C215.408 136.627 216.795 135.507 218.181 134.28C219.568 133.053 220.848 131.827 222.021 130.6C223.248 129.373 224.261 128.28 225.061 127.32C225.168 127.213 225.275 127.08 225.381 126.92C225.541 126.76 225.728 126.68 225.941 126.68C226.208 126.68 226.341 126.867 226.341 127.24C226.341 127.453 226.261 127.693 226.101 127.96C225.088 129.293 223.728 130.867 222.021 132.68C220.315 134.493 218.555 136.227 216.741 137.88C214.928 139.48 213.301 140.707 211.861 141.56C211.488 141.773 211.061 141.88 210.581 141.88ZM239.095 141.8C238.188 141.8 237.095 141.453 235.815 140.76C234.535 140.067 233.655 139.32 233.175 138.52C232.855 137.987 232.695 137.347 232.695 136.6C232.695 134.893 233.308 132.627 234.535 129.8C235.815 126.92 237.415 123.827 239.335 120.52C240.188 119.027 241.282 117.293 242.615 115.32C244.002 113.347 245.548 111.32 247.255 109.24C248.962 107.107 250.748 105.08 252.615 103.16C254.535 101.24 256.428 99.56 258.295 98.12C260.215 96.68 262.028 95.6667 263.735 95.08C264.428 94.8133 265.042 94.68 265.575 94.68C266.588 94.68 267.282 95.0267 267.655 95.72C268.082 96.36 268.642 96.8933 269.335 97.32C269.762 97.5867 269.975 98.0133 269.975 98.6C269.975 99.8267 269.308 101.293 267.975 103C266.642 104.707 264.908 106.52 262.775 108.44C260.642 110.36 258.348 112.28 255.895 114.2C253.442 116.067 251.068 117.8 248.775 119.4C246.535 121 244.615 122.333 243.015 123.4C241.415 124.467 240.402 125.133 239.975 125.4C239.175 126.893 238.428 128.6 237.735 130.52C237.042 132.44 236.695 134.253 236.695 135.96C236.695 136.6 236.775 137.32 236.935 138.12C237.148 138.867 237.682 139.24 238.535 139.24C239.335 139.24 240.268 138.947 241.335 138.36C242.402 137.773 243.442 137.133 244.455 136.44C245.468 135.693 246.268 135.08 246.855 134.6C248.242 133.48 249.468 132.333 250.535 131.16C251.602 129.987 252.855 128.653 254.295 127.16C254.402 127.053 254.508 126.973 254.615 126.92C254.722 126.813 254.855 126.76 255.015 126.76C255.335 126.76 255.495 126.947 255.495 127.32C255.495 127.64 255.362 127.933 255.095 128.2C252.962 130.547 250.722 132.973 248.375 135.48C246.082 137.987 243.522 139.96 240.695 141.4C240.162 141.667 239.628 141.8 239.095 141.8ZM242.535 121.24C243.335 120.973 244.455 120.333 245.895 119.32C247.335 118.253 248.935 117 250.695 115.56C252.508 114.12 254.322 112.6 256.135 111C258.002 109.347 259.708 107.773 261.255 106.28C262.855 104.733 264.162 103.427 265.175 102.36C266.242 101.24 266.855 100.467 267.015 100.04C267.122 99.72 267.175 99.5067 267.175 99.4C267.175 98.9733 266.962 98.68 266.535 98.52C266.162 98.36 265.735 98.28 265.255 98.28C264.988 98.28 264.722 98.3067 264.455 98.36C264.188 98.4133 263.948 98.4667 263.735 98.52C262.828 98.84 261.628 99.64 260.135 100.92C258.642 102.147 257.042 103.667 255.335 105.48C253.628 107.24 251.922 109.107 250.215 111.08C248.562 113.053 247.042 114.947 245.655 116.76C244.322 118.52 243.282 120.013 242.535 121.24ZM250.647 171.64C248.194 171.64 246.967 170.413 246.967 167.96C246.967 167.693 246.994 167.427 247.047 167.16C247.047 166.893 247.074 166.627 247.127 166.36C247.554 164.44 248.46 162.6 249.847 160.84C251.234 159.08 252.86 157.427 254.727 155.88C256.594 154.387 258.487 152.973 260.407 151.64C262.38 150.36 264.14 149.24 265.687 148.28C266.594 147.693 267.74 146.973 269.127 146.12C270.567 145.267 272.087 144.333 273.687 143.32C275.287 142.36 276.807 141.453 278.247 140.6C278.834 139.107 279.234 137.453 279.447 135.64C279.714 133.773 279.847 132.04 279.847 130.44V129.8C279.207 130.76 278.274 131.88 277.047 133.16C275.82 134.44 274.434 135.693 272.887 136.92C271.34 138.093 269.82 139.08 268.327 139.88C266.834 140.68 265.474 141.08 264.247 141.08C263.394 141.08 262.807 140.813 262.487 140.28C262.22 139.747 262.087 139.133 262.087 138.44C262.087 136.573 262.487 134.653 263.287 132.68C264.087 130.707 264.994 128.893 266.007 127.24C267.02 125.533 267.927 124.12 268.727 123C269.527 121.827 269.927 121.16 269.927 121C269.927 120.947 269.874 120.92 269.767 120.92C269.554 120.92 269.314 120.92 269.047 120.92C268.834 120.92 268.807 120.76 268.967 120.44C269.714 119.533 270.647 118.733 271.767 118.04C272.887 117.347 273.954 117 274.967 117C275.34 117 275.767 117.16 276.247 117.48C276.78 117.747 277.047 118.093 277.047 118.52C277.047 118.787 276.887 119.08 276.567 119.4C276.194 119.773 275.74 120.2 275.207 120.68C274.727 121.16 274.06 121.907 273.207 122.92C272.727 123.453 272.06 124.333 271.207 125.56C270.354 126.733 269.474 128.093 268.567 129.64C267.66 131.133 266.887 132.627 266.247 134.12C265.66 135.56 265.367 136.813 265.367 137.88C265.367 138.04 265.367 138.227 265.367 138.44C265.42 138.6 265.554 138.76 265.767 138.92C266.514 138.973 267.447 138.653 268.567 137.96C269.687 137.213 270.86 136.28 272.087 135.16C273.367 133.987 274.567 132.76 275.687 131.48C276.86 130.147 277.874 128.92 278.727 127.8C279.634 126.627 280.274 125.693 280.647 125C281.234 123.933 282.114 123.4 283.287 123.4C284.14 123.4 284.62 123.587 284.727 123.96C284.887 124.333 284.967 124.84 284.967 125.48C284.967 127.56 284.834 129.4 284.567 131C284.354 132.547 283.927 134.307 283.287 136.28C286.7 133.347 289.954 130.253 293.047 127C293.1 126.893 293.207 126.76 293.367 126.6C293.58 126.44 293.74 126.36 293.847 126.36C294.167 126.36 294.327 126.52 294.327 126.84C294.327 127.267 294.167 127.693 293.847 128.12C293.367 128.707 292.834 129.293 292.247 129.88C291.714 130.467 291.18 131.053 290.647 131.64C289.367 133.027 288.06 134.413 286.727 135.8C285.394 137.133 283.98 138.413 282.487 139.64C280.034 146.093 276.807 151.747 272.807 156.6C268.86 161.507 263.874 165.693 257.847 169.16C256.834 169.747 255.687 170.307 254.407 170.84C253.127 171.373 251.874 171.64 250.647 171.64ZM252.487 169.64C253.927 169.64 255.5 169.107 257.207 168.04C258.86 167.027 260.514 165.747 262.167 164.2C263.82 162.653 265.314 161.107 266.647 159.56C268.034 158.067 269.127 156.813 269.927 155.8C270.834 154.573 271.714 153.347 272.567 152.12C273.42 150.947 274.22 149.72 274.967 148.44C276.087 146.573 277.02 144.76 277.767 143C277.82 142.84 277.767 142.733 277.607 142.68C277.5 142.68 277.447 142.68 277.447 142.68C275.794 143.853 274.114 145 272.407 146.12C270.754 147.293 269.074 148.44 267.367 149.56C266.514 150.093 265.367 150.867 263.927 151.88C262.487 152.947 260.94 154.12 259.287 155.4C257.634 156.733 256.06 158.093 254.567 159.48C253.074 160.92 251.847 162.307 250.887 163.64C249.927 165.027 249.447 166.253 249.447 167.32C249.447 168.173 249.794 168.76 250.487 169.08C251.127 169.453 251.794 169.64 252.487 169.64ZM330.641 141.88C329.094 141.88 327.947 141.267 327.201 140.04C326.454 138.76 326.081 137.453 326.081 136.12C326.081 134.307 326.561 132.36 327.521 130.28C328.481 128.147 329.627 126.12 330.961 124.2C332.347 122.28 333.574 120.707 334.641 119.48C334.907 119.16 335.254 119 335.681 119C336.161 119 336.641 119.187 337.121 119.56C338.241 118.76 339.521 118.04 340.961 117.4C342.454 116.76 343.894 116.44 345.281 116.44C347.681 116.44 348.881 117.667 348.881 120.12C348.881 122.467 348.294 124.627 347.121 126.6C346.001 128.573 344.747 130.493 343.361 132.36C342.987 132.84 342.614 133.293 342.241 133.72C341.921 134.147 341.547 134.573 341.121 135C343.467 134.36 345.521 133.293 347.281 131.8C349.041 130.307 350.774 128.76 352.481 127.16C352.694 126.947 352.881 126.787 353.041 126.68C353.254 126.52 353.521 126.44 353.841 126.44C354.107 126.44 354.241 126.627 354.241 127C354.241 127.053 354.161 127.187 354.001 127.4C353.841 127.613 353.734 127.773 353.681 127.88C351.921 130.013 349.734 132.013 347.121 133.88C344.561 135.693 341.867 136.813 339.041 137.24C338.027 138.253 336.747 139.293 335.201 140.36C333.654 141.373 332.134 141.88 330.641 141.88ZM336.881 135.56C337.094 135.56 337.281 135.56 337.441 135.56C337.654 135.56 337.867 135.533 338.081 135.48C339.147 134.2 340.241 132.68 341.361 130.92C342.534 129.16 343.521 127.347 344.321 125.48C345.121 123.56 345.521 121.827 345.521 120.28C345.521 119.32 345.067 118.84 344.161 118.84C343.254 118.84 342.214 119.107 341.041 119.64C339.867 120.173 338.881 120.733 338.081 121.32V121.56C338.081 122.093 337.654 122.867 336.801 123.88C336.001 124.84 335.121 125.827 334.161 126.84C333.254 127.853 332.587 128.707 332.161 129.4C332.001 131.16 332.347 132.627 333.201 133.8C334.054 134.973 335.281 135.56 336.881 135.56ZM330.721 140.52C331.734 140.52 332.721 140.147 333.681 139.4C334.694 138.653 335.547 137.96 336.241 137.32C334.961 137.213 333.787 136.787 332.721 136.04C331.707 135.24 330.774 134.36 329.921 133.4C329.761 133.72 329.547 134.333 329.281 135.24C329.014 136.147 328.881 137.053 328.881 137.96C328.881 138.653 329.014 139.267 329.281 139.8C329.547 140.28 330.027 140.52 330.721 140.52ZM376.878 141.88C376.078 141.88 375.171 141.64 374.158 141.16C373.198 140.733 372.718 140.04 372.718 139.08C372.718 137.96 373.145 136.627 373.998 135.08C374.851 133.533 375.865 131.933 377.038 130.28C378.211 128.573 379.331 126.947 380.398 125.4C381.518 123.853 382.318 122.547 382.798 121.48C382.478 121.64 381.945 121.96 381.198 122.44C380.505 122.867 379.811 123.32 379.118 123.8C378.425 124.227 377.918 124.573 377.598 124.84C375.305 126.547 373.305 128.307 371.598 130.12C369.945 131.933 368.265 134.013 366.558 136.36C366.131 137 365.678 137.667 365.198 138.36C364.771 139.053 364.318 139.72 363.838 140.36C363.625 140.627 363.251 140.893 362.718 141.16C362.238 141.427 361.785 141.56 361.358 141.56C360.665 141.56 360.318 141.187 360.318 140.44C360.318 139.8 360.638 138.813 361.278 137.48C361.971 136.147 362.825 134.627 363.838 132.92C364.851 131.213 365.918 129.533 367.038 127.88C368.158 126.173 369.171 124.653 370.078 123.32C370.985 121.933 371.625 120.947 371.998 120.36C371.891 120.52 371.598 120.813 371.118 121.24C370.638 121.613 370.158 122.013 369.678 122.44C369.251 122.813 368.931 123.08 368.718 123.24C367.705 124.2 366.718 125.187 365.758 126.2C364.798 127.213 363.838 128.227 362.878 129.24C362.771 129.347 362.558 129.507 362.238 129.72C361.971 129.933 361.731 130.04 361.518 130.04C361.251 130.04 361.118 129.907 361.118 129.64C361.118 129.373 361.491 128.813 362.238 127.96C362.985 127.107 363.918 126.093 365.038 124.92C366.158 123.747 367.305 122.547 368.478 121.32C369.705 120.093 370.771 119 371.678 118.04C372.585 117.08 373.198 116.413 373.518 116.04C374.051 115.347 374.611 114.787 375.198 114.36C375.838 113.933 376.585 113.72 377.438 113.72C377.918 113.72 378.505 113.96 379.198 114.44C379.891 114.867 380.238 115.373 380.238 115.96C380.238 116.173 380.185 116.307 380.078 116.36C378.478 117.693 376.905 119.267 375.358 121.08C373.865 122.893 372.451 124.76 371.118 126.68C369.785 128.6 368.558 130.387 367.438 132.04C368.718 130.6 370.158 129.187 371.758 127.8C373.358 126.36 374.905 125.027 376.398 123.8L382.078 119.16C382.451 118.84 382.825 118.493 383.198 118.12C383.625 117.747 384.025 117.427 384.398 117.16C384.825 116.893 385.278 116.787 385.758 116.84C386.291 116.84 386.825 116.84 387.358 116.84C387.945 116.84 388.505 117 389.038 117.32C389.625 117.64 389.918 118.147 389.918 118.84C389.918 119.533 389.731 120.067 389.358 120.44C389.038 120.76 388.665 121.133 388.238 121.56C387.331 122.413 386.211 123.533 384.878 124.92C383.598 126.307 382.318 127.8 381.038 129.4C379.758 131 378.691 132.627 377.838 134.28C376.985 135.88 376.558 137.373 376.558 138.76C376.558 138.92 376.558 139.08 376.558 139.24C376.558 139.4 376.585 139.56 376.638 139.72C377.758 139.293 378.985 138.6 380.318 137.64C381.705 136.627 383.091 135.507 384.478 134.28C385.865 133.053 387.145 131.827 388.318 130.6C389.545 129.373 390.558 128.28 391.358 127.32C391.465 127.213 391.571 127.08 391.678 126.92C391.838 126.76 392.025 126.68 392.238 126.68C392.505 126.68 392.638 126.867 392.638 127.24C392.638 127.453 392.558 127.693 392.398 127.96C391.385 129.293 390.025 130.867 388.318 132.68C386.611 134.493 384.851 136.227 383.038 137.88C381.225 139.48 379.598 140.707 378.158 141.56C377.785 141.773 377.358 141.88 376.878 141.88ZM403.712 140.28C400.512 140.28 398.912 138.707 398.912 135.56C398.912 134.333 399.232 132.92 399.872 131.32C400.565 129.667 401.472 128.013 402.592 126.36C403.712 124.707 404.965 123.187 406.352 121.8C407.739 120.36 409.152 119.213 410.592 118.36C412.085 117.453 413.472 117 414.752 117C415.179 117 415.472 117.107 415.632 117.32C415.845 117.48 416.005 117.773 416.112 118.2C416.219 118.413 416.299 118.653 416.352 118.92C416.405 119.187 416.485 119.453 416.592 119.72C416.805 120.093 416.992 120.467 417.152 120.84C417.312 121.213 417.392 121.613 417.392 122.04C417.392 122.573 417.259 123.053 416.992 123.48C416.725 123.853 416.405 124.2 416.032 124.52C415.499 125 414.699 125.613 413.632 126.36C412.565 127.053 411.392 127.773 410.112 128.52C408.885 129.213 407.685 129.827 406.512 130.36C405.392 130.893 404.485 131.213 403.792 131.32C403.312 132.067 402.805 133 402.272 134.12C401.792 135.187 401.552 136.173 401.552 137.08C401.552 137.56 401.659 137.987 401.872 138.36C402.139 138.733 402.539 138.92 403.072 138.92C403.925 138.92 405.045 138.52 406.432 137.72C407.872 136.867 409.365 135.853 410.912 134.68C412.459 133.453 413.872 132.28 415.152 131.16C416.485 129.987 417.472 129.08 418.112 128.44L420.672 125.72C420.992 125.4 421.339 125.24 421.712 125.24C422.032 125.24 422.192 125.373 422.192 125.64C422.192 125.96 421.739 126.627 420.832 127.64C419.925 128.6 418.832 129.693 417.552 130.92C416.325 132.093 415.179 133.187 414.112 134.2C413.045 135.16 412.352 135.773 412.032 136.04C410.912 137 409.632 137.96 408.192 138.92C406.752 139.827 405.259 140.28 403.712 140.28ZM405.152 129.24C405.685 128.92 406.485 128.413 407.552 127.72C408.672 127.027 409.819 126.253 410.992 125.4C412.165 124.547 413.152 123.693 413.952 122.84C414.805 121.987 415.232 121.24 415.232 120.6C415.232 120.44 415.205 120.307 415.152 120.2C415.099 120.147 414.992 120.12 414.832 120.12C414.139 120.12 413.312 120.493 412.352 121.24C411.392 121.987 410.432 122.893 409.472 123.96C408.512 124.973 407.632 125.987 406.832 127C406.085 127.96 405.525 128.707 405.152 129.24ZM434.414 140.68C433.934 140.68 433.347 140.573 432.654 140.36C431.96 140.147 431.614 139.667 431.614 138.92C431.614 138.44 431.827 137.88 432.254 137.24C432.734 136.547 433.294 135.96 433.934 135.48C434.574 134.947 435.16 134.68 435.694 134.68C436.12 134.68 436.52 134.867 436.894 135.24C437.32 135.613 437.507 136.067 437.454 136.6C437.454 136.867 437.24 137.347 436.814 138.04C436.44 138.68 436.014 139.293 435.534 139.88C435.107 140.413 434.734 140.68 434.414 140.68ZM465.439 140.68C464.959 140.68 464.372 140.573 463.679 140.36C462.985 140.147 462.639 139.667 462.639 138.92C462.639 138.44 462.852 137.88 463.279 137.24C463.759 136.547 464.319 135.96 464.959 135.48C465.599 134.947 466.185 134.68 466.719 134.68C467.145 134.68 467.545 134.867 467.919 135.24C468.345 135.613 468.532 136.067 468.479 136.6C468.479 136.867 468.265 137.347 467.839 138.04C467.465 138.68 467.039 139.293 466.559 139.88C466.132 140.413 465.759 140.68 465.439 140.68ZM496.464 140.68C495.984 140.68 495.397 140.573 494.704 140.36C494.01 140.147 493.664 139.667 493.664 138.92C493.664 138.44 493.877 137.88 494.304 137.24C494.784 136.547 495.344 135.96 495.984 135.48C496.624 134.947 497.21 134.68 497.744 134.68C498.17 134.68 498.57 134.867 498.944 135.24C499.37 135.613 499.557 136.067 499.504 136.6C499.504 136.867 499.29 137.347 498.864 138.04C498.49 138.68 498.064 139.293 497.584 139.88C497.157 140.413 496.784 140.68 496.464 140.68Z" fill="#333333"/>
</g>
<defs>
<filter id="filter0_d_131_450" x="0.160034" y="0.799988" width="503.424" height="178.84" filterUnits="userSpaceOnUse" color-interpolation-filters="sRGB">
<feFlood flood-opacity="0" result="BackgroundImageFix"/>
<feColorMatrix in="SourceAlpha" type="matrix" values="0 0 0 0 0 0 0 0 0 0 0 0 0 0 0 0 0 0 127 0" result="hardAlpha"/>
<feOffset dy="4"/>
<feGaussianBlur stdDeviation="2"/>
<feComposite in2="hardAlpha" operator="out"/>
<feColorMatrix type="matrix" values="0 0 0 0 0 0 0 0 0 0 0 0 0 0 0 0 0 0 0.25 0"/>
<feBlend mode="hard-light" in2="BackgroundImageFix" result="effect1_dropShadow_131_450"/>
<feBlend mode="normal" in="SourceGraphic" in2="effect1_dropShadow_131_450" result="shape"/>
</filter>
</defs>
</svg>
