<svg width="512" height="187" viewBox="0 0 512 187" fill="none" xmlns="http://www.w3.org/2000/svg">
<g filter="url(#filter0_d_131_450)">
<path d="M13.92 64.12C12.16 64.12 10.7467 63.5333 9.68 62.36C8.66667 61.1867 8.16 59.6933 8.16 57.88C8.16 56.1733 8.69333 54.3067 9.76 52.28C10.88 50.2533 12.2933 48.28 14 46.36C15.76 44.44 17.5733 42.76 19.44 41.32C21.3067 39.88 22.9867 38.8933 24.48 38.36C25.1733 38.0933 25.8133 37.96 26.4 37.96C27.0933 37.96 27.5467 38.12 27.76 38.44C27.9733 38.76 28.1333 39.1067 28.24 39.48C28.4 39.8533 28.64 40.1467 28.96 40.36C29.5467 40.68 29.84 41.24 29.84 42.04C29.84 42.6267 29.68 43.3467 29.36 44.2C29.0933 45 28.6933 45.72 28.16 46.36C27.6267 46.9467 26.9867 47.24 26.24 47.24C25.5467 47.24 25.2 46.9467 25.2 46.36C25.2 45.9867 25.3867 45.5867 25.76 45.16C26.1333 44.7333 26.5067 44.28 26.88 43.8C27.2533 43.2667 27.44 42.76 27.44 42.28C27.44 41.8 27.2 41.56 26.72 41.56C25.8133 41.56 24.6933 42.04 23.36 43C22.0267 43.9067 20.6667 45.1067 19.28 46.6C17.8933 48.0933 16.5867 49.6933 15.36 51.4C14.1333 53.0533 13.1467 54.6267 12.4 56.12C11.6533 57.6133 11.28 58.84 11.28 59.8C11.28 60.4933 11.44 61.08 11.76 61.56C12.1333 61.9867 12.6667 62.2 13.36 62.2C14.48 62.2 15.7333 61.88 17.12 61.24C18.5067 60.6 19.8133 59.8267 21.04 58.92C22.32 58.0133 23.36 57.2133 24.16 56.52C25.6533 55.1867 27.0933 53.8533 28.48 52.52C29.92 51.1333 31.3333 49.7467 32.72 48.36C32.88 48.2 33.0667 48.12 33.28 48.12C33.76 48.12 34 48.3333 34 48.76C34 48.9733 33.5733 49.56 32.72 50.52C31.8667 51.4267 30.8533 52.4667 29.68 53.64C28.5067 54.8133 27.4133 55.88 26.4 56.84C25.3867 57.8 24.72 58.4133 24.4 58.68C23.5467 59.4267 22.5067 60.2267 21.28 61.08C20.1067 61.9333 18.88 62.6533 17.6 63.24C16.32 63.8267 15.0933 64.12 13.92 64.12ZM49.2019 63.96C48.3485 63.96 47.4419 63.5333 46.4819 62.68C45.5752 61.7733 45.1219 60.8933 45.1219 60.04C45.1219 58.9733 45.4952 57.7733 46.2419 56.44C46.9885 55.0533 47.8685 53.72 48.8819 52.44C49.8952 51.16 50.7752 50.0667 51.5219 49.16C52.2685 48.2 52.6419 47.56 52.6419 47.24V47.08C52.1619 46.6533 51.7085 46.2533 51.2819 45.88C50.8552 45.4533 50.2685 45.24 49.5219 45.24C48.9885 45.24 48.2952 45.56 47.4419 46.2C46.6419 46.84 45.8152 47.5867 44.9619 48.44C44.1085 49.2933 43.3352 50.0933 42.6419 50.84C41.9485 51.5867 41.4419 52.0933 41.1219 52.36C40.9085 52.5733 40.6952 52.7067 40.4819 52.76C40.3219 52.8133 40.1885 52.84 40.0819 52.84C39.8685 52.84 39.7619 52.7333 39.7619 52.52C39.7619 52.3067 39.8685 52.0933 40.0819 51.88C40.9352 50.76 41.9219 49.6133 43.0419 48.44C44.1619 47.2667 45.1752 46.2 46.0819 45.24C46.9885 44.2267 47.5219 43.5067 47.6819 43.08C48.1085 41.8533 48.5352 40.76 48.9619 39.8C49.4419 38.84 50.1885 37.9333 51.2019 37.08C51.6285 36.6533 52.1352 36.3067 52.7219 36.04C53.3085 35.7733 53.8952 35.64 54.4819 35.64C55.0152 35.64 55.4419 35.8 55.7619 36.12C56.1352 36.3867 56.3219 36.8133 56.3219 37.4C56.3219 38.04 56.0285 38.68 55.4419 39.32C54.9085 39.96 54.2685 40.5733 53.5219 41.16C52.7752 41.6933 52.1085 42.1733 51.5219 42.6C50.9885 43.0267 50.7485 43.3733 50.8019 43.64C51.1219 43.8533 51.7352 44.12 52.6419 44.44C53.6019 44.76 54.2685 44.92 54.6419 44.92C55.0685 44.92 55.4685 44.84 55.8419 44.68C56.2152 44.52 56.5885 44.44 56.9619 44.44C57.4952 44.44 58.0285 44.6 58.5619 44.92C59.0952 45.24 59.3619 45.72 59.3619 46.36C59.3619 46.8933 59.1485 47.4 58.7219 47.88C58.3485 48.3067 57.9485 48.68 57.5219 49C56.8819 49.48 56.0285 50.2 54.9619 51.16C53.8952 52.12 52.8019 53.1867 51.6819 54.36C50.6152 55.5333 49.6819 56.7067 48.8819 57.88C48.1352 59 47.7619 59.9867 47.7619 60.84C47.7619 61.0533 47.8152 61.2667 47.9219 61.48C47.9752 61.5333 48.0819 61.56 48.2419 61.56C49.3085 61.56 50.5085 61.08 51.8419 60.12C53.1752 59.16 54.5085 57.9867 55.8419 56.6C57.2285 55.2133 58.5085 53.8533 59.6819 52.52C60.9085 51.1333 61.9485 50.0667 62.8019 49.32C62.9085 49.2133 63.0419 49.1067 63.2019 49C63.3619 48.8933 63.5219 48.84 63.6819 48.84C63.9485 48.84 64.0819 49.0267 64.0819 49.4C64.0819 49.6133 63.7085 50.1467 62.9619 51C62.2685 51.8533 61.3619 52.8667 60.2419 54.04C59.1219 55.2133 57.9485 56.4133 56.7219 57.64C55.5485 58.8667 54.4552 59.96 53.4419 60.92C52.4285 61.8267 51.7085 62.4667 51.2819 62.84C50.6952 63.32 50.2685 63.6133 50.0019 63.72C49.7352 63.88 49.4685 63.96 49.2019 63.96ZM75.0306 62.28C71.8306 62.28 70.2306 60.7067 70.2306 57.56C70.2306 56.3333 70.5506 54.92 71.1906 53.32C71.884 51.6667 72.7906 50.0133 73.9106 48.36C75.0306 46.7067 76.284 45.1867 77.6706 43.8C79.0573 42.36 80.4706 41.2133 81.9106 40.36C83.404 39.4533 84.7906 39 86.0706 39C86.4973 39 86.7906 39.1067 86.9506 39.32C87.164 39.48 87.324 39.7733 87.4306 40.2C87.5373 40.4133 87.6173 40.6533 87.6706 40.92C87.724 41.1867 87.804 41.4533 87.9106 41.72C88.124 42.0933 88.3106 42.4667 88.4706 42.84C88.6306 43.2133 88.7106 43.6133 88.7106 44.04C88.7106 44.5733 88.5773 45.0533 88.3106 45.48C88.044 45.8533 87.724 46.2 87.3506 46.52C86.8173 47 86.0173 47.6133 84.9506 48.36C83.884 49.0533 82.7106 49.7733 81.4306 50.52C80.204 51.2133 79.004 51.8267 77.8306 52.36C76.7106 52.8933 75.804 53.2133 75.1106 53.32C74.6306 54.0667 74.124 55 73.5906 56.12C73.1106 57.1867 72.8706 58.1733 72.8706 59.08C72.8706 59.56 72.9773 59.9867 73.1906 60.36C73.4573 60.7333 73.8573 60.92 74.3906 60.92C75.244 60.92 76.364 60.52 77.7506 59.72C79.1906 58.8667 80.684 57.8533 82.2306 56.68C83.7773 55.4533 85.1906 54.28 86.4706 53.16C87.804 51.9867 88.7906 51.08 89.4306 50.44L91.9906 47.72C92.3106 47.4 92.6573 47.24 93.0306 47.24C93.3506 47.24 93.5106 47.3733 93.5106 47.64C93.5106 47.96 93.0573 48.6267 92.1506 49.64C91.244 50.6 90.1506 51.6933 88.8706 52.92C87.644 54.0933 86.4973 55.1867 85.4306 56.2C84.364 57.16 83.6706 57.7733 83.3506 58.04C82.2306 59 80.9506 59.96 79.5106 60.92C78.0706 61.8267 76.5773 62.28 75.0306 62.28ZM76.4706 51.24C77.004 50.92 77.804 50.4133 78.8706 49.72C79.9906 49.0267 81.1373 48.2533 82.3106 47.4C83.484 46.5467 84.4706 45.6933 85.2706 44.84C86.124 43.9867 86.5506 43.24 86.5506 42.6C86.5506 42.44 86.524 42.3067 86.4706 42.2C86.4173 42.1467 86.3106 42.12 86.1506 42.12C85.4573 42.12 84.6306 42.4933 83.6706 43.24C82.7106 43.9867 81.7506 44.8933 80.7906 45.96C79.8306 46.9733 78.9506 47.9867 78.1506 49C77.404 49.96 76.844 50.7067 76.4706 51.24ZM113.412 63.72C112.932 63.72 112.372 63.5067 111.732 63.08C111.146 62.6533 110.639 62.1733 110.212 61.64C109.786 61.0533 109.572 60.52 109.572 60.04C109.572 59.24 109.866 58.1733 110.452 56.84C111.039 55.4533 111.706 54.0933 112.452 52.76C113.252 51.4267 113.866 50.44 114.292 49.8C113.546 50.44 112.586 51.48 111.412 52.92C110.292 54.3067 109.066 55.8 107.732 57.4C106.452 58.9467 105.199 60.28 103.972 61.4C102.799 62.52 101.786 63.08 100.932 63.08C99.7592 63.08 98.7992 62.68 98.0525 61.88C97.3592 61.0267 97.0125 60.0133 97.0125 58.84C97.0125 57.24 97.4658 55.5333 98.3725 53.72C99.2792 51.8533 100.452 50.0667 101.892 48.36C103.386 46.6 104.986 45 106.692 43.56C108.452 42.12 110.159 40.9733 111.812 40.12C113.519 39.2667 115.039 38.84 116.372 38.84C117.812 38.84 118.986 39.1867 119.892 39.88C120.799 40.52 121.252 41.5067 121.252 42.84C121.252 43.0533 121.199 43.4533 121.092 44.04C121.039 44.6267 120.852 44.92 120.532 44.92C120.372 44.92 120.106 44.68 119.732 44.2C119.412 43.72 118.959 43.24 118.372 42.76C117.786 42.28 117.039 42.04 116.132 42.04C114.639 42.04 113.066 42.6 111.412 43.72C109.812 44.7867 108.266 46.1733 106.772 47.88C105.279 49.5333 103.972 51.24 102.852 53C101.732 54.76 100.879 56.28 100.292 57.56C100.132 57.9333 99.9725 58.3333 99.8125 58.76C99.7058 59.1867 99.6525 59.6133 99.6525 60.04C99.6525 60.52 99.7858 60.76 100.052 60.76C100.319 60.76 100.879 60.4667 101.732 59.88C102.639 59.2933 103.279 58.8667 103.652 58.6C105.519 57.2667 107.279 55.7467 108.932 54.04C110.639 52.3333 112.159 50.5733 113.492 48.76C113.919 48.1733 114.319 47.5867 114.692 47C115.066 46.4133 115.439 45.8533 115.812 45.32C116.079 44.9467 116.346 44.76 116.612 44.76C117.199 44.76 117.759 45.16 118.292 45.96C118.879 46.76 119.172 47.4533 119.172 48.04C119.172 48.3067 119.119 48.4667 119.012 48.52C118.959 48.5733 118.799 48.7333 118.532 49C117.732 49.8 116.932 50.92 116.132 52.36C115.386 53.8 114.719 55.2667 114.132 56.76C113.599 58.2 113.199 59.4267 112.932 60.44C112.879 60.6 112.826 60.8133 112.772 61.08C112.772 61.2933 112.906 61.3733 113.172 61.32C113.706 61.16 114.559 60.5733 115.732 59.56C116.959 58.4933 118.266 57.2933 119.652 55.96C121.092 54.5733 122.372 53.2933 123.492 52.12C124.666 50.9467 125.439 50.12 125.812 49.64C125.919 49.5333 126.026 49.4267 126.132 49.32C126.292 49.16 126.452 49.08 126.612 49.08C126.986 49.08 127.172 49.2667 127.172 49.64C127.172 49.8533 126.746 50.4933 125.892 51.56C125.039 52.5733 123.972 53.7733 122.692 55.16C121.412 56.4933 120.106 57.8267 118.772 59.16C117.439 60.44 116.266 61.5333 115.252 62.44C114.292 63.2933 113.679 63.72 113.412 63.72ZM140.329 65.08C139.369 65.08 138.542 64.76 137.849 64.12C137.209 63.48 136.702 62.7067 136.329 61.8C136.009 60.84 135.849 59.9333 135.849 59.08C135.849 58.2267 135.955 57.4 136.169 56.6C136.382 55.7467 136.675 54.92 137.049 54.12C137.742 52.5733 138.569 50.8667 139.529 49C140.542 47.08 141.609 45.1333 142.729 43.16C143.902 41.1333 145.075 39.2933 146.249 37.64C145.342 38.0133 144.275 38.44 143.049 38.92C141.875 39.3467 141.102 39.56 140.729 39.56C140.515 39.5067 140.355 39.3467 140.249 39.08C140.195 38.8133 140.169 38.5467 140.169 38.28C140.169 37.16 140.702 36.4133 141.769 36.04C143.422 35.5067 145.635 35.0267 148.409 34.6C150.435 31.9333 152.622 29.2667 154.969 26.6C157.369 23.9333 159.795 21.8267 162.249 20.28C162.729 19.96 163.262 20.12 163.849 20.76C164.435 21.3467 164.755 21.96 164.809 22.6C164.809 23.1867 164.595 23.5867 164.169 23.8C162.035 25.1333 160.062 26.6533 158.249 28.36C156.435 30.0133 154.569 31.9067 152.649 34.04C153.715 33.88 154.649 33.7733 155.449 33.72C156.249 33.6667 156.755 33.64 156.969 33.64C157.129 33.64 157.395 33.64 157.769 33.64C158.142 33.5867 158.542 33.56 158.969 33.56C159.609 33.56 160.195 33.6133 160.729 33.72C161.315 33.8267 161.609 34.0133 161.609 34.28C161.609 34.4933 161.369 34.68 160.889 34.84C160.462 34.9467 159.982 35.0267 159.449 35.08C158.915 35.08 158.515 35.1067 158.249 35.16C156.649 35.3733 155.209 35.5867 153.929 35.8C152.702 36.0133 151.555 36.28 150.489 36.6C149.262 38.0933 148.302 39.3467 147.609 40.36C146.969 41.3733 146.409 42.3067 145.929 43.16C145.502 43.96 144.969 44.8667 144.329 45.88C142.942 48.5467 141.742 51.2667 140.729 54.04C139.769 56.8133 139.289 59.0533 139.289 60.76C139.289 61.0267 139.315 61.24 139.369 61.4C139.422 61.56 139.582 61.64 139.849 61.64C140.169 61.64 140.462 61.56 140.729 61.4C141.049 61.1867 141.315 60.9733 141.529 60.76C142.275 60.1733 142.969 59.5067 143.609 58.76C144.302 57.96 144.969 57.2133 145.609 56.52C146.782 55.24 147.982 53.9867 149.209 52.76C150.435 51.5333 151.635 50.3067 152.809 49.08C152.915 48.9733 153.022 48.8933 153.129 48.84C153.235 48.7333 153.342 48.68 153.449 48.68C153.822 48.68 154.009 48.8933 154.009 49.32C154.009 49.48 153.902 49.72 153.689 50.04C153.049 50.8933 152.355 51.7467 151.609 52.6C150.862 53.4 150.142 54.2267 149.449 55.08C148.062 56.7333 146.675 58.36 145.289 59.96C143.955 61.56 142.622 63.2133 141.289 64.92C141.129 64.9733 140.969 65 140.809 65C140.649 65.0533 140.489 65.08 140.329 65.08ZM178.663 32.84C177.436 32.84 176.823 32.3867 176.823 31.48C176.823 30.84 177.169 30.1467 177.863 29.4C178.556 28.6533 179.569 28.12 180.903 27.8C181.703 27.5867 182.343 27.48 182.823 27.48C183.356 27.4267 183.863 27.32 184.343 27.16C184.129 28.1733 183.676 29.2667 182.983 30.44C182.343 31.6133 181.489 32.3333 180.423 32.6C179.889 32.76 179.303 32.84 178.663 32.84ZM165.863 64.68C165.009 64.68 164.209 64.3333 163.463 63.64C162.769 62.9467 162.343 62.2 162.183 61.4C162.343 60.3867 162.689 59.16 163.223 57.72C163.809 56.2267 164.476 54.68 165.223 53.08C165.969 51.48 166.716 49.9867 167.463 48.6C168.209 47.16 168.849 46.0133 169.383 45.16C168.369 46.0667 167.276 47.08 166.103 48.2C164.983 49.32 163.916 50.36 162.903 51.32C162.849 51.3733 162.716 51.48 162.503 51.64C162.343 51.8 162.183 51.88 162.023 51.88C161.649 51.88 161.463 51.72 161.463 51.4C161.463 51.1333 161.569 50.8933 161.783 50.68C163.223 49.08 164.716 47.48 166.263 45.88C167.863 44.28 169.409 42.6267 170.903 40.92C171.383 40.3333 171.783 39.88 172.103 39.56C172.476 39.1867 173.036 39 173.783 39C174.103 39 174.583 39.08 175.223 39.24C175.916 39.3467 176.476 39.56 176.903 39.88C177.383 40.2 177.463 40.6 177.143 41.08C176.769 41.6667 176.129 42.6267 175.223 43.96C174.316 45.2933 173.276 46.8133 172.103 48.52C170.983 50.2267 169.863 51.96 168.743 53.72C167.676 55.4267 166.796 56.9733 166.103 58.36C165.409 59.7467 165.063 60.7867 165.063 61.48C165.063 61.8 165.169 61.96 165.383 61.96C165.703 61.96 166.236 61.6667 166.983 61.08C167.783 60.4933 168.556 59.88 169.303 59.24C170.103 58.5467 170.636 58.0933 170.903 57.88C172.449 56.5467 173.969 55.1867 175.463 53.8C176.956 52.36 178.369 50.8667 179.703 49.32C179.809 49.2133 179.943 49.0533 180.103 48.84C180.316 48.6267 180.529 48.52 180.743 48.52C181.009 48.52 181.143 48.68 181.143 49C181.143 49.3733 181.009 49.7467 180.743 50.12C180.049 50.9733 179.276 51.8267 178.423 52.68C177.569 53.48 176.769 54.28 176.023 55.08C174.636 56.4667 173.276 57.8533 171.943 59.24C170.663 60.5733 169.383 61.96 168.103 63.4C167.836 63.72 167.489 64.0133 167.062 64.28C166.689 64.5467 166.289 64.68 165.863 64.68ZM204.181 63.88C203.381 63.88 202.475 63.64 201.461 63.16C200.501 62.7333 200.021 62.04 200.021 61.08C200.021 59.96 200.448 58.6267 201.301 57.08C202.155 55.5333 203.168 53.9333 204.341 52.28C205.515 50.5733 206.635 48.9467 207.701 47.4C208.821 45.8533 209.621 44.5467 210.101 43.48C209.781 43.64 209.248 43.96 208.501 44.44C207.808 44.8667 207.115 45.32 206.421 45.8C205.728 46.2267 205.221 46.5733 204.901 46.84C202.608 48.5467 200.608 50.3067 198.901 52.12C197.248 53.9333 195.568 56.0133 193.861 58.36C193.435 59 192.981 59.6667 192.501 60.36C192.075 61.0533 191.621 61.72 191.141 62.36C190.928 62.6267 190.555 62.8933 190.021 63.16C189.541 63.4267 189.088 63.56 188.661 63.56C187.968 63.56 187.621 63.1867 187.621 62.44C187.621 61.8 187.941 60.8133 188.581 59.48C189.275 58.1467 190.128 56.6267 191.141 54.92C192.155 53.2133 193.221 51.5333 194.341 49.88C195.461 48.1733 196.475 46.6533 197.381 45.32C198.288 43.9333 198.928 42.9467 199.301 42.36C199.195 42.52 198.901 42.8133 198.421 43.24C197.941 43.6133 197.461 44.0133 196.981 44.44C196.555 44.8133 196.235 45.08 196.021 45.24C195.008 46.2 194.021 47.1867 193.061 48.2C192.101 49.2133 191.141 50.2267 190.181 51.24C190.075 51.3467 189.861 51.5067 189.541 51.72C189.275 51.9333 189.035 52.04 188.821 52.04C188.555 52.04 188.421 51.9067 188.421 51.64C188.421 51.3733 188.795 50.8133 189.541 49.96C190.288 49.1067 191.221 48.0933 192.341 46.92C193.461 45.7467 194.608 44.5467 195.781 43.32C197.008 42.0933 198.075 41 198.981 40.04C199.888 39.08 200.501 38.4133 200.821 38.04C201.355 37.3467 201.915 36.7867 202.501 36.36C203.141 35.9333 203.888 35.72 204.741 35.72C205.221 35.72 205.808 35.96 206.501 36.44C207.195 36.8667 207.541 37.3733 207.541 37.96C207.541 38.1733 207.488 38.3067 207.381 38.36C205.781 39.6933 204.208 41.2667 202.661 43.08C201.168 44.8933 199.755 46.76 198.421 48.68C197.088 50.6 195.861 52.3867 194.741 54.04C196.021 52.6 197.461 51.1867 199.061 49.8C200.661 48.36 202.208 47.0267 203.701 45.8L209.381 41.16C209.755 40.84 210.128 40.4933 210.501 40.12C210.928 39.7467 211.328 39.4267 211.701 39.16C212.128 38.8933 212.581 38.7867 213.061 38.84C213.595 38.84 214.128 38.84 214.661 38.84C215.248 38.84 215.808 39 216.341 39.32C216.928 39.64 217.221 40.1467 217.221 40.84C217.221 41.5333 217.035 42.0667 216.661 42.44C216.341 42.76 215.968 43.1333 215.541 43.56C214.635 44.4133 213.515 45.5333 212.181 46.92C210.901 48.3067 209.621 49.8 208.341 51.4C207.061 53 205.995 54.6267 205.141 56.28C204.288 57.88 203.861 59.3733 203.861 60.76C203.861 60.92 203.861 61.08 203.861 61.24C203.861 61.4 203.888 61.56 203.941 61.72C205.061 61.2933 206.288 60.6 207.621 59.64C209.008 58.6267 210.395 57.5067 211.781 56.28C213.168 55.0533 214.448 53.8267 215.621 52.6C216.848 51.3733 217.861 50.28 218.661 49.32C218.768 49.2133 218.875 49.08 218.981 48.92C219.141 48.76 219.328 48.68 219.541 48.68C219.808 48.68 219.941 48.8667 219.941 49.24C219.941 49.4533 219.861 49.6933 219.701 49.96C218.688 51.2933 217.328 52.8667 215.621 54.68C213.915 56.4933 212.155 58.2267 210.341 59.88C208.528 61.48 206.901 62.7067 205.461 63.56C205.088 63.7733 204.661 63.88 204.181 63.88ZM211.095 93.64C208.642 93.64 207.415 92.4133 207.415 89.96C207.415 89.6933 207.442 89.4267 207.495 89.16C207.495 88.8933 207.522 88.6267 207.575 88.36C208.002 86.44 208.908 84.6 210.295 82.84C211.682 81.08 213.308 79.4267 215.175 77.88C217.042 76.3867 218.962 74.9733 220.935 73.64C222.855 72.36 224.588 71.24 226.135 70.28C227.042 69.6933 228.188 68.9733 229.575 68.12C231.015 67.2667 232.535 66.3333 234.135 65.32C235.735 64.36 237.255 63.4533 238.695 62.6C239.282 61.1067 239.788 59.4533 240.215 57.64C240.695 55.8267 240.908 54.0133 240.855 52.2C240.215 52.8933 239.362 53.8533 238.295 55.08C237.228 56.2533 236.055 57.4267 234.775 58.6C233.548 59.7733 232.295 60.7867 231.015 61.64C229.788 62.44 228.695 62.84 227.735 62.84C226.722 62.84 225.948 62.36 225.415 61.4C224.882 60.44 224.615 59.5067 224.615 58.6C224.615 57.1067 225.042 55.48 225.895 53.72C226.748 51.96 227.895 50.2267 229.335 48.52C230.775 46.8133 232.348 45.24 234.055 43.8C235.762 42.36 237.468 41.2133 239.175 40.36C240.882 39.5067 242.455 39.08 243.895 39.08C245.015 39.08 246.028 39.48 246.935 40.28C247.842 41.0267 248.295 41.9867 248.295 43.16C248.295 43.5333 248.188 43.9333 247.975 44.36C247.815 44.7333 247.522 44.92 247.095 44.92C246.722 44.92 246.428 44.7867 246.215 44.52C246.002 44.2 245.735 43.9067 245.415 43.64C245.095 43.32 244.535 43.16 243.735 43.16C242.562 43.16 241.282 43.56 239.895 44.36C238.562 45.1067 237.308 46.0133 236.135 47.08C234.962 48.1467 233.975 49.08 233.175 49.88C232.162 50.9467 231.175 52.2267 230.215 53.72C229.308 55.2133 228.588 56.6533 228.055 58.04C227.895 58.4133 227.735 58.84 227.575 59.32C227.468 59.8 227.415 60.2533 227.415 60.68C227.415 61.2133 227.602 61.48 227.975 61.48C228.082 61.48 228.188 61.48 228.295 61.48C228.402 61.4267 228.508 61.3733 228.615 61.32C230.162 60.68 231.788 59.5333 233.495 57.88C235.202 56.2267 236.802 54.44 238.295 52.52C239.788 50.5467 240.988 48.8667 241.895 47.48L242.215 47C242.535 45.9867 243.228 45.48 244.295 45.48C244.615 45.48 244.935 45.56 245.255 45.72C245.575 45.88 245.735 46.1733 245.735 46.6C245.735 48.9467 245.628 51 245.415 52.76C245.202 54.52 244.695 56.52 243.895 58.76C244.962 57.9067 245.948 57.08 246.855 56.28C247.815 55.48 248.748 54.6 249.655 53.64C250.508 52.7867 251.308 51.9067 252.055 51C252.855 50.0933 253.682 49.24 254.535 48.44C254.642 48.3333 254.748 48.2533 254.855 48.2C255.015 48.0933 255.175 48.04 255.335 48.04C255.655 48.04 255.815 48.2 255.815 48.52C255.815 48.7867 255.415 49.3733 254.615 50.28C253.868 51.1333 252.908 52.1467 251.735 53.32C250.615 54.4933 249.415 55.6933 248.135 56.92C246.908 58.0933 245.788 59.16 244.775 60.12C243.815 61.0267 243.148 61.64 242.775 61.96C240.322 68.4133 237.122 74.0133 233.175 78.76C229.282 83.56 224.322 87.6933 218.295 91.16C217.282 91.7467 216.135 92.3067 214.855 92.84C213.575 93.3733 212.322 93.64 211.095 93.64ZM212.935 91.64C214.375 91.64 215.948 91.1067 217.655 90.04C219.308 89.0267 220.962 87.7467 222.615 86.2C224.268 84.6533 225.762 83.1067 227.095 81.56C228.482 80.0667 229.575 78.8133 230.375 77.8C231.282 76.5733 232.162 75.3467 233.015 74.12C233.868 72.9467 234.668 71.72 235.415 70.44C236.535 68.5733 237.468 66.76 238.215 65C238.268 64.84 238.215 64.7333 238.055 64.68C237.948 64.68 237.895 64.68 237.895 64.68C236.242 65.8533 234.562 67 232.855 68.12C231.202 69.2933 229.522 70.44 227.815 71.56C226.962 72.0933 225.815 72.8667 224.375 73.88C222.935 74.9467 221.388 76.12 219.735 77.4C218.082 78.7333 216.508 80.0933 215.015 81.48C213.522 82.92 212.295 84.3067 211.335 85.64C210.375 87.0267 209.895 88.2533 209.895 89.32C209.895 90.1733 210.242 90.76 210.935 91.08C211.575 91.4533 212.242 91.64 212.935 91.64ZM291.417 65.08C290.457 65.08 289.63 64.76 288.937 64.12C288.297 63.48 287.79 62.7067 287.417 61.8C287.097 60.84 286.937 59.9333 286.937 59.08C286.937 58.2267 287.044 57.4 287.257 56.6C287.47 55.7467 287.764 54.92 288.137 54.12C289.524 51.0267 291.097 48.0667 292.857 45.24C294.617 42.4133 296.484 39.56 298.457 36.68C297.497 36.7333 296.217 36.6267 294.617 36.36C293.07 36.0933 291.737 35.6933 290.617 35.16C290.084 34.8933 289.657 34.4933 289.337 33.96C289.07 33.3733 288.937 32.8933 288.937 32.52C288.937 32.04 289.097 31.8533 289.417 31.96C291.337 33.08 293.097 33.8267 294.697 34.2C296.35 34.52 298.084 34.7067 299.897 34.76C301.71 32.36 303.63 29.9867 305.657 27.64C307.737 25.2933 309.764 23.3733 311.737 21.88C312.004 21.72 312.217 21.64 312.377 21.64C312.804 21.64 313.177 21.8533 313.497 22.28C313.87 22.7067 314.057 23.16 314.057 23.64C314.057 24.3333 313.79 24.8133 313.257 25.08C310.217 27.8533 307.124 31.1067 303.977 34.84C304.884 34.8933 305.844 34.9467 306.857 35C307.87 35 308.884 35 309.897 35C311.444 35 312.964 34.9733 314.457 34.92C315.95 34.8667 317.257 34.76 318.377 34.6C326.11 22.3867 333.47 14.2533 340.457 10.2C341.95 9.29333 343.31 8.68 344.537 8.36C345.764 7.98666 346.884 7.8 347.897 7.8C349.444 7.8 350.697 8.14666 351.657 8.84C352.67 9.48 353.497 10.28 354.137 11.24C354.404 11.6667 354.537 12.1733 354.537 12.76C354.537 14.2 353.79 16.0133 352.297 18.2C350.804 20.3333 348.617 22.5733 345.737 24.92C342.857 27.2133 339.364 29.3733 335.257 31.4C331.15 33.3733 326.484 34.92 321.257 36.04C318.91 39.08 316.857 42.0133 315.097 44.84C313.337 47.6667 311.95 50.0667 310.937 52.04C312.43 50.6533 314.084 49.1867 315.897 47.64C317.764 46.04 319.577 44.4933 321.337 43C323.097 41.4533 324.537 40.12 325.657 39C325.924 38.7333 326.27 38.5467 326.697 38.44C327.177 38.3333 327.524 38.28 327.737 38.28C328.484 38.28 329.23 38.6533 329.977 39.4C330.777 40.1467 331.177 40.9733 331.177 41.88C331.177 42.68 330.83 43.4 330.137 44.04C328.537 45.48 326.91 47.16 325.257 49.08C323.604 50.9467 322.11 52.92 320.777 55C320.404 55.64 319.87 56.5733 319.177 57.8C318.537 59.0267 318.217 60.0133 318.217 60.76C318.217 61.2933 318.377 61.56 318.697 61.56C319.337 61.56 320.217 61.2133 321.337 60.52C322.51 59.8267 323.764 58.9467 325.097 57.88C326.484 56.76 327.844 55.6133 329.177 54.44C330.564 53.2667 331.79 52.1733 332.857 51.16C333.924 50.1467 334.697 49.3733 335.177 48.84C335.497 48.52 335.764 48.36 335.977 48.36C336.297 48.36 336.457 48.52 336.457 48.84C336.457 49 336.35 49.24 336.137 49.56C335.444 50.4667 334.43 51.6133 333.097 53C331.764 54.3333 330.297 55.72 328.697 57.16C327.097 58.5467 325.55 59.8267 324.057 61C322.617 62.12 321.417 62.9733 320.457 63.56C320.084 63.7733 319.604 63.88 319.017 63.88C318.217 63.88 317.284 63.6133 316.217 63.08C315.15 62.5467 314.617 61.8267 314.617 60.92C314.617 60.12 314.91 59.1067 315.497 57.88C316.084 56.6533 316.804 55.3467 317.657 53.96C318.51 52.5733 319.39 51.24 320.297 49.96C321.204 48.6267 321.977 47.5067 322.617 46.6C323.31 45.64 323.737 45 323.897 44.68C324.644 43.6667 325.097 43.0267 325.257 42.76C325.417 42.4933 325.524 42.28 325.577 42.12C325.15 42.44 324.484 42.9467 323.577 43.64C322.67 44.28 321.764 44.9467 320.857 45.64C319.95 46.3333 319.284 46.8667 318.857 47.24C315.87 49.8533 313.364 52.36 311.337 54.76C309.364 57.1067 307.524 59.6133 305.817 62.28C305.764 62.3333 305.63 62.3867 305.417 62.44C305.204 62.44 305.044 62.44 304.937 62.44C304.617 62.44 304.137 62.36 303.497 62.2C302.91 62.04 302.67 61.6933 302.777 61.16C303.097 60.36 303.524 59.5067 304.057 58.6C304.59 57.6933 305.337 56.4667 306.297 54.92C307.257 53.32 308.51 51.08 310.057 48.2C310.324 47.72 310.777 46.9467 311.417 45.88C312.057 44.8133 312.75 43.6667 313.497 42.44C314.297 41.2133 315.044 40.04 315.737 38.92C316.43 37.8 316.964 36.9467 317.337 36.36C316.324 36.4667 314.91 36.5733 313.097 36.68C311.284 36.7333 309.444 36.76 307.577 36.76C306.67 36.76 305.79 36.76 304.937 36.76C304.084 36.7067 303.284 36.6533 302.537 36.6C301.577 37.56 300.404 39 299.017 40.92C297.684 42.84 296.35 45 295.017 47.4C293.684 49.7467 292.564 52.0933 291.657 54.44C290.804 56.7867 290.377 58.8933 290.377 60.76C290.377 61.0267 290.404 61.24 290.457 61.4C290.51 61.56 290.67 61.64 290.937 61.64C291.257 61.64 291.55 61.56 291.817 61.4C292.137 61.1867 292.404 60.9733 292.617 60.76C293.364 60.1733 294.057 59.5067 294.697 58.76C295.39 57.96 296.057 57.2133 296.697 56.52C297.87 55.24 299.07 53.9867 300.297 52.76C301.524 51.5333 302.724 50.3067 303.897 49.08C304.004 48.9733 304.11 48.8933 304.217 48.84C304.324 48.7333 304.43 48.68 304.537 48.68C304.91 48.68 305.097 48.8933 305.097 49.32C305.097 49.48 304.99 49.72 304.777 50.04C304.137 50.8933 303.444 51.7467 302.697 52.6C301.95 53.4 301.23 54.2267 300.537 55.08C299.15 56.7333 297.764 58.36 296.377 59.96C295.044 61.56 293.71 63.2133 292.377 64.92C292.217 64.9733 292.057 65 291.897 65C291.737 65.0533 291.577 65.08 291.417 65.08ZM322.137 34.12C324.59 33.48 327.177 32.5467 329.897 31.32C332.67 30.04 335.364 28.6 337.977 27C340.59 25.3467 342.937 23.64 345.017 21.88C347.15 20.0667 348.83 18.3067 350.057 16.6C351.337 14.8933 351.977 13.3733 351.977 12.04C351.977 11.6667 351.95 11.3733 351.897 11.16C351.524 10.2 350.59 9.72 349.097 9.72C348.51 9.72 347.844 9.8 347.097 9.96C346.404 10.12 345.657 10.4133 344.857 10.84C341.977 12.28 339.284 14.0667 336.777 16.2C334.324 18.3333 331.924 20.8667 329.577 23.8C327.23 26.7333 324.75 30.1733 322.137 34.12ZM345.34 62.28C342.14 62.28 340.54 60.7067 340.54 57.56C340.54 56.3333 340.86 54.92 341.5 53.32C342.193 51.6667 343.1 50.0133 344.22 48.36C345.34 46.7067 346.593 45.1867 347.98 43.8C349.367 42.36 350.78 41.2133 352.22 40.36C353.713 39.4533 355.1 39 356.38 39C356.807 39 357.1 39.1067 357.26 39.32C357.473 39.48 357.633 39.7733 357.74 40.2C357.847 40.4133 357.927 40.6533 357.98 40.92C358.033 41.1867 358.113 41.4533 358.22 41.72C358.433 42.0933 358.62 42.4667 358.78 42.84C358.94 43.2133 359.02 43.6133 359.02 44.04C359.02 44.5733 358.887 45.0533 358.62 45.48C358.353 45.8533 358.033 46.2 357.66 46.52C357.127 47 356.327 47.6133 355.26 48.36C354.193 49.0533 353.02 49.7733 351.74 50.52C350.513 51.2133 349.313 51.8267 348.14 52.36C347.02 52.8933 346.113 53.2133 345.42 53.32C344.94 54.0667 344.433 55 343.9 56.12C343.42 57.1867 343.18 58.1733 343.18 59.08C343.18 59.56 343.287 59.9867 343.5 60.36C343.767 60.7333 344.167 60.92 344.7 60.92C345.553 60.92 346.673 60.52 348.06 59.72C349.5 58.8667 350.993 57.8533 352.54 56.68C354.087 55.4533 355.5 54.28 356.78 53.16C358.113 51.9867 359.1 51.08 359.74 50.44L362.3 47.72C362.62 47.4 362.967 47.24 363.34 47.24C363.66 47.24 363.82 47.3733 363.82 47.64C363.82 47.96 363.367 48.6267 362.46 49.64C361.553 50.6 360.46 51.6933 359.18 52.92C357.953 54.0933 356.807 55.1867 355.74 56.2C354.673 57.16 353.98 57.7733 353.66 58.04C352.54 59 351.26 59.96 349.82 60.92C348.38 61.8267 346.887 62.28 345.34 62.28ZM346.78 51.24C347.313 50.92 348.113 50.4133 349.18 49.72C350.3 49.0267 351.447 48.2533 352.62 47.4C353.793 46.5467 354.78 45.6933 355.58 44.84C356.433 43.9867 356.86 43.24 356.86 42.6C356.86 42.44 356.833 42.3067 356.78 42.2C356.727 42.1467 356.62 42.12 356.46 42.12C355.767 42.12 354.94 42.4933 353.98 43.24C353.02 43.9867 352.06 44.8933 351.1 45.96C350.14 46.9733 349.26 47.9867 348.46 49C347.713 49.96 347.153 50.7067 346.78 51.24ZM168.344 148.88C166.797 148.88 165.65 148.267 164.904 147.04C164.157 145.76 163.784 144.453 163.784 143.12C163.784 141.307 164.264 139.36 165.224 137.28C166.184 135.147 167.33 133.12 168.664 131.2C170.05 129.28 171.277 127.707 172.344 126.48C172.61 126.16 172.957 126 173.384 126C173.864 126 174.344 126.187 174.824 126.56C175.944 125.76 177.224 125.04 178.664 124.4C180.157 123.76 181.597 123.44 182.984 123.44C185.384 123.44 186.584 124.667 186.584 127.12C186.584 129.467 185.997 131.627 184.824 133.6C183.704 135.573 182.45 137.493 181.064 139.36C180.69 139.84 180.317 140.293 179.944 140.72C179.624 141.147 179.25 141.573 178.824 142C181.17 141.36 183.224 140.293 184.984 138.8C186.744 137.307 188.477 135.76 190.184 134.16C190.397 133.947 190.584 133.787 190.744 133.68C190.957 133.52 191.224 133.44 191.544 133.44C191.81 133.44 191.944 133.627 191.944 134C191.944 134.053 191.864 134.187 191.704 134.4C191.544 134.613 191.437 134.773 191.384 134.88C189.624 137.013 187.437 139.013 184.824 140.88C182.264 142.693 179.57 143.813 176.744 144.24C175.73 145.253 174.45 146.293 172.904 147.36C171.357 148.373 169.837 148.88 168.344 148.88ZM174.584 142.56C174.797 142.56 174.984 142.56 175.144 142.56C175.357 142.56 175.57 142.533 175.784 142.48C176.85 141.2 177.944 139.68 179.064 137.92C180.237 136.16 181.224 134.347 182.024 132.48C182.824 130.56 183.224 128.827 183.224 127.28C183.224 126.32 182.77 125.84 181.864 125.84C180.957 125.84 179.917 126.107 178.744 126.64C177.57 127.173 176.584 127.733 175.784 128.32V128.56C175.784 129.093 175.357 129.867 174.504 130.88C173.704 131.84 172.824 132.827 171.864 133.84C170.957 134.853 170.29 135.707 169.864 136.4C169.704 138.16 170.05 139.627 170.904 140.8C171.757 141.973 172.984 142.56 174.584 142.56ZM168.424 147.52C169.437 147.52 170.424 147.147 171.384 146.4C172.397 145.653 173.25 144.96 173.944 144.32C172.664 144.213 171.49 143.787 170.424 143.04C169.41 142.24 168.477 141.36 167.624 140.4C167.464 140.72 167.25 141.333 166.984 142.24C166.717 143.147 166.584 144.053 166.584 144.96C166.584 145.653 166.717 146.267 166.984 146.8C167.25 147.28 167.73 147.52 168.424 147.52ZM214.581 148.88C213.781 148.88 212.875 148.64 211.861 148.16C210.901 147.733 210.421 147.04 210.421 146.08C210.421 144.96 210.848 143.627 211.701 142.08C212.555 140.533 213.568 138.933 214.741 137.28C215.915 135.573 217.035 133.947 218.101 132.4C219.221 130.853 220.021 129.547 220.501 128.48C220.181 128.64 219.648 128.96 218.901 129.44C218.208 129.867 217.515 130.32 216.821 130.8C216.128 131.227 215.621 131.573 215.301 131.84C213.008 133.547 211.008 135.307 209.301 137.12C207.648 138.933 205.968 141.013 204.261 143.36C203.835 144 203.381 144.667 202.901 145.36C202.475 146.053 202.021 146.72 201.541 147.36C201.328 147.627 200.955 147.893 200.421 148.16C199.941 148.427 199.488 148.56 199.061 148.56C198.368 148.56 198.021 148.187 198.021 147.44C198.021 146.8 198.341 145.813 198.981 144.48C199.675 143.147 200.528 141.627 201.541 139.92C202.555 138.213 203.621 136.533 204.741 134.88C205.861 133.173 206.875 131.653 207.781 130.32C208.688 128.933 209.328 127.947 209.701 127.36C209.595 127.52 209.301 127.813 208.821 128.24C208.341 128.613 207.861 129.013 207.381 129.44C206.955 129.813 206.635 130.08 206.421 130.24C205.408 131.2 204.421 132.187 203.461 133.2C202.501 134.213 201.541 135.227 200.581 136.24C200.475 136.347 200.261 136.507 199.941 136.72C199.675 136.933 199.435 137.04 199.221 137.04C198.955 137.04 198.821 136.907 198.821 136.64C198.821 136.373 199.195 135.813 199.941 134.96C200.688 134.107 201.621 133.093 202.741 131.92C203.861 130.747 205.008 129.547 206.181 128.32C207.408 127.093 208.475 126 209.381 125.04C210.288 124.08 210.901 123.413 211.221 123.04C211.755 122.347 212.315 121.787 212.901 121.36C213.541 120.933 214.288 120.72 215.141 120.72C215.621 120.72 216.208 120.96 216.901 121.44C217.595 121.867 217.941 122.373 217.941 122.96C217.941 123.173 217.888 123.307 217.781 123.36C216.181 124.693 214.608 126.267 213.061 128.08C211.568 129.893 210.155 131.76 208.821 133.68C207.488 135.6 206.261 137.387 205.141 139.04C206.421 137.6 207.861 136.187 209.461 134.8C211.061 133.36 212.608 132.027 214.101 130.8L219.781 126.16C220.155 125.84 220.528 125.493 220.901 125.12C221.328 124.747 221.728 124.427 222.101 124.16C222.528 123.893 222.981 123.787 223.461 123.84C223.995 123.84 224.528 123.84 225.061 123.84C225.648 123.84 226.208 124 226.741 124.32C227.328 124.64 227.621 125.147 227.621 125.84C227.621 126.533 227.435 127.067 227.061 127.44C226.741 127.76 226.368 128.133 225.941 128.56C225.035 129.413 223.915 130.533 222.581 131.92C221.301 133.307 220.021 134.8 218.741 136.4C217.461 138 216.395 139.627 215.541 141.28C214.688 142.88 214.261 144.373 214.261 145.76C214.261 145.92 214.261 146.08 214.261 146.24C214.261 146.4 214.288 146.56 214.341 146.72C215.461 146.293 216.688 145.6 218.021 144.64C219.408 143.627 220.795 142.507 222.181 141.28C223.568 140.053 224.848 138.827 226.021 137.6C227.248 136.373 228.261 135.28 229.061 134.32C229.168 134.213 229.275 134.08 229.381 133.92C229.541 133.76 229.728 133.68 229.941 133.68C230.208 133.68 230.341 133.867 230.341 134.24C230.341 134.453 230.261 134.693 230.101 134.96C229.088 136.293 227.728 137.867 226.021 139.68C224.315 141.493 222.555 143.227 220.741 144.88C218.928 146.48 217.301 147.707 215.861 148.56C215.488 148.773 215.061 148.88 214.581 148.88ZM243.095 148.8C242.188 148.8 241.095 148.453 239.815 147.76C238.535 147.067 237.655 146.32 237.175 145.52C236.855 144.987 236.695 144.347 236.695 143.6C236.695 141.893 237.308 139.627 238.535 136.8C239.815 133.92 241.415 130.827 243.335 127.52C244.188 126.027 245.282 124.293 246.615 122.32C248.002 120.347 249.548 118.32 251.255 116.24C252.962 114.107 254.748 112.08 256.615 110.16C258.535 108.24 260.428 106.56 262.295 105.12C264.215 103.68 266.028 102.667 267.735 102.08C268.428 101.813 269.042 101.68 269.575 101.68C270.588 101.68 271.282 102.027 271.655 102.72C272.082 103.36 272.642 103.893 273.335 104.32C273.762 104.587 273.975 105.013 273.975 105.6C273.975 106.827 273.308 108.293 271.975 110C270.642 111.707 268.908 113.52 266.775 115.44C264.642 117.36 262.348 119.28 259.895 121.2C257.442 123.067 255.068 124.8 252.775 126.4C250.535 128 248.615 129.333 247.015 130.4C245.415 131.467 244.402 132.133 243.975 132.4C243.175 133.893 242.428 135.6 241.735 137.52C241.042 139.44 240.695 141.253 240.695 142.96C240.695 143.6 240.775 144.32 240.935 145.12C241.148 145.867 241.682 146.24 242.535 146.24C243.335 146.24 244.268 145.947 245.335 145.36C246.402 144.773 247.442 144.133 248.455 143.44C249.468 142.693 250.268 142.08 250.855 141.6C252.242 140.48 253.468 139.333 254.535 138.16C255.602 136.987 256.855 135.653 258.295 134.16C258.402 134.053 258.508 133.973 258.615 133.92C258.722 133.813 258.855 133.76 259.015 133.76C259.335 133.76 259.495 133.947 259.495 134.32C259.495 134.64 259.362 134.933 259.095 135.2C256.962 137.547 254.722 139.973 252.375 142.48C250.082 144.987 247.522 146.96 244.695 148.4C244.162 148.667 243.628 148.8 243.095 148.8ZM246.535 128.24C247.335 127.973 248.455 127.333 249.895 126.32C251.335 125.253 252.935 124 254.695 122.56C256.508 121.12 258.322 119.6 260.135 118C262.002 116.347 263.708 114.773 265.255 113.28C266.855 111.733 268.162 110.427 269.175 109.36C270.242 108.24 270.855 107.467 271.015 107.04C271.122 106.72 271.175 106.507 271.175 106.4C271.175 105.973 270.962 105.68 270.535 105.52C270.162 105.36 269.735 105.28 269.255 105.28C268.988 105.28 268.722 105.307 268.455 105.36C268.188 105.413 267.948 105.467 267.735 105.52C266.828 105.84 265.628 106.64 264.135 107.92C262.642 109.147 261.042 110.667 259.335 112.48C257.628 114.24 255.922 116.107 254.215 118.08C252.562 120.053 251.042 121.947 249.655 123.76C248.322 125.52 247.282 127.013 246.535 128.24ZM254.647 178.64C252.194 178.64 250.967 177.413 250.967 174.96C250.967 174.693 250.994 174.427 251.047 174.16C251.047 173.893 251.074 173.627 251.127 173.36C251.554 171.44 252.46 169.6 253.847 167.84C255.234 166.08 256.86 164.427 258.727 162.88C260.594 161.387 262.487 159.973 264.407 158.64C266.38 157.36 268.14 156.24 269.687 155.28C270.594 154.693 271.74 153.973 273.127 153.12C274.567 152.267 276.087 151.333 277.687 150.32C279.287 149.36 280.807 148.453 282.247 147.6C282.834 146.107 283.234 144.453 283.447 142.64C283.714 140.773 283.847 139.04 283.847 137.44V136.8C283.207 137.76 282.274 138.88 281.047 140.16C279.82 141.44 278.434 142.693 276.887 143.92C275.34 145.093 273.82 146.08 272.327 146.88C270.834 147.68 269.474 148.08 268.247 148.08C267.394 148.08 266.807 147.813 266.487 147.28C266.22 146.747 266.087 146.133 266.087 145.44C266.087 143.573 266.487 141.653 267.287 139.68C268.087 137.707 268.994 135.893 270.007 134.24C271.02 132.533 271.927 131.12 272.727 130C273.527 128.827 273.927 128.16 273.927 128C273.927 127.947 273.874 127.92 273.767 127.92C273.554 127.92 273.314 127.92 273.047 127.92C272.834 127.92 272.807 127.76 272.967 127.44C273.714 126.533 274.647 125.733 275.767 125.04C276.887 124.347 277.954 124 278.967 124C279.34 124 279.767 124.16 280.247 124.48C280.78 124.747 281.047 125.093 281.047 125.52C281.047 125.787 280.887 126.08 280.567 126.4C280.194 126.773 279.74 127.2 279.207 127.68C278.727 128.16 278.06 128.907 277.207 129.92C276.727 130.453 276.06 131.333 275.207 132.56C274.354 133.733 273.474 135.093 272.567 136.64C271.66 138.133 270.887 139.627 270.247 141.12C269.66 142.56 269.367 143.813 269.367 144.88C269.367 145.04 269.367 145.227 269.367 145.44C269.42 145.6 269.554 145.76 269.767 145.92C270.514 145.973 271.447 145.653 272.567 144.96C273.687 144.213 274.86 143.28 276.087 142.16C277.367 140.987 278.567 139.76 279.687 138.48C280.86 137.147 281.874 135.92 282.727 134.8C283.634 133.627 284.274 132.693 284.647 132C285.234 130.933 286.114 130.4 287.287 130.4C288.14 130.4 288.62 130.587 288.727 130.96C288.887 131.333 288.967 131.84 288.967 132.48C288.967 134.56 288.834 136.4 288.567 138C288.354 139.547 287.927 141.307 287.287 143.28C290.7 140.347 293.954 137.253 297.047 134C297.1 133.893 297.207 133.76 297.367 133.6C297.58 133.44 297.74 133.36 297.847 133.36C298.167 133.36 298.327 133.52 298.327 133.84C298.327 134.267 298.167 134.693 297.847 135.12C297.367 135.707 296.834 136.293 296.247 136.88C295.714 137.467 295.18 138.053 294.647 138.64C293.367 140.027 292.06 141.413 290.727 142.8C289.394 144.133 287.98 145.413 286.487 146.64C284.034 153.093 280.807 158.747 276.807 163.6C272.86 168.507 267.874 172.693 261.847 176.16C260.834 176.747 259.687 177.307 258.407 177.84C257.127 178.373 255.874 178.64 254.647 178.64ZM256.487 176.64C257.927 176.64 259.5 176.107 261.207 175.04C262.86 174.027 264.514 172.747 266.167 171.2C267.82 169.653 269.314 168.107 270.647 166.56C272.034 165.067 273.127 163.813 273.927 162.8C274.834 161.573 275.714 160.347 276.567 159.12C277.42 157.947 278.22 156.72 278.967 155.44C280.087 153.573 281.02 151.76 281.767 150C281.82 149.84 281.767 149.733 281.607 149.68C281.5 149.68 281.447 149.68 281.447 149.68C279.794 150.853 278.114 152 276.407 153.12C274.754 154.293 273.074 155.44 271.367 156.56C270.514 157.093 269.367 157.867 267.927 158.88C266.487 159.947 264.94 161.12 263.287 162.4C261.634 163.733 260.06 165.093 258.567 166.48C257.074 167.92 255.847 169.307 254.887 170.64C253.927 172.027 253.447 173.253 253.447 174.32C253.447 175.173 253.794 175.76 254.487 176.08C255.127 176.453 255.794 176.64 256.487 176.64ZM334.641 148.88C333.094 148.88 331.947 148.267 331.201 147.04C330.454 145.76 330.081 144.453 330.081 143.12C330.081 141.307 330.561 139.36 331.521 137.28C332.481 135.147 333.627 133.12 334.961 131.2C336.347 129.28 337.574 127.707 338.641 126.48C338.907 126.16 339.254 126 339.681 126C340.161 126 340.641 126.187 341.121 126.56C342.241 125.76 343.521 125.04 344.961 124.4C346.454 123.76 347.894 123.44 349.281 123.44C351.681 123.44 352.881 124.667 352.881 127.12C352.881 129.467 352.294 131.627 351.121 133.6C350.001 135.573 348.747 137.493 347.361 139.36C346.987 139.84 346.614 140.293 346.241 140.72C345.921 141.147 345.547 141.573 345.121 142C347.467 141.36 349.521 140.293 351.281 138.8C353.041 137.307 354.774 135.76 356.481 134.16C356.694 133.947 356.881 133.787 357.041 133.68C357.254 133.52 357.521 133.44 357.841 133.44C358.107 133.44 358.241 133.627 358.241 134C358.241 134.053 358.161 134.187 358.001 134.4C357.841 134.613 357.734 134.773 357.681 134.88C355.921 137.013 353.734 139.013 351.121 140.88C348.561 142.693 345.867 143.813 343.041 144.24C342.027 145.253 340.747 146.293 339.201 147.36C337.654 148.373 336.134 148.88 334.641 148.88ZM340.881 142.56C341.094 142.56 341.281 142.56 341.441 142.56C341.654 142.56 341.867 142.533 342.081 142.48C343.147 141.2 344.241 139.68 345.361 137.92C346.534 136.16 347.521 134.347 348.321 132.48C349.121 130.56 349.521 128.827 349.521 127.28C349.521 126.32 349.067 125.84 348.161 125.84C347.254 125.84 346.214 126.107 345.041 126.64C343.867 127.173 342.881 127.733 342.081 128.32V128.56C342.081 129.093 341.654 129.867 340.801 130.88C340.001 131.84 339.121 132.827 338.161 133.84C337.254 134.853 336.587 135.707 336.161 136.4C336.001 138.16 336.347 139.627 337.201 140.8C338.054 141.973 339.281 142.56 340.881 142.56ZM334.721 147.52C335.734 147.52 336.721 147.147 337.681 146.4C338.694 145.653 339.547 144.96 340.241 144.32C338.961 144.213 337.787 143.787 336.721 143.04C335.707 142.24 334.774 141.36 333.921 140.4C333.761 140.72 333.547 141.333 333.281 142.24C333.014 143.147 332.881 144.053 332.881 144.96C332.881 145.653 333.014 146.267 333.281 146.8C333.547 147.28 334.027 147.52 334.721 147.52ZM380.878 148.88C380.078 148.88 379.171 148.64 378.158 148.16C377.198 147.733 376.718 147.04 376.718 146.08C376.718 144.96 377.145 143.627 377.998 142.08C378.851 140.533 379.865 138.933 381.038 137.28C382.211 135.573 383.331 133.947 384.398 132.4C385.518 130.853 386.318 129.547 386.798 128.48C386.478 128.64 385.945 128.96 385.198 129.44C384.505 129.867 383.811 130.32 383.118 130.8C382.425 131.227 381.918 131.573 381.598 131.84C379.305 133.547 377.305 135.307 375.598 137.12C373.945 138.933 372.265 141.013 370.558 143.36C370.131 144 369.678 144.667 369.198 145.36C368.771 146.053 368.318 146.72 367.838 147.36C367.625 147.627 367.251 147.893 366.718 148.16C366.238 148.427 365.785 148.56 365.358 148.56C364.665 148.56 364.318 148.187 364.318 147.44C364.318 146.8 364.638 145.813 365.278 144.48C365.971 143.147 366.825 141.627 367.838 139.92C368.851 138.213 369.918 136.533 371.038 134.88C372.158 133.173 373.171 131.653 374.078 130.32C374.985 128.933 375.625 127.947 375.998 127.36C375.891 127.52 375.598 127.813 375.118 128.24C374.638 128.613 374.158 129.013 373.678 129.44C373.251 129.813 372.931 130.08 372.718 130.24C371.705 131.2 370.718 132.187 369.758 133.2C368.798 134.213 367.838 135.227 366.878 136.24C366.771 136.347 366.558 136.507 366.238 136.72C365.971 136.933 365.731 137.04 365.518 137.04C365.251 137.04 365.118 136.907 365.118 136.64C365.118 136.373 365.491 135.813 366.238 134.96C366.985 134.107 367.918 133.093 369.038 131.92C370.158 130.747 371.305 129.547 372.478 128.32C373.705 127.093 374.771 126 375.678 125.04C376.585 124.08 377.198 123.413 377.518 123.04C378.051 122.347 378.611 121.787 379.198 121.36C379.838 120.933 380.585 120.72 381.438 120.72C381.918 120.72 382.505 120.96 383.198 121.44C383.891 121.867 384.238 122.373 384.238 122.96C384.238 123.173 384.185 123.307 384.078 123.36C382.478 124.693 380.905 126.267 379.358 128.08C377.865 129.893 376.451 131.76 375.118 133.68C373.785 135.6 372.558 137.387 371.438 139.04C372.718 137.6 374.158 136.187 375.758 134.8C377.358 133.36 378.905 132.027 380.398 130.8L386.078 126.16C386.451 125.84 386.825 125.493 387.198 125.12C387.625 124.747 388.025 124.427 388.398 124.16C388.825 123.893 389.278 123.787 389.758 123.84C390.291 123.84 390.825 123.84 391.358 123.84C391.945 123.84 392.505 124 393.038 124.32C393.625 124.64 393.918 125.147 393.918 125.84C393.918 126.533 393.731 127.067 393.358 127.44C393.038 127.76 392.665 128.133 392.238 128.56C391.331 129.413 390.211 130.533 388.878 131.92C387.598 133.307 386.318 134.8 385.038 136.4C383.758 138 382.691 139.627 381.838 141.28C380.985 142.88 380.558 144.373 380.558 145.76C380.558 145.92 380.558 146.08 380.558 146.24C380.558 146.4 380.585 146.56 380.638 146.72C381.758 146.293 382.985 145.6 384.318 144.64C385.705 143.627 387.091 142.507 388.478 141.28C389.865 140.053 391.145 138.827 392.318 137.6C393.545 136.373 394.558 135.28 395.358 134.32C395.465 134.213 395.571 134.08 395.678 133.92C395.838 133.76 396.025 133.68 396.238 133.68C396.505 133.68 396.638 133.867 396.638 134.24C396.638 134.453 396.558 134.693 396.398 134.96C395.385 136.293 394.025 137.867 392.318 139.68C390.611 141.493 388.851 143.227 387.038 144.88C385.225 146.48 383.598 147.707 382.158 148.56C381.785 148.773 381.358 148.88 380.878 148.88ZM407.712 147.28C404.512 147.28 402.912 145.707 402.912 142.56C402.912 141.333 403.232 139.92 403.872 138.32C404.565 136.667 405.472 135.013 406.592 133.36C407.712 131.707 408.965 130.187 410.352 128.8C411.739 127.36 413.152 126.213 414.592 125.36C416.085 124.453 417.472 124 418.752 124C419.179 124 419.472 124.107 419.632 124.32C419.845 124.48 420.005 124.773 420.112 125.2C420.219 125.413 420.299 125.653 420.352 125.92C420.405 126.187 420.485 126.453 420.592 126.72C420.805 127.093 420.992 127.467 421.152 127.84C421.312 128.213 421.392 128.613 421.392 129.04C421.392 129.573 421.259 130.053 420.992 130.48C420.725 130.853 420.405 131.2 420.032 131.52C419.499 132 418.699 132.613 417.632 133.36C416.565 134.053 415.392 134.773 414.112 135.52C412.885 136.213 411.685 136.827 410.512 137.36C409.392 137.893 408.485 138.213 407.792 138.32C407.312 139.067 406.805 140 406.272 141.12C405.792 142.187 405.552 143.173 405.552 144.08C405.552 144.56 405.659 144.987 405.872 145.36C406.139 145.733 406.539 145.92 407.072 145.92C407.925 145.92 409.045 145.52 410.432 144.72C411.872 143.867 413.365 142.853 414.912 141.68C416.459 140.453 417.872 139.28 419.152 138.16C420.485 136.987 421.472 136.08 422.112 135.44L424.672 132.72C424.992 132.4 425.339 132.24 425.712 132.24C426.032 132.24 426.192 132.373 426.192 132.64C426.192 132.96 425.739 133.627 424.832 134.64C423.925 135.6 422.832 136.693 421.552 137.92C420.325 139.093 419.179 140.187 418.112 141.2C417.045 142.16 416.352 142.773 416.032 143.04C414.912 144 413.632 144.96 412.192 145.92C410.752 146.827 409.259 147.28 407.712 147.28ZM409.152 136.24C409.685 135.92 410.485 135.413 411.552 134.72C412.672 134.027 413.819 133.253 414.992 132.4C416.165 131.547 417.152 130.693 417.952 129.84C418.805 128.987 419.232 128.24 419.232 127.6C419.232 127.44 419.205 127.307 419.152 127.2C419.099 127.147 418.992 127.12 418.832 127.12C418.139 127.12 417.312 127.493 416.352 128.24C415.392 128.987 414.432 129.893 413.472 130.96C412.512 131.973 411.632 132.987 410.832 134C410.085 134.96 409.525 135.707 409.152 136.24ZM438.414 147.68C437.934 147.68 437.347 147.573 436.654 147.36C435.96 147.147 435.614 146.667 435.614 145.92C435.614 145.44 435.827 144.88 436.254 144.24C436.734 143.547 437.294 142.96 437.934 142.48C438.574 141.947 439.16 141.68 439.694 141.68C440.12 141.68 440.52 141.867 440.894 142.24C441.32 142.613 441.507 143.067 441.454 143.6C441.454 143.867 441.24 144.347 440.814 145.04C440.44 145.68 440.014 146.293 439.534 146.88C439.107 147.413 438.734 147.68 438.414 147.68ZM469.439 147.68C468.959 147.68 468.372 147.573 467.679 147.36C466.985 147.147 466.639 146.667 466.639 145.92C466.639 145.44 466.852 144.88 467.279 144.24C467.759 143.547 468.319 142.96 468.959 142.48C469.599 141.947 470.185 141.68 470.719 141.68C471.145 141.68 471.545 141.867 471.919 142.24C472.345 142.613 472.532 143.067 472.479 143.6C472.479 143.867 472.265 144.347 471.839 145.04C471.465 145.68 471.039 146.293 470.559 146.88C470.132 147.413 469.759 147.68 469.439 147.68ZM500.464 147.68C499.984 147.68 499.397 147.573 498.704 147.36C498.01 147.147 497.664 146.667 497.664 145.92C497.664 145.44 497.877 144.88 498.304 144.24C498.784 143.547 499.344 142.96 499.984 142.48C500.624 141.947 501.21 141.68 501.744 141.68C502.17 141.68 502.57 141.867 502.944 142.24C503.37 142.613 503.557 143.067 503.504 143.6C503.504 143.867 503.29 144.347 502.864 145.04C502.49 145.68 502.064 146.293 501.584 146.88C501.157 147.413 500.784 147.68 500.464 147.68Z" fill="#333333"/>
</g>
<defs>
<filter id="filter0_d_131_450" x="0.460034" y="0.099988" width="510.824" height="186.24" filterUnits="userSpaceOnUse" color-interpolation-filters="sRGB">
<feFlood flood-opacity="0" result="BackgroundImageFix"/>
<feColorMatrix in="SourceAlpha" type="matrix" values="0 0 0 0 0 0 0 0 0 0 0 0 0 0 0 0 0 0 127 0" result="hardAlpha"/>
<feOffset/>
<feGaussianBlur stdDeviation="3.85"/>
<feComposite in2="hardAlpha" operator="out"/>
<feColorMatrix type="matrix" values="0 0 0 0 1 0 0 0 0 1 0 0 0 0 1 0 0 0 1 0"/>
<feBlend mode="hard-light" in2="BackgroundImageFix" result="effect1_dropShadow_131_450"/>
<feBlend mode="normal" in="SourceGraphic" in2="effect1_dropShadow_131_450" result="shape"/>
</filter>
</defs>
</svg>
