<svg width="92" height="33" viewBox="0 0 92 33" fill="none" xmlns="http://www.w3.org/2000/svg">
<g filter="url(#filter0_d_126_140)">
<path d="M8.84375 16.6521C9.4375 16.7615 9.98438 16.8435 10.4844 16.8982C10.9844 16.9451 11.4531 16.9685 11.8906 16.9685C14.2031 16.9685 15.9766 16.281 17.2109 14.906C18.4453 13.5232 19.0625 11.5466 19.0625 8.97632C19.0625 7.04663 18.5625 5.60132 17.5625 4.64038C16.5703 3.67163 15.0703 3.18726 13.0625 3.18726C12.8281 3.18726 12.5508 3.19897 12.2305 3.22241C11.9102 3.23804 11.5156 3.26929 11.0469 3.31616C10.4141 6.73804 9.93359 9.43726 9.60547 11.4138C9.28516 13.3826 9.03125 15.1287 8.84375 16.6521ZM4.85938 17.2263H5.31641C5.80078 17.2263 6.14453 17.0935 6.34766 16.8279C6.55859 16.5623 6.77344 15.7849 6.99219 14.4958L8.64453 4.80444C8.67578 4.59351 8.69922 4.40601 8.71484 4.24194C8.73047 4.07788 8.73828 3.94507 8.73828 3.84351C8.73828 3.49976 8.64062 3.25366 8.44531 3.10522C8.25781 2.95679 7.94141 2.88257 7.49609 2.88257H7.26172L7.42578 2.08569C7.91016 2.13257 8.35156 2.16772 8.75 2.19116C9.14844 2.2146 9.51562 2.22632 9.85156 2.22632C10.0547 2.22632 10.5625 2.20288 11.375 2.15601C12.1953 2.10913 12.918 2.08569 13.543 2.08569C16.1211 2.08569 18.0742 2.64429 19.4023 3.76147C20.7305 4.87085 21.3945 6.50366 21.3945 8.65991C21.3945 9.8396 21.168 11.0271 20.7148 12.2224C20.2695 13.4099 19.6719 14.4255 18.9219 15.2693C18.0781 16.199 17.082 16.8982 15.9336 17.3669C14.7852 17.8357 13.5 18.0701 12.0781 18.0701C11.6484 18.0701 10.9102 18.0349 9.86328 17.9646C8.81641 17.8943 7.98828 17.8591 7.37891 17.8591C7.23047 17.8591 6.93359 17.8708 6.48828 17.8943C6.05078 17.9177 5.45703 17.9529 4.70703 17.9998L4.85938 17.2263ZM24.8164 12.7146L24.9336 12.656C27.7148 11.2341 29.1055 10.1365 29.1055 9.36304C29.1055 8.94897 28.957 8.5896 28.6602 8.28491C28.3633 7.98022 28.0156 7.82788 27.6172 7.82788C27 7.82788 26.4453 8.25366 25.9531 9.10522C25.4609 9.95679 25.082 11.1599 24.8164 12.7146ZM28.3438 11.906L24.7578 13.7576V13.8748C24.7578 14.8044 24.9023 15.5115 25.1914 15.9958C25.4883 16.4802 25.9141 16.7224 26.4688 16.7224C26.7969 16.7224 27.207 16.5779 27.6992 16.2888C28.1992 15.9919 28.8359 15.5154 29.6094 14.8591L30.0195 15.5974C28.9023 16.6287 28.0117 17.3435 27.3477 17.7419C26.6914 18.1404 26.0938 18.3396 25.5547 18.3396C24.7344 18.3396 24.0703 17.9841 23.5625 17.2732C23.0547 16.5623 22.8008 15.6287 22.8008 14.4724C22.8008 13.6521 22.9336 12.7732 23.1992 11.8357C23.4727 10.8904 23.8242 10.0662 24.2539 9.36304C24.793 8.50366 25.4102 7.8396 26.1055 7.37085C26.8008 6.9021 27.5195 6.66772 28.2617 6.66772C29.0195 6.66772 29.6523 6.90991 30.1602 7.39429C30.6758 7.87085 30.9336 8.45288 30.9336 9.14038C30.9336 9.69507 30.7773 10.156 30.4648 10.5232C30.1602 10.8826 29.4531 11.3435 28.3438 11.906ZM38.8555 8.61304L38.1992 9.23413L38.1172 9.16382C37.2266 8.35132 36.5508 7.94507 36.0898 7.94507C35.6523 7.94507 35.2891 8.07788 35 8.34351C34.7188 8.60132 34.5781 8.93335 34.5781 9.3396C34.5781 9.9646 35.1211 10.7302 36.207 11.6365C36.3398 11.7458 36.4375 11.8279 36.5 11.8826C37.3047 12.5701 37.832 13.1091 38.082 13.4998C38.3398 13.8904 38.4688 14.3123 38.4688 14.7654C38.4688 15.6326 38.0391 16.4412 37.1797 17.1912C36.3281 17.9412 35.3555 18.3162 34.2617 18.3162C33.4883 18.3162 32.8477 18.1833 32.3398 17.9177C31.832 17.6521 31.5781 17.3279 31.5781 16.9451C31.5781 16.7966 31.6016 16.6677 31.6484 16.5583C31.6953 16.449 31.8008 16.3123 31.9648 16.1482L32.5859 15.574C33.1016 16.1443 33.5312 16.5427 33.875 16.7693C34.2188 16.9958 34.5547 17.1091 34.8828 17.1091C35.375 17.1091 35.793 16.9451 36.1367 16.6169C36.4883 16.281 36.6641 15.8865 36.6641 15.4333C36.6641 14.9177 36.1289 14.1833 35.0586 13.2302C34.7773 12.9802 34.5625 12.7849 34.4141 12.6443C33.7891 12.0818 33.3594 11.613 33.125 11.238C32.8906 10.863 32.7734 10.4841 32.7734 10.1013C32.7734 9.26538 33.1953 8.48413 34.0391 7.75757C34.8906 7.03101 35.8203 6.66772 36.8281 6.66772C37.5 6.66772 38.0586 6.79272 38.5039 7.04272C38.957 7.29272 39.1836 7.58569 39.1836 7.92163C39.1836 8.05444 39.1562 8.17944 39.1016 8.29663C39.0469 8.40601 38.9648 8.51147 38.8555 8.61304ZM45.2422 15.3396L45.6523 16.031C44.6914 17.0232 44.0234 17.656 43.6484 17.9294C43.2734 18.2029 42.9414 18.3396 42.6523 18.3396C42.2383 18.3396 41.9062 18.1677 41.6562 17.824C41.4062 17.4724 41.2812 17.0037 41.2812 16.4177C41.2812 15.6833 41.5117 14.4568 41.9727 12.738C42.4414 11.0193 42.6758 9.78101 42.6758 9.02319C42.6758 8.82788 42.6289 8.67163 42.5352 8.55444C42.4414 8.43726 42.3203 8.37866 42.1719 8.37866C42.0469 8.37866 41.8828 8.42944 41.6797 8.53101C41.4766 8.63257 41.2227 8.78882 40.918 8.99976L40.5664 8.37866L42.125 7.24194C42.4219 7.02319 42.6797 6.86694 42.8984 6.77319C43.1172 6.67163 43.3242 6.62085 43.5195 6.62085C43.8867 6.62085 44.1758 6.77319 44.3867 7.07788C44.6055 7.37476 44.7148 7.78491 44.7148 8.30835C44.7148 8.87866 44.5117 9.99585 44.1055 11.6599C44.0117 12.0349 43.9414 12.3162 43.8945 12.5037C43.6758 13.3865 43.5078 14.1169 43.3906 14.6951C43.2812 15.2732 43.2266 15.6716 43.2266 15.8904C43.2266 16.0857 43.2695 16.2458 43.3555 16.3708C43.4414 16.4958 43.5508 16.5583 43.6836 16.5583C43.8086 16.5583 43.9727 16.4802 44.1758 16.324C44.3789 16.1677 44.7344 15.8396 45.2422 15.3396ZM45.1484 0.234131L45.8164 0.984131C46.0039 1.17944 46.1328 1.35522 46.2031 1.51147C46.2812 1.65991 46.3203 1.81226 46.3203 1.96851C46.3203 2.13257 46.2617 2.28882 46.1445 2.43726C46.0352 2.58569 45.8711 2.72632 45.6523 2.85913L44.6211 3.43335L43.8711 2.54272C43.7148 2.34741 43.6133 2.19507 43.5664 2.08569C43.5195 1.96851 43.4961 1.84741 43.4961 1.72241C43.4961 1.54272 43.543 1.38647 43.6367 1.25366C43.7305 1.11304 43.8906 0.976318 44.1172 0.843506L45.1484 0.234131ZM50.2695 18.1873C49.1289 18.7732 48.3477 19.2615 47.9258 19.6521C47.5039 20.0505 47.293 20.4685 47.293 20.906C47.293 21.4685 47.6406 21.9529 48.3359 22.3591C49.0312 22.7654 49.8906 22.9685 50.9141 22.9685C51.8359 22.9685 52.6016 22.7615 53.2109 22.3474C53.8281 21.9412 54.1367 21.4373 54.1367 20.8357C54.1367 20.2419 53.1836 19.5154 51.2773 18.656C50.8477 18.4607 50.5117 18.3044 50.2695 18.1873ZM52.2148 7.55835C51.4648 7.55835 50.8359 7.98022 50.3281 8.82397C49.8281 9.65991 49.5781 10.7029 49.5781 11.9529C49.5781 12.6013 49.7148 13.1013 49.9883 13.4529C50.2695 13.7966 50.668 13.9685 51.1836 13.9685C51.9805 13.9685 52.6328 13.5623 53.1406 12.7498C53.6562 11.9373 53.9141 10.9021 53.9141 9.64429C53.9141 8.98804 53.7656 8.47632 53.4688 8.10913C53.1719 7.74194 52.7539 7.55835 52.2148 7.55835ZM57.6172 6.79663L57.1133 8.10913C57.0977 8.10913 57.0742 8.11304 57.043 8.12085C56.7383 8.14429 56.5039 8.15601 56.3398 8.15601C56.1367 8.15601 55.668 8.10132 54.9336 7.99194H54.8984C55.2109 8.27319 55.4375 8.58179 55.5781 8.91772C55.7188 9.25366 55.7891 9.66382 55.7891 10.1482C55.7891 11.0623 55.5469 11.8748 55.0625 12.5857C54.5859 13.2966 53.918 13.8279 53.0586 14.1794C52.8477 14.2654 52.5586 14.3865 52.1914 14.5427C50.4961 15.2302 49.6484 15.6794 49.6484 15.8904C49.6484 16.0935 50.0898 16.3669 50.9727 16.7107C51.2773 16.8279 51.5156 16.9216 51.6875 16.9919C53.5391 17.7498 54.7227 18.3474 55.2383 18.7849C55.7617 19.2302 56.0234 19.7537 56.0234 20.3552C56.0234 21.3474 55.3984 22.2458 54.1484 23.0505C52.9062 23.863 51.4531 24.2693 49.7891 24.2693C48.4922 24.2693 47.4336 23.9802 46.6133 23.4021C45.7852 22.824 45.3711 22.0935 45.3711 21.2107C45.3711 20.6248 45.6758 20.0701 46.2852 19.5466C46.8945 19.031 47.9414 18.4451 49.4258 17.7888C48.7852 17.4998 48.3203 17.238 48.0312 17.0037C47.75 16.7615 47.6094 16.5193 47.6094 16.2771C47.6094 16.0427 47.7734 15.8044 48.1016 15.5623C48.4297 15.3201 49.1445 14.9568 50.2461 14.4724C50.1992 14.4802 50.1484 14.488 50.0938 14.4958C50.0469 14.4958 49.9688 14.4958 49.8594 14.4958C49.1641 14.4958 48.6172 14.2654 48.2188 13.8044C47.8281 13.3357 47.6328 12.6873 47.6328 11.8591C47.6328 10.4294 48.1055 9.20679 49.0508 8.19116C50.0039 7.17554 51.1445 6.66772 52.4727 6.66772C52.9023 6.66772 53.4805 6.73413 54.207 6.86694C54.9336 6.99194 55.4453 7.05444 55.7422 7.05444C55.9766 7.05444 56.2461 7.03491 56.5508 6.99585C56.8633 6.94897 57.2188 6.88257 57.6172 6.79663ZM61.7656 10.031L63.6641 8.17944C64.3281 7.54663 64.8281 7.12866 65.1641 6.92554C65.5078 6.72241 65.832 6.62085 66.1367 6.62085C66.6523 6.62085 67.0703 6.84741 67.3906 7.30054C67.7188 7.75366 67.8828 8.35132 67.8828 9.09351C67.8828 9.85132 67.6914 11.0232 67.3086 12.6091C66.9258 14.1873 66.7344 15.3123 66.7344 15.9841C66.7344 16.1873 66.7734 16.3435 66.8516 16.4529C66.9297 16.5544 67.043 16.6052 67.1914 16.6052C67.2617 16.6052 67.3477 16.5779 67.4492 16.5232C67.5586 16.4607 67.6641 16.3787 67.7656 16.2771L68.6562 15.4099L69.0664 16.031L67.7891 17.3318C67.4844 17.6443 67.1797 17.8904 66.875 18.0701C66.5781 18.2498 66.3164 18.3396 66.0898 18.3396C65.6992 18.3396 65.3789 18.1716 65.1289 17.8357C64.8867 17.4919 64.7656 17.0427 64.7656 16.488C64.7656 15.824 64.9648 14.656 65.3633 12.9841C65.7617 11.3044 65.9609 10.0818 65.9609 9.31616C65.9609 9.0271 65.8984 8.79663 65.7734 8.62476C65.6562 8.44507 65.4961 8.35522 65.293 8.35522C64.9883 8.35522 64.0547 9.07788 62.4922 10.5232C62.0781 10.906 61.7539 11.2068 61.5195 11.4255L60.7812 15.5505C60.7656 15.6287 60.7422 15.7458 60.7109 15.9021C60.5469 16.738 60.4492 17.3787 60.418 17.824L58.332 18.3396C58.8477 16.0974 59.2539 14.1482 59.5508 12.4919C59.8555 10.8357 60.0078 9.74976 60.0078 9.23413C60.0078 8.92163 59.9727 8.69897 59.9023 8.56616C59.832 8.42554 59.7188 8.35522 59.5625 8.35522C59.4688 8.35522 59.3125 8.40991 59.0938 8.51929C58.8828 8.62866 58.6133 8.78882 58.2852 8.99976L57.9688 8.37866C58.0547 8.30835 58.1797 8.20679 58.3438 8.07397C59.5469 7.10522 60.3516 6.62085 60.7578 6.62085C61.1484 6.62085 61.4375 6.76929 61.625 7.06616C61.8125 7.35522 61.9062 7.80835 61.9062 8.42554C61.9062 8.64429 61.8945 8.89038 61.8711 9.16382C61.8477 9.43726 61.8125 9.72632 61.7656 10.031ZM72.2305 12.7146L72.3477 12.656C75.1289 11.2341 76.5195 10.1365 76.5195 9.36304C76.5195 8.94897 76.3711 8.5896 76.0742 8.28491C75.7773 7.98022 75.4297 7.82788 75.0312 7.82788C74.4141 7.82788 73.8594 8.25366 73.3672 9.10522C72.875 9.95679 72.4961 11.1599 72.2305 12.7146ZM75.7578 11.906L72.1719 13.7576V13.8748C72.1719 14.8044 72.3164 15.5115 72.6055 15.9958C72.9023 16.4802 73.3281 16.7224 73.8828 16.7224C74.2109 16.7224 74.6211 16.5779 75.1133 16.2888C75.6133 15.9919 76.25 15.5154 77.0234 14.8591L77.4336 15.5974C76.3164 16.6287 75.4258 17.3435 74.7617 17.7419C74.1055 18.1404 73.5078 18.3396 72.9688 18.3396C72.1484 18.3396 71.4844 17.9841 70.9766 17.2732C70.4688 16.5623 70.2148 15.6287 70.2148 14.4724C70.2148 13.6521 70.3477 12.7732 70.6133 11.8357C70.8867 10.8904 71.2383 10.0662 71.668 9.36304C72.207 8.50366 72.8242 7.8396 73.5195 7.37085C74.2148 6.9021 74.9336 6.66772 75.6758 6.66772C76.4336 6.66772 77.0664 6.90991 77.5742 7.39429C78.0898 7.87085 78.3477 8.45288 78.3477 9.14038C78.3477 9.69507 78.1914 10.156 77.8789 10.5232C77.5742 10.8826 76.8672 11.3435 75.7578 11.906ZM79.9062 18.3162C80.3984 16.2849 80.7812 14.4919 81.0547 12.9373C81.3281 11.3748 81.4648 10.199 81.4648 9.40991C81.4648 9.07397 81.4141 8.82397 81.3125 8.65991C81.2188 8.48804 81.0781 8.4021 80.8906 8.4021C80.75 8.4021 80.3555 8.60522 79.707 9.01147L79.6133 9.07007L79.2031 8.4021L79.3789 8.27319C80.7852 7.21851 81.6953 6.69116 82.1094 6.69116C82.4922 6.69116 82.7656 6.81616 82.9297 7.06616C83.1016 7.30835 83.1875 7.7146 83.1875 8.28491C83.1875 8.78491 83.1719 9.25366 83.1406 9.69116C83.1094 10.1208 83.0625 10.4919 83 10.8044C84.0703 9.03882 84.832 7.91382 85.2852 7.42944C85.7383 6.93726 86.1602 6.69116 86.5508 6.69116C86.8164 6.69116 87.0391 6.78882 87.2188 6.98413C87.3984 7.17944 87.4883 7.41772 87.4883 7.69897C87.4883 7.87085 87.4414 8.08179 87.3477 8.33179C87.2617 8.57397 87.0742 8.98022 86.7852 9.55054C86.6445 9.35522 86.5 9.21069 86.3516 9.11694C86.2031 9.02319 86.0547 8.97632 85.9062 8.97632C85.6172 8.97632 85.2734 9.17944 84.875 9.58569C84.4844 9.98413 83.8672 10.7888 83.0234 11.9998C82.7578 13.0779 82.5352 14.1052 82.3555 15.0818C82.1758 16.0505 82.0391 16.9685 81.9453 17.8357L79.9062 18.3162Z" fill="#333333"/>
</g>
<defs>
<filter id="filter0_d_126_140" x="0.707031" y="0.234131" width="90.7812" height="32.0352" filterUnits="userSpaceOnUse" color-interpolation-filters="sRGB">
<feFlood flood-opacity="0" result="BackgroundImageFix"/>
<feColorMatrix in="SourceAlpha" type="matrix" values="0 0 0 0 0 0 0 0 0 0 0 0 0 0 0 0 0 0 127 0" result="hardAlpha"/>
<feOffset dy="4"/>
<feGaussianBlur stdDeviation="2"/>
<feComposite in2="hardAlpha" operator="out"/>
<feColorMatrix type="matrix" values="0 0 0 0 0 0 0 0 0 0 0 0 0 0 0 0 0 0 0.25 0"/>
<feBlend mode="hard-light" in2="BackgroundImageFix" result="effect1_dropShadow_126_140"/>
<feBlend mode="normal" in="SourceGraphic" in2="effect1_dropShadow_126_140" result="shape"/>
</filter>
</defs>
</svg>
