<svg width="162" height="26" viewBox="0 0 162 26" fill="none" xmlns="http://www.w3.org/2000/svg">
<g filter="url(#filter0_d_126_142)">
<path d="M8.84375 15.6523C9.4375 15.7617 9.98438 15.8438 10.4844 15.8984C10.9844 15.9453 11.4531 15.9688 11.8906 15.9688C14.2031 15.9688 15.9766 15.2812 17.2109 13.9062C18.4453 12.5234 19.0625 10.5469 19.0625 7.97656C19.0625 6.04688 18.5625 4.60156 17.5625 3.64062C16.5703 2.67188 15.0703 2.1875 13.0625 2.1875C12.8281 2.1875 12.5508 2.19922 12.2305 2.22266C11.9102 2.23828 11.5156 2.26953 11.0469 2.31641C10.4141 5.73828 9.93359 8.4375 9.60547 10.4141C9.28516 12.3828 9.03125 14.1289 8.84375 15.6523ZM4.85938 16.2266H5.31641C5.80078 16.2266 6.14453 16.0938 6.34766 15.8281C6.55859 15.5625 6.77344 14.7852 6.99219 13.4961L8.64453 3.80469C8.67578 3.59375 8.69922 3.40625 8.71484 3.24219C8.73047 3.07812 8.73828 2.94531 8.73828 2.84375C8.73828 2.5 8.64062 2.25391 8.44531 2.10547C8.25781 1.95703 7.94141 1.88281 7.49609 1.88281H7.26172L7.42578 1.08594C7.91016 1.13281 8.35156 1.16797 8.75 1.19141C9.14844 1.21484 9.51562 1.22656 9.85156 1.22656C10.0547 1.22656 10.5625 1.20312 11.375 1.15625C12.1953 1.10938 12.918 1.08594 13.543 1.08594C16.1211 1.08594 18.0742 1.64453 19.4023 2.76172C20.7305 3.87109 21.3945 5.50391 21.3945 7.66016C21.3945 8.83984 21.168 10.0273 20.7148 11.2227C20.2695 12.4102 19.6719 13.4258 18.9219 14.2695C18.0781 15.1992 17.082 15.8984 15.9336 16.3672C14.7852 16.8359 13.5 17.0703 12.0781 17.0703C11.6484 17.0703 10.9102 17.0352 9.86328 16.9648C8.81641 16.8945 7.98828 16.8594 7.37891 16.8594C7.23047 16.8594 6.93359 16.8711 6.48828 16.8945C6.05078 16.918 5.45703 16.9531 4.70703 17L4.85938 16.2266ZM24.8164 11.7148L24.9336 11.6562C27.7148 10.2344 29.1055 9.13672 29.1055 8.36328C29.1055 7.94922 28.957 7.58984 28.6602 7.28516C28.3633 6.98047 28.0156 6.82812 27.6172 6.82812C27 6.82812 26.4453 7.25391 25.9531 8.10547C25.4609 8.95703 25.082 10.1602 24.8164 11.7148ZM28.3438 10.9062L24.7578 12.7578V12.875C24.7578 13.8047 24.9023 14.5117 25.1914 14.9961C25.4883 15.4805 25.9141 15.7227 26.4688 15.7227C26.7969 15.7227 27.207 15.5781 27.6992 15.2891C28.1992 14.9922 28.8359 14.5156 29.6094 13.8594L30.0195 14.5977C28.9023 15.6289 28.0117 16.3438 27.3477 16.7422C26.6914 17.1406 26.0938 17.3398 25.5547 17.3398C24.7344 17.3398 24.0703 16.9844 23.5625 16.2734C23.0547 15.5625 22.8008 14.6289 22.8008 13.4727C22.8008 12.6523 22.9336 11.7734 23.1992 10.8359C23.4727 9.89062 23.8242 9.06641 24.2539 8.36328C24.793 7.50391 25.4102 6.83984 26.1055 6.37109C26.8008 5.90234 27.5195 5.66797 28.2617 5.66797C29.0195 5.66797 29.6523 5.91016 30.1602 6.39453C30.6758 6.87109 30.9336 7.45312 30.9336 8.14062C30.9336 8.69531 30.7773 9.15625 30.4648 9.52344C30.1602 9.88281 29.4531 10.3438 28.3438 10.9062ZM38.8555 7.61328L38.1992 8.23438L38.1172 8.16406C37.2266 7.35156 36.5508 6.94531 36.0898 6.94531C35.6523 6.94531 35.2891 7.07812 35 7.34375C34.7188 7.60156 34.5781 7.93359 34.5781 8.33984C34.5781 8.96484 35.1211 9.73047 36.207 10.6367C36.3398 10.7461 36.4375 10.8281 36.5 10.8828C37.3047 11.5703 37.832 12.1094 38.082 12.5C38.3398 12.8906 38.4688 13.3125 38.4688 13.7656C38.4688 14.6328 38.0391 15.4414 37.1797 16.1914C36.3281 16.9414 35.3555 17.3164 34.2617 17.3164C33.4883 17.3164 32.8477 17.1836 32.3398 16.918C31.832 16.6523 31.5781 16.3281 31.5781 15.9453C31.5781 15.7969 31.6016 15.668 31.6484 15.5586C31.6953 15.4492 31.8008 15.3125 31.9648 15.1484L32.5859 14.5742C33.1016 15.1445 33.5312 15.543 33.875 15.7695C34.2188 15.9961 34.5547 16.1094 34.8828 16.1094C35.375 16.1094 35.793 15.9453 36.1367 15.6172C36.4883 15.2812 36.6641 14.8867 36.6641 14.4336C36.6641 13.918 36.1289 13.1836 35.0586 12.2305C34.7773 11.9805 34.5625 11.7852 34.4141 11.6445C33.7891 11.082 33.3594 10.6133 33.125 10.2383C32.8906 9.86328 32.7734 9.48438 32.7734 9.10156C32.7734 8.26562 33.1953 7.48438 34.0391 6.75781C34.8906 6.03125 35.8203 5.66797 36.8281 5.66797C37.5 5.66797 38.0586 5.79297 38.5039 6.04297C38.957 6.29297 39.1836 6.58594 39.1836 6.92188C39.1836 7.05469 39.1562 7.17969 39.1016 7.29688C39.0469 7.40625 38.9648 7.51172 38.8555 7.61328ZM47.3867 7.61328L46.7305 8.23438L46.6484 8.16406C45.7578 7.35156 45.082 6.94531 44.6211 6.94531C44.1836 6.94531 43.8203 7.07812 43.5312 7.34375C43.25 7.60156 43.1094 7.93359 43.1094 8.33984C43.1094 8.96484 43.6523 9.73047 44.7383 10.6367C44.8711 10.7461 44.9688 10.8281 45.0312 10.8828C45.8359 11.5703 46.3633 12.1094 46.6133 12.5C46.8711 12.8906 47 13.3125 47 13.7656C47 14.6328 46.5703 15.4414 45.7109 16.1914C44.8594 16.9414 43.8867 17.3164 42.793 17.3164C42.0195 17.3164 41.3789 17.1836 40.8711 16.918C40.3633 16.6523 40.1094 16.3281 40.1094 15.9453C40.1094 15.7969 40.1328 15.668 40.1797 15.5586C40.2266 15.4492 40.332 15.3125 40.4961 15.1484L41.1172 14.5742C41.6328 15.1445 42.0625 15.543 42.4062 15.7695C42.75 15.9961 43.0859 16.1094 43.4141 16.1094C43.9062 16.1094 44.3242 15.9453 44.668 15.6172C45.0195 15.2812 45.1953 14.8867 45.1953 14.4336C45.1953 13.918 44.6602 13.1836 43.5898 12.2305C43.3086 11.9805 43.0938 11.7852 42.9453 11.6445C42.3203 11.082 41.8906 10.6133 41.6562 10.2383C41.4219 9.86328 41.3047 9.48438 41.3047 9.10156C41.3047 8.26562 41.7266 7.48438 42.5703 6.75781C43.4219 6.03125 44.3516 5.66797 45.3594 5.66797C46.0312 5.66797 46.5898 5.79297 47.0352 6.04297C47.4883 6.29297 47.7148 6.58594 47.7148 6.92188C47.7148 7.05469 47.6875 7.17969 47.6328 7.29688C47.5781 7.40625 47.4961 7.51172 47.3867 7.61328ZM50.9961 11.7148L51.1133 11.6562C53.8945 10.2344 55.2852 9.13672 55.2852 8.36328C55.2852 7.94922 55.1367 7.58984 54.8398 7.28516C54.543 6.98047 54.1953 6.82812 53.7969 6.82812C53.1797 6.82812 52.625 7.25391 52.1328 8.10547C51.6406 8.95703 51.2617 10.1602 50.9961 11.7148ZM54.5234 10.9062L50.9375 12.7578V12.875C50.9375 13.8047 51.082 14.5117 51.3711 14.9961C51.668 15.4805 52.0938 15.7227 52.6484 15.7227C52.9766 15.7227 53.3867 15.5781 53.8789 15.2891C54.3789 14.9922 55.0156 14.5156 55.7891 13.8594L56.1992 14.5977C55.082 15.6289 54.1914 16.3438 53.5273 16.7422C52.8711 17.1406 52.2734 17.3398 51.7344 17.3398C50.9141 17.3398 50.25 16.9844 49.7422 16.2734C49.2344 15.5625 48.9805 14.6289 48.9805 13.4727C48.9805 12.6523 49.1133 11.7734 49.3789 10.8359C49.6523 9.89062 50.0039 9.06641 50.4336 8.36328C50.9727 7.50391 51.5898 6.83984 52.2852 6.37109C52.9805 5.90234 53.6992 5.66797 54.4414 5.66797C55.1992 5.66797 55.832 5.91016 56.3398 6.39453C56.8555 6.87109 57.1133 7.45312 57.1133 8.14062C57.1133 8.69531 56.957 9.15625 56.6445 9.52344C56.3398 9.88281 55.6328 10.3438 54.5234 10.9062ZM58.6719 17.3164C59.1641 15.2852 59.5469 13.4922 59.8203 11.9375C60.0938 10.375 60.2305 9.19922 60.2305 8.41016C60.2305 8.07422 60.1797 7.82422 60.0781 7.66016C59.9844 7.48828 59.8438 7.40234 59.6562 7.40234C59.5156 7.40234 59.1211 7.60547 58.4727 8.01172L58.3789 8.07031L57.9688 7.40234L58.1445 7.27344C59.5508 6.21875 60.4609 5.69141 60.875 5.69141C61.2578 5.69141 61.5312 5.81641 61.6953 6.06641C61.8672 6.30859 61.9531 6.71484 61.9531 7.28516C61.9531 7.78516 61.9375 8.25391 61.9062 8.69141C61.875 9.12109 61.8281 9.49219 61.7656 9.80469C62.8359 8.03906 63.5977 6.91406 64.0508 6.42969C64.5039 5.9375 64.9258 5.69141 65.3164 5.69141C65.582 5.69141 65.8047 5.78906 65.9844 5.98438C66.1641 6.17969 66.2539 6.41797 66.2539 6.69922C66.2539 6.87109 66.207 7.08203 66.1133 7.33203C66.0273 7.57422 65.8398 7.98047 65.5508 8.55078C65.4102 8.35547 65.2656 8.21094 65.1172 8.11719C64.9688 8.02344 64.8203 7.97656 64.6719 7.97656C64.3828 7.97656 64.0391 8.17969 63.6406 8.58594C63.25 8.98438 62.6328 9.78906 61.7891 11C61.5234 12.0781 61.3008 13.1055 61.1211 14.082C60.9414 15.0508 60.8047 15.9688 60.7109 16.8359L58.6719 17.3164ZM72.1133 2.98438C71.9648 3.50781 71.7578 4.32812 71.4922 5.44531C71.4141 5.77344 71.3555 6.01562 71.3164 6.17188C71.7773 6.17188 72.2461 6.16797 72.7227 6.16016C73.207 6.14453 73.7148 6.125 74.2461 6.10156L73.9648 7.27344C73.7539 7.26562 73.5195 7.26172 73.2617 7.26172C73.0039 7.26172 72.5898 7.26172 72.0195 7.26172H71.082C70.7148 8.87109 70.4414 10.2773 70.2617 11.4805C70.0898 12.6836 70.0039 13.6914 70.0039 14.5039C70.0039 14.8477 70.0586 15.1172 70.168 15.3125C70.2852 15.5078 70.4453 15.6055 70.6484 15.6055C70.8047 15.6055 71.0508 15.4805 71.3867 15.2305C71.7227 14.9805 72.1797 14.5781 72.7578 14.0234L73.168 14.7734C72.043 15.9297 71.2695 16.668 70.8477 16.9883C70.4258 17.3008 70.0703 17.457 69.7812 17.457C69.2422 17.457 68.8125 17.2031 68.4922 16.6953C68.1719 16.1875 68.0117 15.4961 68.0117 14.6211C68.0117 14.0508 68.1016 13.2344 68.2812 12.1719C68.4609 11.1016 68.8008 9.44531 69.3008 7.20312C69.1758 7.20312 69.0117 7.20703 68.8086 7.21484C68.6133 7.22266 68.4805 7.22656 68.4102 7.22656H67.6016L67.7422 6.44141C68.1016 6.42578 68.4297 6.36328 68.7266 6.25391C69.0312 6.14453 69.3359 5.97266 69.6406 5.73828C69.7109 5.45703 69.7891 5.16406 69.875 4.85938C69.9688 4.54688 70.0742 4.21875 70.1914 3.875L72.1133 2.98438ZM100.531 1.78906C100.352 2.35938 100.199 2.92578 100.074 3.48828C99.957 4.05078 99.8711 4.60938 99.8164 5.16406L99.0195 5.04688C99.0352 4.91406 99.0469 4.78516 99.0547 4.66016C99.0625 4.53516 99.0664 4.41016 99.0664 4.28516C99.0664 3.56641 98.7188 3 98.0234 2.58594C97.3359 2.16406 96.4062 1.95312 95.2344 1.95312C93.1875 1.95312 91.5859 2.67578 90.4297 4.12109C89.2812 5.56641 88.707 7.5625 88.707 10.1094C88.707 11.9688 89.1602 13.4414 90.0664 14.5273C90.9727 15.6133 92.1992 16.1562 93.7461 16.1562C94.8711 16.1562 95.8242 15.8867 96.6055 15.3477C97.3867 14.8008 97.9453 14.0156 98.2812 12.9922L99.0195 13.1562C98.9023 13.5469 98.7969 13.9648 98.7031 14.4102C98.6094 14.8477 98.5156 15.375 98.4219 15.9922C97.4688 16.4922 96.5664 16.8672 95.7148 17.1172C94.8711 17.375 94.0859 17.5039 93.3594 17.5039C91.25 17.5039 89.5586 16.8594 88.2852 15.5703C87.0117 14.2734 86.375 12.5586 86.375 10.4258C86.375 9.16016 86.6211 7.91406 87.1133 6.6875C87.6055 5.46094 88.2891 4.38672 89.1641 3.46484C90.0625 2.52734 91.1055 1.80859 92.293 1.30859C93.4883 0.808594 94.7578 0.558594 96.1016 0.558594C96.8281 0.558594 97.5547 0.660156 98.2812 0.863281C99.0156 1.06641 99.7656 1.375 100.531 1.78906ZM101.867 17.3164C102.359 15.2852 102.742 13.4922 103.016 11.9375C103.289 10.375 103.426 9.19922 103.426 8.41016C103.426 8.07422 103.375 7.82422 103.273 7.66016C103.18 7.48828 103.039 7.40234 102.852 7.40234C102.711 7.40234 102.316 7.60547 101.668 8.01172L101.574 8.07031L101.164 7.40234L101.34 7.27344C102.746 6.21875 103.656 5.69141 104.07 5.69141C104.453 5.69141 104.727 5.81641 104.891 6.06641C105.062 6.30859 105.148 6.71484 105.148 7.28516C105.148 7.78516 105.133 8.25391 105.102 8.69141C105.07 9.12109 105.023 9.49219 104.961 9.80469C106.031 8.03906 106.793 6.91406 107.246 6.42969C107.699 5.9375 108.121 5.69141 108.512 5.69141C108.777 5.69141 109 5.78906 109.18 5.98438C109.359 6.17969 109.449 6.41797 109.449 6.69922C109.449 6.87109 109.402 7.08203 109.309 7.33203C109.223 7.57422 109.035 7.98047 108.746 8.55078C108.605 8.35547 108.461 8.21094 108.312 8.11719C108.164 8.02344 108.016 7.97656 107.867 7.97656C107.578 7.97656 107.234 8.17969 106.836 8.58594C106.445 8.98438 105.828 9.78906 104.984 11C104.719 12.0781 104.496 13.1055 104.316 14.082C104.137 15.0508 104 15.9688 103.906 16.8359L101.867 17.3164ZM111.746 11.7148L111.863 11.6562C114.645 10.2344 116.035 9.13672 116.035 8.36328C116.035 7.94922 115.887 7.58984 115.59 7.28516C115.293 6.98047 114.945 6.82812 114.547 6.82812C113.93 6.82812 113.375 7.25391 112.883 8.10547C112.391 8.95703 112.012 10.1602 111.746 11.7148ZM115.273 10.9062L111.688 12.7578V12.875C111.688 13.8047 111.832 14.5117 112.121 14.9961C112.418 15.4805 112.844 15.7227 113.398 15.7227C113.727 15.7227 114.137 15.5781 114.629 15.2891C115.129 14.9922 115.766 14.5156 116.539 13.8594L116.949 14.5977C115.832 15.6289 114.941 16.3438 114.277 16.7422C113.621 17.1406 113.023 17.3398 112.484 17.3398C111.664 17.3398 111 16.9844 110.492 16.2734C109.984 15.5625 109.73 14.6289 109.73 13.4727C109.73 12.6523 109.863 11.7734 110.129 10.8359C110.402 9.89062 110.754 9.06641 111.184 8.36328C111.723 7.50391 112.34 6.83984 113.035 6.37109C113.73 5.90234 114.449 5.66797 115.191 5.66797C115.949 5.66797 116.582 5.91016 117.09 6.39453C117.605 6.87109 117.863 7.45312 117.863 8.14062C117.863 8.69531 117.707 9.15625 117.395 9.52344C117.09 9.88281 116.383 10.3438 115.273 10.9062ZM125.293 12.582C125.434 11.8711 125.574 11.0977 125.715 10.2617C125.863 9.41797 126.02 8.46484 126.184 7.40234C125.824 7.19922 125.531 7.0625 125.305 6.99219C125.086 6.91406 124.867 6.875 124.648 6.875C123.641 6.875 122.754 7.55469 121.988 8.91406C121.223 10.2734 120.84 11.8789 120.84 13.7305C120.84 14.3164 120.902 14.7578 121.027 15.0547C121.16 15.3438 121.359 15.4883 121.625 15.4883C121.898 15.4883 122.336 15.25 122.938 14.7734C123.539 14.2969 124.324 13.5664 125.293 12.582ZM129.383 15.0312L128.633 15.7578C128.078 16.3125 127.633 16.6992 127.297 16.918C126.969 17.1289 126.672 17.2344 126.406 17.2344C126.008 17.2344 125.691 17.0664 125.457 16.7305C125.223 16.3867 125.105 15.918 125.105 15.3242C125.105 15.0977 125.113 14.8633 125.129 14.6211C125.145 14.3789 125.168 14.1328 125.199 13.8828C123.73 15.3047 122.703 16.2188 122.117 16.625C121.539 17.0312 121.055 17.2344 120.664 17.2344C120.07 17.2344 119.621 16.9766 119.316 16.4609C119.02 15.9453 118.871 15.1797 118.871 14.1641C118.871 13.2422 118.988 12.3555 119.223 11.5039C119.465 10.6445 119.816 9.83594 120.277 9.07812C120.941 8.01562 121.703 7.20312 122.562 6.64062C123.43 6.07812 124.348 5.79688 125.316 5.79688C125.527 5.79688 125.758 5.82031 126.008 5.86719C126.258 5.90625 126.523 5.96875 126.805 6.05469L128.445 5.36328C127.984 7.56641 127.617 9.54297 127.344 11.293C127.07 13.043 126.934 14.1914 126.934 14.7383C126.934 14.9883 126.973 15.1758 127.051 15.3008C127.137 15.4258 127.266 15.4883 127.438 15.4883C127.562 15.4883 127.73 15.4102 127.941 15.2539C128.152 15.0977 128.504 14.7852 128.996 14.3164L129.383 15.0312ZM135.371 2.98438C135.223 3.50781 135.016 4.32812 134.75 5.44531C134.672 5.77344 134.613 6.01562 134.574 6.17188C135.035 6.17188 135.504 6.16797 135.98 6.16016C136.465 6.14453 136.973 6.125 137.504 6.10156L137.223 7.27344C137.012 7.26562 136.777 7.26172 136.52 7.26172C136.262 7.26172 135.848 7.26172 135.277 7.26172H134.34C133.973 8.87109 133.699 10.2773 133.52 11.4805C133.348 12.6836 133.262 13.6914 133.262 14.5039C133.262 14.8477 133.316 15.1172 133.426 15.3125C133.543 15.5078 133.703 15.6055 133.906 15.6055C134.062 15.6055 134.309 15.4805 134.645 15.2305C134.98 14.9805 135.438 14.5781 136.016 14.0234L136.426 14.7734C135.301 15.9297 134.527 16.668 134.105 16.9883C133.684 17.3008 133.328 17.457 133.039 17.457C132.5 17.457 132.07 17.2031 131.75 16.6953C131.43 16.1875 131.27 15.4961 131.27 14.6211C131.27 14.0508 131.359 13.2344 131.539 12.1719C131.719 11.1016 132.059 9.44531 132.559 7.20312C132.434 7.20312 132.27 7.20703 132.066 7.21484C131.871 7.22266 131.738 7.22656 131.668 7.22656H130.859L131 6.44141C131.359 6.42578 131.688 6.36328 131.984 6.25391C132.289 6.14453 132.594 5.97266 132.898 5.73828C132.969 5.45703 133.047 5.16406 133.133 4.85938C133.227 4.54688 133.332 4.21875 133.449 3.875L135.371 2.98438ZM143.762 6.80469C142.855 6.80469 142.074 7.42578 141.418 8.66797C140.762 9.91016 140.434 11.4414 140.434 13.2617C140.434 14.2227 140.598 14.957 140.926 15.4648C141.262 15.9727 141.746 16.2266 142.379 16.2266C143.332 16.2266 144.141 15.6172 144.805 14.3984C145.477 13.1719 145.812 11.6719 145.812 9.89844C145.812 8.84375 145.645 8.06641 145.309 7.56641C144.973 7.05859 144.457 6.80469 143.762 6.80469ZM144.266 5.66797C145.43 5.66797 146.312 6.03125 146.914 6.75781C147.523 7.47656 147.828 8.53125 147.828 9.92188C147.828 10.7188 147.672 11.5703 147.359 12.4766C147.047 13.375 146.625 14.1875 146.094 14.9141C145.523 15.6953 144.875 16.2969 144.148 16.7188C143.43 17.1328 142.672 17.3398 141.875 17.3398C140.828 17.3398 139.992 16.9609 139.367 16.2031C138.75 15.4453 138.441 14.4297 138.441 13.1562C138.441 12.2109 138.594 11.2891 138.898 10.3906C139.203 9.49219 139.641 8.67969 140.211 7.95312C140.773 7.22656 141.41 6.66406 142.121 6.26562C142.84 5.86719 143.555 5.66797 144.266 5.66797ZM149.797 17.3164C150.289 15.2852 150.672 13.4922 150.945 11.9375C151.219 10.375 151.355 9.19922 151.355 8.41016C151.355 8.07422 151.305 7.82422 151.203 7.66016C151.109 7.48828 150.969 7.40234 150.781 7.40234C150.641 7.40234 150.246 7.60547 149.598 8.01172L149.504 8.07031L149.094 7.40234L149.27 7.27344C150.676 6.21875 151.586 5.69141 152 5.69141C152.383 5.69141 152.656 5.81641 152.82 6.06641C152.992 6.30859 153.078 6.71484 153.078 7.28516C153.078 7.78516 153.062 8.25391 153.031 8.69141C153 9.12109 152.953 9.49219 152.891 9.80469C153.961 8.03906 154.723 6.91406 155.176 6.42969C155.629 5.9375 156.051 5.69141 156.441 5.69141C156.707 5.69141 156.93 5.78906 157.109 5.98438C157.289 6.17969 157.379 6.41797 157.379 6.69922C157.379 6.87109 157.332 7.08203 157.238 7.33203C157.152 7.57422 156.965 7.98047 156.676 8.55078C156.535 8.35547 156.391 8.21094 156.242 8.11719C156.094 8.02344 155.945 7.97656 155.797 7.97656C155.508 7.97656 155.164 8.17969 154.766 8.58594C154.375 8.98438 153.758 9.78906 152.914 11C152.648 12.0781 152.426 13.1055 152.246 14.082C152.066 15.0508 151.93 15.9688 151.836 16.8359L149.797 17.3164Z" fill="#333333"/>
</g>
<defs>
<filter id="filter0_d_126_142" x="0.707031" y="0.558594" width="160.672" height="24.9453" filterUnits="userSpaceOnUse" color-interpolation-filters="sRGB">
<feFlood flood-opacity="0" result="BackgroundImageFix"/>
<feColorMatrix in="SourceAlpha" type="matrix" values="0 0 0 0 0 0 0 0 0 0 0 0 0 0 0 0 0 0 127 0" result="hardAlpha"/>
<feOffset dy="4"/>
<feGaussianBlur stdDeviation="2"/>
<feComposite in2="hardAlpha" operator="out"/>
<feColorMatrix type="matrix" values="0 0 0 0 0 0 0 0 0 0 0 0 0 0 0 0 0 0 0.25 0"/>
<feBlend mode="hard-light" in2="BackgroundImageFix" result="effect1_dropShadow_126_142"/>
<feBlend mode="normal" in="SourceGraphic" in2="effect1_dropShadow_126_142" result="shape"/>
</filter>
</defs>
</svg>
