<svg width="8" height="5" viewBox="0 0 8 5" fill="none" xmlns="http://www.w3.org/2000/svg">
<path d="M0.158103 0.17321C0.263505 0.0577364 0.3883 -2.39271e-07 0.53249 -2.34739e-07C0.67668 -2.30206e-07 0.801335 0.0577364 0.906456 0.17321L3.99473 3.55658L7.09354 0.161663C7.19192 0.0538875 7.31489 -2.15363e-08 7.46245 -1.68977e-08C7.61001 -1.22591e-08 7.7365 0.0577366 7.8419 0.17321C7.9473 0.288683 8 0.425404 8 0.583371C8 0.741338 7.9473 0.877905 7.8419 0.99307L4.28985 4.87297C4.24769 4.91916 4.20202 4.95196 4.15283 4.97136C4.10365 4.99075 4.05094 5.0003 3.99473 4.99999C3.93852 4.99999 3.88581 4.99029 3.83663 4.97089C3.78744 4.95149 3.74177 4.91885 3.6996 4.87297L0.147562 0.981522C0.0491876 0.873747 -4.50325e-08 0.740876 -3.54308e-08 0.582909C-2.58291e-08 0.424941 0.0527005 0.288375 0.158103 0.17321Z" fill="#25262B"/>
</svg>
