<svg width="143" height="34" viewBox="0 0 143 34" fill="none" xmlns="http://www.w3.org/2000/svg">
<g filter="url(#filter0_d_126_141)">
<path d="M7.66406 19.3867C7.63281 18.8164 7.55469 18.0664 7.42969 17.1367C7.39844 16.9102 7.37891 16.75 7.37109 16.6562L5.97656 5.82812C5.875 5.01562 5.72656 4.5 5.53125 4.28125C5.34375 4.0625 5.00391 3.95312 4.51172 3.95312H4.24219L4.37109 3.0625C4.92578 3.13281 5.44141 3.1875 5.91797 3.22656C6.40234 3.26562 6.82812 3.28516 7.19531 3.28516C7.53906 3.28516 7.92969 3.27734 8.36719 3.26172C8.8125 3.23828 9.28125 3.21094 9.77344 3.17969L9.64453 3.95312H9.07031C8.69531 3.95312 8.40234 4.03516 8.19141 4.19922C7.98047 4.36328 7.875 4.58594 7.875 4.86719C7.875 5.04687 7.875 5.18359 7.875 5.27734C7.88281 5.36328 7.89062 5.44531 7.89844 5.52344L9.29297 16.3164L14.4258 6.47266L14.2031 5.19531C14.1328 4.74219 14 4.42187 13.8047 4.23437C13.6172 4.04687 13.3203 3.95312 12.9141 3.95312H12.7383H12.668L12.8437 3.0625C13.3281 3.10156 13.7891 3.13281 14.2266 3.15625C14.6719 3.17187 15.0664 3.17969 15.4102 3.17969C15.6758 3.17969 16.0117 3.17187 16.418 3.15625C16.832 3.14062 17.3828 3.11328 18.0703 3.07422L17.9297 3.95312H17.5195C17.0039 3.95312 16.6484 4.03125 16.4531 4.1875C16.2656 4.33594 16.1719 4.61719 16.1719 5.03125C16.1719 5.10156 16.1758 5.17969 16.1836 5.26562C16.1914 5.35156 16.2031 5.47266 16.2187 5.62891L17.8359 16.3633L22.9219 5.85156C23.0937 5.48437 23.2031 5.22266 23.25 5.06641C23.3047 4.91016 23.332 4.76953 23.332 4.64453C23.332 4.40234 23.2422 4.22656 23.0625 4.11719C22.8828 4.00781 22.5859 3.95312 22.1719 3.95312H21.8672H21.6914L21.8906 3.0625C22.5469 3.10937 23.0625 3.14062 23.4375 3.15625C23.8125 3.17187 24.1211 3.17969 24.3633 3.17969C24.6055 3.17969 24.9102 3.17187 25.2773 3.15625C25.6523 3.14062 26.1875 3.10937 26.8828 3.0625L26.707 3.92969C26.6836 3.92969 26.6523 3.92578 26.6133 3.91797C26.5742 3.91016 26.543 3.90625 26.5195 3.90625C25.7383 3.90625 25.0273 4.55859 24.3867 5.86328C24.332 5.97266 24.293 6.05469 24.2695 6.10937L19.1719 16.1641C19.125 16.2734 19.043 16.4414 18.9258 16.668C18.3789 17.7227 17.957 18.6289 17.6602 19.3867H16.3477C16.3008 18.7695 16.2031 18.0156 16.0547 17.125V17.1016L14.7305 8.41797L9.89062 17.5352C9.69531 17.8867 9.52344 18.2109 9.375 18.5078C9.23437 18.7969 9.10156 19.0898 8.97656 19.3867H7.66406ZM26.8242 13.7148L26.9414 13.6562C29.7227 12.2344 31.1133 11.1367 31.1133 10.3633C31.1133 9.94922 30.9648 9.58984 30.668 9.28516C30.3711 8.98047 30.0234 8.82812 29.625 8.82812C29.0078 8.82812 28.4531 9.25391 27.9609 10.1055C27.4687 10.957 27.0898 12.1602 26.8242 13.7148ZM30.3516 12.9062L26.7656 14.7578V14.875C26.7656 15.8047 26.9102 16.5117 27.1992 16.9961C27.4961 17.4805 27.9219 17.7227 28.4766 17.7227C28.8047 17.7227 29.2148 17.5781 29.707 17.2891C30.207 16.9922 30.8437 16.5156 31.6172 15.8594L32.0273 16.5977C30.9102 17.6289 30.0195 18.3437 29.3555 18.7422C28.6992 19.1406 28.1016 19.3398 27.5625 19.3398C26.7422 19.3398 26.0781 18.9844 25.5703 18.2734C25.0625 17.5625 24.8086 16.6289 24.8086 15.4727C24.8086 14.6523 24.9414 13.7734 25.207 12.8359C25.4805 11.8906 25.832 11.0664 26.2617 10.3633C26.8008 9.50391 27.418 8.83984 28.1133 8.37109C28.8086 7.90234 29.5273 7.66797 30.2695 7.66797C31.0273 7.66797 31.6602 7.91016 32.168 8.39453C32.6836 8.87109 32.9414 9.45312 32.9414 10.1406C32.9414 10.6953 32.7852 11.1562 32.4727 11.5234C32.168 11.8828 31.4609 12.3437 30.3516 12.9062ZM36.5859 17.1953C36.8359 17.4844 37.1055 17.7031 37.3945 17.8516C37.6914 17.9922 38.0039 18.0625 38.332 18.0625C39.3867 18.0625 40.2617 17.4492 40.957 16.2227C41.6602 14.9961 42.0117 13.4258 42.0117 11.5117C42.0117 10.7539 41.9102 10.1797 41.707 9.78906C41.5117 9.39844 41.2187 9.20312 40.8281 9.20312C40.5312 9.20312 40.1094 9.38672 39.5625 9.75391C39.0156 10.1211 38.2695 10.7227 37.3242 11.5586L36.7969 14.9687C36.7187 15.4453 36.6641 15.8594 36.6328 16.2109C36.6016 16.5625 36.5859 16.8906 36.5859 17.1953ZM39.1992 0.707031C39.0117 1.59766 38.8437 2.42969 38.6953 3.20312C38.5469 3.97656 38.4258 4.64062 38.332 5.19531L37.4531 10.3398L38.7187 9.17969C39.4687 8.50781 40.043 8.06641 40.4414 7.85547C40.8477 7.63672 41.25 7.52734 41.6484 7.52734C42.4141 7.52734 43.0039 7.84766 43.418 8.48828C43.8398 9.12109 44.0508 10.0156 44.0508 11.1719C44.0508 13.3594 43.3906 15.2695 42.0703 16.9023C40.75 18.5273 39.2344 19.3398 37.5234 19.3398C36.8672 19.3398 36.2891 19.1953 35.7891 18.9062C35.2969 18.6094 34.8672 18.1523 34.5 17.5352L36.7266 3.88281C36.7734 3.60156 36.8086 3.37109 36.832 3.19141C36.8555 3.01172 36.8672 2.875 36.8672 2.78125C36.8672 2.52344 36.8047 2.33984 36.6797 2.23047C36.5547 2.11328 36.3555 2.05469 36.082 2.05469C35.9336 2.05469 35.8203 2.05859 35.7422 2.06641C35.6641 2.07422 35.5859 2.08594 35.5078 2.10156L35.4375 1.45703C35.9844 1.37891 36.5625 1.28125 37.1719 1.16406C37.7891 1.03906 38.4648 0.886718 39.1992 0.707031ZM59.4609 17.6523C60.0547 17.7617 60.6016 17.8437 61.1016 17.8984C61.6016 17.9453 62.0703 17.9687 62.5078 17.9687C64.8203 17.9687 66.5937 17.2812 67.8281 15.9062C69.0625 14.5234 69.6797 12.5469 69.6797 9.97656C69.6797 8.04687 69.1797 6.60156 68.1797 5.64062C67.1875 4.67187 65.6875 4.1875 63.6797 4.1875C63.4453 4.1875 63.168 4.19922 62.8477 4.22266C62.5273 4.23828 62.1328 4.26953 61.6641 4.31641C61.0312 7.73828 60.5508 10.4375 60.2227 12.4141C59.9023 14.3828 59.6484 16.1289 59.4609 17.6523ZM55.4766 18.2266H55.9336C56.418 18.2266 56.7617 18.0937 56.9648 17.8281C57.1758 17.5625 57.3906 16.7852 57.6094 15.4961L59.2617 5.80469C59.293 5.59375 59.3164 5.40625 59.332 5.24219C59.3477 5.07812 59.3555 4.94531 59.3555 4.84375C59.3555 4.5 59.2578 4.25391 59.0625 4.10547C58.875 3.95703 58.5586 3.88281 58.1133 3.88281H57.8789L58.043 3.08594C58.5273 3.13281 58.9687 3.16797 59.3672 3.19141C59.7656 3.21484 60.1328 3.22656 60.4687 3.22656C60.6719 3.22656 61.1797 3.20312 61.9922 3.15625C62.8125 3.10937 63.5352 3.08594 64.1602 3.08594C66.7383 3.08594 68.6914 3.64453 70.0195 4.76172C71.3477 5.87109 72.0117 7.50391 72.0117 9.66016C72.0117 10.8398 71.7852 12.0273 71.332 13.2227C70.8867 14.4102 70.2891 15.4258 69.5391 16.2695C68.6953 17.1992 67.6992 17.8984 66.5508 18.3672C65.4023 18.8359 64.1172 19.0703 62.6953 19.0703C62.2656 19.0703 61.5273 19.0352 60.4805 18.9648C59.4336 18.8945 58.6055 18.8594 57.9961 18.8594C57.8477 18.8594 57.5508 18.8711 57.1055 18.8945C56.668 18.918 56.0742 18.9531 55.3242 19L55.4766 18.2266ZM75.4336 13.7148L75.5508 13.6562C78.332 12.2344 79.7227 11.1367 79.7227 10.3633C79.7227 9.94922 79.5742 9.58984 79.2773 9.28516C78.9805 8.98047 78.6328 8.82812 78.2344 8.82812C77.6172 8.82812 77.0625 9.25391 76.5703 10.1055C76.0781 10.957 75.6992 12.1602 75.4336 13.7148ZM78.9609 12.9062L75.375 14.7578V14.875C75.375 15.8047 75.5195 16.5117 75.8086 16.9961C76.1055 17.4805 76.5312 17.7227 77.0859 17.7227C77.4141 17.7227 77.8242 17.5781 78.3164 17.2891C78.8164 16.9922 79.4531 16.5156 80.2266 15.8594L80.6367 16.5977C79.5195 17.6289 78.6289 18.3437 77.9648 18.7422C77.3086 19.1406 76.7109 19.3398 76.1719 19.3398C75.3516 19.3398 74.6875 18.9844 74.1797 18.2734C73.6719 17.5625 73.418 16.6289 73.418 15.4727C73.418 14.6523 73.5508 13.7734 73.8164 12.8359C74.0898 11.8906 74.4414 11.0664 74.8711 10.3633C75.4102 9.50391 76.0273 8.83984 76.7227 8.37109C77.418 7.90234 78.1367 7.66797 78.8789 7.66797C79.6367 7.66797 80.2695 7.91016 80.7773 8.39453C81.293 8.87109 81.5508 9.45312 81.5508 10.1406C81.5508 10.6953 81.3945 11.1562 81.082 11.5234C80.7773 11.8828 80.0703 12.3437 78.9609 12.9062ZM89.4727 9.61328L88.8164 10.2344L88.7344 10.1641C87.8437 9.35156 87.168 8.94531 86.707 8.94531C86.2695 8.94531 85.9062 9.07812 85.6172 9.34375C85.3359 9.60156 85.1953 9.93359 85.1953 10.3398C85.1953 10.9648 85.7383 11.7305 86.8242 12.6367C86.957 12.7461 87.0547 12.8281 87.1172 12.8828C87.9219 13.5703 88.4492 14.1094 88.6992 14.5C88.957 14.8906 89.0859 15.3125 89.0859 15.7656C89.0859 16.6328 88.6562 17.4414 87.7969 18.1914C86.9453 18.9414 85.9727 19.3164 84.8789 19.3164C84.1055 19.3164 83.4648 19.1836 82.957 18.918C82.4492 18.6523 82.1953 18.3281 82.1953 17.9453C82.1953 17.7969 82.2187 17.668 82.2656 17.5586C82.3125 17.4492 82.418 17.3125 82.582 17.1484L83.2031 16.5742C83.7187 17.1445 84.1484 17.543 84.4922 17.7695C84.8359 17.9961 85.1719 18.1094 85.5 18.1094C85.9922 18.1094 86.4102 17.9453 86.7539 17.6172C87.1055 17.2812 87.2812 16.8867 87.2812 16.4336C87.2812 15.918 86.7461 15.1836 85.6758 14.2305C85.3945 13.9805 85.1797 13.7852 85.0312 13.6445C84.4062 13.082 83.9766 12.6133 83.7422 12.2383C83.5078 11.8633 83.3906 11.4844 83.3906 11.1016C83.3906 10.2656 83.8125 9.48437 84.6562 8.75781C85.5078 8.03125 86.4375 7.66797 87.4453 7.66797C88.1172 7.66797 88.6758 7.79297 89.1211 8.04297C89.5742 8.29297 89.8008 8.58594 89.8008 8.92187C89.8008 9.05469 89.7734 9.17969 89.7187 9.29687C89.6641 9.40625 89.582 9.51172 89.4727 9.61328ZM95.8594 16.3398L96.2695 17.0312C95.3086 18.0234 94.6406 18.6562 94.2656 18.9297C93.8906 19.2031 93.5586 19.3398 93.2695 19.3398C92.8555 19.3398 92.5234 19.168 92.2734 18.8242C92.0234 18.4727 91.8984 18.0039 91.8984 17.418C91.8984 16.6836 92.1289 15.457 92.5898 13.7383C93.0586 12.0195 93.293 10.7812 93.293 10.0234C93.293 9.82812 93.2461 9.67187 93.1523 9.55469C93.0586 9.4375 92.9375 9.37891 92.7891 9.37891C92.6641 9.37891 92.5 9.42969 92.2969 9.53125C92.0937 9.63281 91.8398 9.78906 91.5352 10L91.1836 9.37891L92.7422 8.24219C93.0391 8.02344 93.2969 7.86719 93.5156 7.77344C93.7344 7.67187 93.9414 7.62109 94.1367 7.62109C94.5039 7.62109 94.793 7.77344 95.0039 8.07812C95.2227 8.375 95.332 8.78516 95.332 9.30859C95.332 9.87891 95.1289 10.9961 94.7227 12.6602C94.6289 13.0352 94.5586 13.3164 94.5117 13.5039C94.293 14.3867 94.125 15.1172 94.0078 15.6953C93.8984 16.2734 93.8437 16.6719 93.8437 16.8906C93.8437 17.0859 93.8867 17.2461 93.9727 17.3711C94.0586 17.4961 94.168 17.5586 94.3008 17.5586C94.4258 17.5586 94.5898 17.4805 94.793 17.3242C94.9961 17.168 95.3516 16.8398 95.8594 16.3398ZM95.7656 1.23437L96.4336 1.98437C96.6211 2.17969 96.75 2.35547 96.8203 2.51172C96.8984 2.66016 96.9375 2.8125 96.9375 2.96875C96.9375 3.13281 96.8789 3.28906 96.7617 3.4375C96.6523 3.58594 96.4883 3.72656 96.2695 3.85937L95.2383 4.43359L94.4883 3.54297C94.332 3.34766 94.2305 3.19531 94.1836 3.08594C94.1367 2.96875 94.1133 2.84766 94.1133 2.72266C94.1133 2.54297 94.1602 2.38672 94.2539 2.25391C94.3477 2.11328 94.5078 1.97656 94.7344 1.84375L95.7656 1.23437ZM100.887 19.1875C99.7461 19.7734 98.9648 20.2617 98.543 20.6523C98.1211 21.0508 97.9102 21.4687 97.9102 21.9062C97.9102 22.4687 98.2578 22.9531 98.9531 23.3594C99.6484 23.7656 100.508 23.9687 101.531 23.9687C102.453 23.9687 103.219 23.7617 103.828 23.3477C104.445 22.9414 104.754 22.4375 104.754 21.8359C104.754 21.2422 103.801 20.5156 101.895 19.6562C101.465 19.4609 101.129 19.3047 100.887 19.1875ZM102.832 8.55859C102.082 8.55859 101.453 8.98047 100.945 9.82422C100.445 10.6602 100.195 11.7031 100.195 12.9531C100.195 13.6016 100.332 14.1016 100.605 14.4531C100.887 14.7969 101.285 14.9687 101.801 14.9687C102.598 14.9687 103.25 14.5625 103.758 13.75C104.273 12.9375 104.531 11.9023 104.531 10.6445C104.531 9.98828 104.383 9.47656 104.086 9.10937C103.789 8.74219 103.371 8.55859 102.832 8.55859ZM108.234 7.79687L107.73 9.10937C107.715 9.10937 107.691 9.11328 107.66 9.12109C107.355 9.14453 107.121 9.15625 106.957 9.15625C106.754 9.15625 106.285 9.10156 105.551 8.99219H105.516C105.828 9.27344 106.055 9.58203 106.195 9.91797C106.336 10.2539 106.406 10.6641 106.406 11.1484C106.406 12.0625 106.164 12.875 105.68 13.5859C105.203 14.2969 104.535 14.8281 103.676 15.1797C103.465 15.2656 103.176 15.3867 102.809 15.543C101.113 16.2305 100.266 16.6797 100.266 16.8906C100.266 17.0937 100.707 17.3672 101.59 17.7109C101.895 17.8281 102.133 17.9219 102.305 17.9922C104.156 18.75 105.34 19.3477 105.855 19.7852C106.379 20.2305 106.641 20.7539 106.641 21.3555C106.641 22.3477 106.016 23.2461 104.766 24.0508C103.523 24.8633 102.07 25.2695 100.406 25.2695C99.1094 25.2695 98.0508 24.9805 97.2305 24.4023C96.4023 23.8242 95.9883 23.0937 95.9883 22.2109C95.9883 21.625 96.293 21.0703 96.9023 20.5469C97.5117 20.0312 98.5586 19.4453 100.043 18.7891C99.4023 18.5 98.9375 18.2383 98.6484 18.0039C98.3672 17.7617 98.2266 17.5195 98.2266 17.2773C98.2266 17.043 98.3906 16.8047 98.7187 16.5625C99.0469 16.3203 99.7617 15.957 100.863 15.4727C100.816 15.4805 100.766 15.4883 100.711 15.4961C100.664 15.4961 100.586 15.4961 100.477 15.4961C99.7812 15.4961 99.2344 15.2656 98.8359 14.8047C98.4453 14.3359 98.25 13.6875 98.25 12.8594C98.25 11.4297 98.7227 10.207 99.668 9.19141C100.621 8.17578 101.762 7.66797 103.09 7.66797C103.52 7.66797 104.098 7.73437 104.824 7.86719C105.551 7.99219 106.062 8.05469 106.359 8.05469C106.594 8.05469 106.863 8.03516 107.168 7.99609C107.48 7.94922 107.836 7.88281 108.234 7.79687ZM112.383 11.0312L114.281 9.17969C114.945 8.54687 115.445 8.12891 115.781 7.92578C116.125 7.72266 116.449 7.62109 116.754 7.62109C117.27 7.62109 117.687 7.84766 118.008 8.30078C118.336 8.75391 118.5 9.35156 118.5 10.0937C118.5 10.8516 118.309 12.0234 117.926 13.6094C117.543 15.1875 117.352 16.3125 117.352 16.9844C117.352 17.1875 117.391 17.3437 117.469 17.4531C117.547 17.5547 117.66 17.6055 117.809 17.6055C117.879 17.6055 117.965 17.5781 118.066 17.5234C118.176 17.4609 118.281 17.3789 118.383 17.2773L119.273 16.4102L119.684 17.0312L118.406 18.332C118.102 18.6445 117.797 18.8906 117.492 19.0703C117.195 19.25 116.934 19.3398 116.707 19.3398C116.316 19.3398 115.996 19.1719 115.746 18.8359C115.504 18.4922 115.383 18.043 115.383 17.4883C115.383 16.8242 115.582 15.6562 115.98 13.9844C116.379 12.3047 116.578 11.082 116.578 10.3164C116.578 10.0273 116.516 9.79687 116.391 9.625C116.273 9.44531 116.113 9.35547 115.91 9.35547C115.605 9.35547 114.672 10.0781 113.109 11.5234C112.695 11.9062 112.371 12.207 112.137 12.4258L111.398 16.5508C111.383 16.6289 111.359 16.7461 111.328 16.9023C111.164 17.7383 111.066 18.3789 111.035 18.8242L108.949 19.3398C109.465 17.0977 109.871 15.1484 110.168 13.4922C110.473 11.8359 110.625 10.75 110.625 10.2344C110.625 9.92187 110.59 9.69922 110.52 9.56641C110.449 9.42578 110.336 9.35547 110.18 9.35547C110.086 9.35547 109.93 9.41016 109.711 9.51953C109.5 9.62891 109.23 9.78906 108.902 10L108.586 9.37891C108.672 9.30859 108.797 9.20703 108.961 9.07422C110.164 8.10547 110.969 7.62109 111.375 7.62109C111.766 7.62109 112.055 7.76953 112.242 8.06641C112.43 8.35547 112.523 8.80859 112.523 9.42578C112.523 9.64453 112.512 9.89062 112.488 10.1641C112.465 10.4375 112.43 10.7266 112.383 11.0312ZM122.848 13.7148L122.965 13.6562C125.746 12.2344 127.137 11.1367 127.137 10.3633C127.137 9.94922 126.988 9.58984 126.691 9.28516C126.395 8.98047 126.047 8.82812 125.648 8.82812C125.031 8.82812 124.477 9.25391 123.984 10.1055C123.492 10.957 123.113 12.1602 122.848 13.7148ZM126.375 12.9062L122.789 14.7578V14.875C122.789 15.8047 122.934 16.5117 123.223 16.9961C123.52 17.4805 123.945 17.7227 124.5 17.7227C124.828 17.7227 125.238 17.5781 125.73 17.2891C126.23 16.9922 126.867 16.5156 127.641 15.8594L128.051 16.5977C126.934 17.6289 126.043 18.3437 125.379 18.7422C124.723 19.1406 124.125 19.3398 123.586 19.3398C122.766 19.3398 122.102 18.9844 121.594 18.2734C121.086 17.5625 120.832 16.6289 120.832 15.4727C120.832 14.6523 120.965 13.7734 121.23 12.8359C121.504 11.8906 121.855 11.0664 122.285 10.3633C122.824 9.50391 123.441 8.83984 124.137 8.37109C124.832 7.90234 125.551 7.66797 126.293 7.66797C127.051 7.66797 127.684 7.91016 128.191 8.39453C128.707 8.87109 128.965 9.45312 128.965 10.1406C128.965 10.6953 128.809 11.1562 128.496 11.5234C128.191 11.8828 127.484 12.3437 126.375 12.9062ZM130.523 19.3164C131.016 17.2852 131.398 15.4922 131.672 13.9375C131.945 12.375 132.082 11.1992 132.082 10.4102C132.082 10.0742 132.031 9.82422 131.93 9.66016C131.836 9.48828 131.695 9.40234 131.508 9.40234C131.367 9.40234 130.973 9.60547 130.324 10.0117L130.23 10.0703L129.82 9.40234L129.996 9.27344C131.402 8.21875 132.312 7.69141 132.727 7.69141C133.109 7.69141 133.383 7.81641 133.547 8.06641C133.719 8.30859 133.805 8.71484 133.805 9.28516C133.805 9.78516 133.789 10.2539 133.758 10.6914C133.727 11.1211 133.68 11.4922 133.617 11.8047C134.687 10.0391 135.449 8.91406 135.902 8.42969C136.355 7.9375 136.777 7.69141 137.168 7.69141C137.434 7.69141 137.656 7.78906 137.836 7.98437C138.016 8.17969 138.105 8.41797 138.105 8.69922C138.105 8.87109 138.059 9.08203 137.965 9.33203C137.879 9.57422 137.691 9.98047 137.402 10.5508C137.262 10.3555 137.117 10.2109 136.969 10.1172C136.82 10.0234 136.672 9.97656 136.523 9.97656C136.234 9.97656 135.891 10.1797 135.492 10.5859C135.102 10.9844 134.484 11.7891 133.641 13C133.375 14.0781 133.152 15.1055 132.973 16.082C132.793 17.0508 132.656 17.9687 132.562 18.8359L130.523 19.3164Z" fill="#333333"/>
</g>
<defs>
<filter id="filter0_d_126_141" x="0.242188" y="0.707031" width="141.863" height="32.5625" filterUnits="userSpaceOnUse" color-interpolation-filters="sRGB">
<feFlood flood-opacity="0" result="BackgroundImageFix"/>
<feColorMatrix in="SourceAlpha" type="matrix" values="0 0 0 0 0 0 0 0 0 0 0 0 0 0 0 0 0 0 127 0" result="hardAlpha"/>
<feOffset dy="4"/>
<feGaussianBlur stdDeviation="2"/>
<feComposite in2="hardAlpha" operator="out"/>
<feColorMatrix type="matrix" values="0 0 0 0 0 0 0 0 0 0 0 0 0 0 0 0 0 0 0.25 0"/>
<feBlend mode="hard-light" in2="BackgroundImageFix" result="effect1_dropShadow_126_141"/>
<feBlend mode="normal" in="SourceGraphic" in2="effect1_dropShadow_126_141" result="shape"/>
</filter>
</defs>
</svg>
