<svg width="49" height="28" viewBox="0 0 49 28" fill="none" xmlns="http://www.w3.org/2000/svg">
<g filter="url(#filter0_d_126_141)">
<path d="M7.66406 19.3867C7.63281 18.8164 7.55469 18.0664 7.42969 17.1367C7.39844 16.9102 7.37891 16.75 7.37109 16.6562L5.97656 5.82812C5.875 5.01562 5.72656 4.5 5.53125 4.28125C5.34375 4.0625 5.00391 3.95312 4.51172 3.95312H4.24219L4.37109 3.0625C4.92578 3.13281 5.44141 3.1875 5.91797 3.22656C6.40234 3.26562 6.82812 3.28516 7.19531 3.28516C7.53906 3.28516 7.92969 3.27734 8.36719 3.26172C8.8125 3.23828 9.28125 3.21094 9.77344 3.17969L9.64453 3.95312H9.07031C8.69531 3.95312 8.40234 4.03516 8.19141 4.19922C7.98047 4.36328 7.875 4.58594 7.875 4.86719C7.875 5.04687 7.875 5.18359 7.875 5.27734C7.88281 5.36328 7.89062 5.44531 7.89844 5.52344L9.29297 16.3164L14.4258 6.47266L14.2031 5.19531C14.1328 4.74219 14 4.42187 13.8047 4.23437C13.6172 4.04687 13.3203 3.95312 12.9141 3.95312H12.7383H12.668L12.8437 3.0625C13.3281 3.10156 13.7891 3.13281 14.2266 3.15625C14.6719 3.17187 15.0664 3.17969 15.4102 3.17969C15.6758 3.17969 16.0117 3.17187 16.418 3.15625C16.832 3.14062 17.3828 3.11328 18.0703 3.07422L17.9297 3.95312H17.5195C17.0039 3.95312 16.6484 4.03125 16.4531 4.1875C16.2656 4.33594 16.1719 4.61719 16.1719 5.03125C16.1719 5.10156 16.1758 5.17969 16.1836 5.26562C16.1914 5.35156 16.2031 5.47266 16.2187 5.62891L17.8359 16.3633L22.9219 5.85156C23.0937 5.48437 23.2031 5.22266 23.25 5.06641C23.3047 4.91016 23.332 4.76953 23.332 4.64453C23.332 4.40234 23.2422 4.22656 23.0625 4.11719C22.8828 4.00781 22.5859 3.95312 22.1719 3.95312H21.8672H21.6914L21.8906 3.0625C22.5469 3.10937 23.0625 3.14062 23.4375 3.15625C23.8125 3.17187 24.1211 3.17969 24.3633 3.17969C24.6055 3.17969 24.9102 3.17187 25.2773 3.15625C25.6523 3.14062 26.1875 3.10937 26.8828 3.0625L26.707 3.92969C26.6836 3.92969 26.6523 3.92578 26.6133 3.91797C26.5742 3.91016 26.543 3.90625 26.5195 3.90625C25.7383 3.90625 25.0273 4.55859 24.3867 5.86328C24.332 5.97266 24.293 6.05469 24.2695 6.10937L19.1719 16.1641C19.125 16.2734 19.043 16.4414 18.9258 16.668C18.3789 17.7227 17.957 18.6289 17.6602 19.3867H16.3477C16.3008 18.7695 16.2031 18.0156 16.0547 17.125V17.1016L14.7305 8.41797L9.89062 17.5352C9.69531 17.8867 9.52344 18.2109 9.375 18.5078C9.23437 18.7969 9.10156 19.0898 8.97656 19.3867H7.66406ZM26.8242 13.7148L26.9414 13.6562C29.7227 12.2344 31.1133 11.1367 31.1133 10.3633C31.1133 9.94922 30.9648 9.58984 30.668 9.28516C30.3711 8.98047 30.0234 8.82812 29.625 8.82812C29.0078 8.82812 28.4531 9.25391 27.9609 10.1055C27.4687 10.957 27.0898 12.1602 26.8242 13.7148ZM30.3516 12.9062L26.7656 14.7578V14.875C26.7656 15.8047 26.9102 16.5117 27.1992 16.9961C27.4961 17.4805 27.9219 17.7227 28.4766 17.7227C28.8047 17.7227 29.2148 17.5781 29.707 17.2891C30.207 16.9922 30.8437 16.5156 31.6172 15.8594L32.0273 16.5977C30.9102 17.6289 30.0195 18.3437 29.3555 18.7422C28.6992 19.1406 28.1016 19.3398 27.5625 19.3398C26.7422 19.3398 26.0781 18.9844 25.5703 18.2734C25.0625 17.5625 24.8086 16.6289 24.8086 15.4727C24.8086 14.6523 24.9414 13.7734 25.207 12.8359C25.4805 11.8906 25.832 11.0664 26.2617 10.3633C26.8008 9.50391 27.418 8.83984 28.1133 8.37109C28.8086 7.90234 29.5273 7.66797 30.2695 7.66797C31.0273 7.66797 31.6602 7.91016 32.168 8.39453C32.6836 8.87109 32.9414 9.45312 32.9414 10.1406C32.9414 10.6953 32.7852 11.1562 32.4727 11.5234C32.168 11.8828 31.4609 12.3437 30.3516 12.9062ZM36.5859 17.1953C36.8359 17.4844 37.1055 17.7031 37.3945 17.8516C37.6914 17.9922 38.0039 18.0625 38.332 18.0625C39.3867 18.0625 40.2617 17.4492 40.957 16.2227C41.6602 14.9961 42.0117 13.4258 42.0117 11.5117C42.0117 10.7539 41.9102 10.1797 41.707 9.78906C41.5117 9.39844 41.2187 9.20312 40.8281 9.20312C40.5312 9.20312 40.1094 9.38672 39.5625 9.75391C39.0156 10.1211 38.2695 10.7227 37.3242 11.5586L36.7969 14.9687C36.7187 15.4453 36.6641 15.8594 36.6328 16.2109C36.6016 16.5625 36.5859 16.8906 36.5859 17.1953ZM39.1992 0.707031C39.0117 1.59766 38.8437 2.42969 38.6953 3.20312C38.5469 3.97656 38.4258 4.64062 38.332 5.19531L37.4531 10.3398L38.7187 9.17969C39.4687 8.50781 40.043 8.06641 40.4414 7.85547C40.8477 7.63672 41.25 7.52734 41.6484 7.52734C42.4141 7.52734 43.0039 7.84766 43.418 8.48828C43.8398 9.12109 44.0508 10.0156 44.0508 11.1719C44.0508 13.3594 43.3906 15.2695 42.0703 16.9023C40.75 18.5273 39.2344 19.3398 37.5234 19.3398C36.8672 19.3398 36.2891 19.1953 35.7891 18.9062C35.2969 18.6094 34.8672 18.1523 34.5 17.5352L36.7266 3.88281C36.7734 3.60156 36.8086 3.37109 36.832 3.19141C36.8555 3.01172 36.8672 2.875 36.8672 2.78125C36.8672 2.52344 36.8047 2.33984 36.6797 2.23047C36.5547 2.11328 36.3555 2.05469 36.082 2.05469C35.9336 2.05469 35.8203 2.05859 35.7422 2.06641C35.6641 2.07422 35.5859 2.08594 35.5078 2.10156L35.4375 1.45703C35.9844 1.37891 36.5625 1.28125 37.1719 1.16406C37.7891 1.03906 38.4648 0.886718 39.1992 0.707031Z" fill="#333333"/>
</g>
<defs>
<filter id="filter0_d_126_141" x="0.242188" y="0.707031" width="47.8086" height="26.6797" filterUnits="userSpaceOnUse" color-interpolation-filters="sRGB">
<feFlood flood-opacity="0" result="BackgroundImageFix"/>
<feColorMatrix in="SourceAlpha" type="matrix" values="0 0 0 0 0 0 0 0 0 0 0 0 0 0 0 0 0 0 127 0" result="hardAlpha"/>
<feOffset dy="4"/>
<feGaussianBlur stdDeviation="2"/>
<feComposite in2="hardAlpha" operator="out"/>
<feColorMatrix type="matrix" values="0 0 0 0 0 0 0 0 0 0 0 0 0 0 0 0 0 0 0.25 0"/>
<feBlend mode="hard-light" in2="BackgroundImageFix" result="effect1_dropShadow_126_141"/>
<feBlend mode="normal" in="SourceGraphic" in2="effect1_dropShadow_126_141" result="shape"/>
</filter>
</defs>
</svg>
