<svg width="412" height="147" viewBox="0 0 412 147" fill="none" xmlns="http://www.w3.org/2000/svg">
<g filter="url(#filter0_d_126_143)">
<path d="M10.4 95.768C7.456 95.768 5.984 94.296 5.984 91.352C5.984 91.032 6.016 90.712 6.08 90.392C6.08 90.072 6.112 89.752 6.176 89.432C6.688 87.128 7.776 84.92 9.44 82.808C11.104 80.696 13.056 78.712 15.296 76.856C17.536 75.064 19.808 73.368 22.112 71.768C24.48 70.232 26.592 68.888 28.448 67.736C29.536 67.032 30.912 66.168 32.576 65.144C34.304 64.12 36.128 63 38.048 61.784C39.968 60.632 41.792 59.544 43.52 58.52C44.224 56.728 44.704 54.744 44.96 52.568C45.28 50.328 45.44 48.248 45.44 46.328V45.56C44.672 46.712 43.552 48.056 42.08 49.592C40.608 51.128 38.944 52.632 37.088 54.104C35.232 55.512 33.408 56.696 31.616 57.656C29.824 58.616 28.192 59.096 26.72 59.096C25.696 59.096 24.992 58.776 24.608 58.136C24.288 57.496 24.128 56.76 24.128 55.928C24.128 53.688 24.608 51.384 25.568 49.016C26.528 46.648 27.616 44.472 28.832 42.488C30.048 40.44 31.136 38.744 32.096 37.4C33.056 35.992 33.536 35.192 33.536 35C33.536 34.936 33.472 34.904 33.344 34.904C33.088 34.904 32.8 34.904 32.48 34.904C32.224 34.904 32.192 34.712 32.384 34.328C33.28 33.24 34.4 32.28 35.744 31.448C37.088 30.616 38.368 30.2 39.584 30.2C40.032 30.2 40.544 30.392 41.12 30.776C41.76 31.096 42.08 31.512 42.08 32.024C42.08 32.344 41.888 32.696 41.504 33.08C41.056 33.528 40.512 34.04 39.872 34.616C39.296 35.192 38.496 36.088 37.472 37.304C36.896 37.944 36.096 39 35.072 40.472C34.048 41.88 32.992 43.512 31.904 45.368C30.816 47.16 29.888 48.952 29.12 50.744C28.416 52.472 28.064 53.976 28.064 55.256C28.064 55.448 28.064 55.672 28.064 55.928C28.128 56.12 28.288 56.312 28.544 56.504C29.44 56.568 30.56 56.184 31.904 55.352C33.248 54.456 34.656 53.336 36.128 51.992C37.664 50.584 39.104 49.112 40.448 47.576C41.856 45.976 43.072 44.504 44.096 43.16C45.184 41.752 45.952 40.632 46.4 39.8C47.104 38.52 48.16 37.88 49.568 37.88C50.592 37.88 51.168 38.104 51.296 38.552C51.488 39 51.584 39.608 51.584 40.376C51.584 42.872 51.424 45.08 51.104 47C50.848 48.856 50.336 50.968 49.568 53.336C53.664 49.816 57.568 46.104 61.28 42.2C61.344 42.072 61.472 41.912 61.664 41.72C61.92 41.528 62.112 41.432 62.24 41.432C62.624 41.432 62.816 41.624 62.816 42.008C62.816 42.52 62.624 43.032 62.24 43.544C61.664 44.248 61.024 44.952 60.32 45.656C59.68 46.36 59.04 47.064 58.4 47.768C56.864 49.432 55.296 51.096 53.696 52.76C52.096 54.36 50.4 55.896 48.608 57.368C45.664 65.112 41.792 71.896 36.992 77.72C32.256 83.608 26.272 88.632 19.04 92.792C17.824 93.496 16.448 94.168 14.912 94.808C13.376 95.448 11.872 95.768 10.4 95.768ZM12.608 93.368C14.336 93.368 16.224 92.728 18.272 91.448C20.256 90.232 22.24 88.696 24.224 86.84C26.208 84.984 28 83.128 29.6 81.272C31.264 79.48 32.576 77.976 33.536 76.76C34.624 75.288 35.68 73.816 36.704 72.344C37.728 70.936 38.688 69.464 39.584 67.928C40.928 65.688 42.048 63.512 42.944 61.4C43.008 61.208 42.944 61.08 42.752 61.016C42.624 61.016 42.56 61.016 42.56 61.016C40.576 62.424 38.56 63.8 36.512 65.144C34.528 66.552 32.512 67.928 30.464 69.272C29.44 69.912 28.064 70.84 26.336 72.056C24.608 73.336 22.752 74.744 20.768 76.28C18.784 77.88 16.896 79.512 15.104 81.176C13.312 82.904 11.84 84.568 10.688 86.168C9.536 87.832 8.96 89.304 8.96 90.584C8.96 91.608 9.376 92.312 10.208 92.696C10.976 93.144 11.776 93.368 12.608 93.368ZM75.4438 60.056C73.5877 60.056 72.2117 59.32 71.3157 57.848C70.4197 56.312 69.9717 54.744 69.9717 53.144C69.9717 50.968 70.5477 48.632 71.6997 46.136C72.8517 43.576 74.2277 41.144 75.8278 38.84C77.4917 36.536 78.9637 34.648 80.2438 33.176C80.5638 32.792 80.9798 32.6 81.4918 32.6C82.0678 32.6 82.6438 32.824 83.2198 33.272C84.5638 32.312 86.0998 31.448 87.8278 30.68C89.6198 29.912 91.3478 29.528 93.0118 29.528C95.8918 29.528 97.3318 31 97.3318 33.944C97.3318 36.76 96.6278 39.352 95.2198 41.72C93.8758 44.088 92.3717 46.392 90.7078 48.632C90.2598 49.208 89.8118 49.752 89.3638 50.264C88.9798 50.776 88.5318 51.288 88.0198 51.8C90.8358 51.032 93.2998 49.752 95.4117 47.96C97.5238 46.168 99.6038 44.312 101.652 42.392C101.908 42.136 102.132 41.944 102.324 41.816C102.58 41.624 102.9 41.528 103.284 41.528C103.604 41.528 103.764 41.752 103.764 42.2C103.764 42.264 103.668 42.424 103.476 42.68C103.284 42.936 103.156 43.128 103.092 43.256C100.98 45.816 98.3558 48.216 95.2198 50.456C92.1478 52.632 88.9158 53.976 85.5237 54.488C84.3078 55.704 82.7718 56.952 80.9158 58.232C79.0598 59.448 77.2357 60.056 75.4438 60.056ZM82.9318 52.472C83.1877 52.472 83.4117 52.472 83.6038 52.472C83.8598 52.472 84.1158 52.44 84.3718 52.376C85.6518 50.84 86.9638 49.016 88.3078 46.904C89.7158 44.792 90.8998 42.616 91.8597 40.376C92.8198 38.072 93.2998 35.992 93.2998 34.136C93.2998 32.984 92.7558 32.408 91.6677 32.408C90.5798 32.408 89.3318 32.728 87.9238 33.368C86.5158 34.008 85.3318 34.68 84.3718 35.384V35.672C84.3718 36.312 83.8598 37.24 82.8358 38.456C81.8758 39.608 80.8198 40.792 79.6678 42.008C78.5798 43.224 77.7798 44.248 77.2678 45.08C77.0758 47.192 77.4918 48.952 78.5157 50.36C79.5398 51.768 81.0118 52.472 82.9318 52.472ZM75.5397 58.424C76.7557 58.424 77.9397 57.976 79.0917 57.08C80.3078 56.184 81.3318 55.352 82.1638 54.584C80.6277 54.456 79.2197 53.944 77.9398 53.048C76.7238 52.088 75.6037 51.032 74.5797 49.88C74.3877 50.264 74.1317 51 73.8117 52.088C73.4918 53.176 73.3318 54.264 73.3318 55.352C73.3318 56.184 73.4918 56.92 73.8117 57.56C74.1317 58.136 74.7077 58.424 75.5397 58.424ZM133.329 59.672C132.049 59.672 130.705 59.128 129.297 58.04C127.889 56.952 127.185 55.704 127.185 54.296C127.185 53.016 127.505 51.512 128.145 49.784C128.785 48.056 129.521 46.488 130.353 45.08C128.369 47.192 126.353 49.304 124.305 51.416C122.321 53.528 120.369 55.672 118.449 57.848C117.809 58.616 117.041 59 116.145 59C114.929 59 113.777 58.36 112.689 57.08C111.665 55.8 111.153 54.584 111.153 53.432C111.153 53.112 111.185 52.856 111.249 52.664C111.697 51.448 112.209 50.264 112.785 49.112C113.425 47.896 114.065 46.744 114.705 45.656C115.409 44.44 116.145 43.288 116.913 42.2C117.745 41.048 118.577 39.896 119.409 38.744C119.729 38.36 120.017 37.976 120.273 37.592C120.593 37.144 120.881 36.696 121.137 36.248C121.329 35.928 121.425 35.544 121.425 35.096C121.425 34.648 121.393 34.264 121.329 33.944C121.969 33.112 122.833 32.312 123.921 31.544C125.009 30.712 126.065 30.296 127.089 30.296C127.345 30.296 127.761 30.392 128.337 30.584C128.977 30.712 129.553 30.904 130.065 31.16C130.641 31.352 130.929 31.576 130.929 31.832C130.929 32.088 130.801 32.344 130.545 32.6C130.225 32.92 129.873 33.24 129.489 33.56C129.105 33.88 128.753 34.232 128.433 34.616C126.961 36.088 125.553 37.656 124.209 39.32C122.865 40.92 121.585 42.552 120.369 44.216C119.985 44.792 119.377 45.656 118.545 46.808C117.777 47.896 117.073 49.016 116.433 50.168C115.793 51.32 115.473 52.248 115.473 52.952C115.473 53.592 115.761 53.912 116.337 53.912C116.977 53.912 117.905 53.496 119.121 52.664C120.401 51.768 121.777 50.648 123.249 49.304C124.721 47.896 126.161 46.456 127.569 44.984C129.041 43.512 130.321 42.168 131.409 40.952C132.561 39.736 133.361 38.84 133.809 38.264C135.153 36.664 136.465 34.872 137.745 32.888C138.257 32.12 138.865 31.448 139.569 30.872C140.337 30.232 141.169 29.912 142.065 29.912C142.577 29.912 143.217 29.976 143.985 30.104C144.817 30.168 145.233 30.552 145.233 31.256C145.233 31.512 145.137 31.768 144.945 32.024C144.817 32.28 144.657 32.504 144.465 32.696C142.353 34.872 140.337 37.176 138.417 39.608C136.561 41.976 134.993 44.568 133.713 47.384C133.265 48.344 132.817 49.624 132.369 51.224C131.921 52.76 131.697 54.072 131.697 55.16C131.697 56.248 132.113 56.792 132.945 56.792C133.521 56.792 134.097 56.6 134.673 56.216C135.377 55.832 136.337 55.064 137.553 53.912C138.769 52.696 140.049 51.352 141.393 49.88C142.801 48.344 144.113 46.904 145.329 45.56C146.545 44.152 147.473 43.064 148.113 42.296C148.241 42.168 148.369 42.072 148.497 42.008C148.625 41.88 148.753 41.816 148.881 41.816C149.329 41.816 149.553 42.072 149.553 42.584C149.553 42.84 149.489 43.032 149.361 43.16C149.233 43.288 149.105 43.448 148.977 43.64C146.993 45.944 145.009 48.28 143.025 50.648C141.105 53.016 139.153 55.352 137.169 57.656C136.721 58.232 136.177 58.712 135.537 59.096C134.897 59.48 134.161 59.672 133.329 59.672ZM174.085 60.056C173.125 60.056 172.005 59.736 170.725 59.096C169.445 58.456 168.805 57.592 168.805 56.504C168.805 55.544 169.157 54.328 169.861 52.856C170.565 51.384 171.429 49.816 172.453 48.152C173.477 46.488 174.533 44.888 175.621 43.352C176.709 41.752 177.637 40.408 178.405 39.32C179.237 38.168 179.749 37.4 179.941 37.016C180.837 35.8 181.381 35.032 181.573 34.712C181.765 34.392 181.893 34.136 181.957 33.944C181.445 34.328 180.645 34.936 179.557 35.768C178.469 36.536 177.381 37.336 176.293 38.168C175.205 39 174.405 39.64 173.893 40.088C170.309 43.224 167.301 46.232 164.869 49.112C162.501 51.928 160.293 54.936 158.245 58.136C158.181 58.2 158.021 58.264 157.765 58.328C157.509 58.328 157.317 58.328 157.189 58.328C156.805 58.328 156.229 58.232 155.461 58.04C154.757 57.848 154.469 57.432 154.597 56.792C154.981 55.832 155.493 54.808 156.133 53.72C156.773 52.632 157.669 51.16 158.821 49.304C159.973 47.384 161.477 44.696 163.333 41.24C163.909 40.152 164.869 38.36 166.213 35.864C167.621 33.368 169.317 30.52 171.301 27.32C173.349 24.12 175.621 20.952 178.117 17.816C180.677 14.616 183.429 11.768 186.373 9.272C189.317 6.776 192.389 4.984 195.589 3.896C196.421 3.576 197.157 3.41599 197.797 3.41599C199.013 3.41599 199.845 3.832 200.293 4.664C200.805 5.432 201.477 6.072 202.309 6.584C202.821 6.904 203.077 7.416 203.077 8.12C203.077 9.144 202.213 10.552 200.485 12.344C198.821 14.072 196.677 15.992 194.053 18.104C191.429 20.152 188.677 22.2 185.797 24.248C182.917 26.296 180.197 28.184 177.637 29.912C175.141 31.64 173.221 32.984 171.877 33.944C171.621 34.456 171.109 35.288 170.341 36.44C169.637 37.528 168.869 38.712 168.037 39.992C167.205 41.272 166.437 42.456 165.733 43.544C165.029 44.632 164.581 45.4 164.389 45.848C166.181 44.184 168.069 42.424 170.053 40.568C172.101 38.712 174.085 36.92 176.005 35.192C177.989 33.464 179.717 31.992 181.189 30.776C181.509 30.52 181.893 30.36 182.341 30.296C182.853 30.232 183.269 30.2 183.589 30.2C184.485 30.2 185.541 30.584 186.757 31.352C187.973 32.12 188.581 33.048 188.581 34.136C188.581 34.84 188.197 35.544 187.429 36.248C185.509 37.976 183.557 39.992 181.573 42.296C179.589 44.536 177.797 46.904 176.197 49.4C175.749 50.168 175.109 51.288 174.277 52.76C173.509 54.232 173.125 55.416 173.125 56.312C173.125 56.952 173.317 57.272 173.701 57.272C174.469 57.272 175.525 56.856 176.869 56.024C178.277 55.192 179.781 54.136 181.381 52.856C183.045 51.512 184.677 50.136 186.277 48.728C187.941 47.32 189.413 46.008 190.693 44.792C191.973 43.576 192.901 42.648 193.477 42.008C193.861 41.624 194.181 41.432 194.437 41.432C194.821 41.432 195.013 41.624 195.013 42.008C195.013 42.2 194.885 42.488 194.629 42.872C193.797 43.96 192.581 45.336 190.981 47C189.381 48.6 187.621 50.264 185.701 51.992C183.781 53.656 181.925 55.192 180.133 56.6C178.405 57.944 176.965 58.968 175.813 59.672C175.365 59.928 174.789 60.056 174.085 60.056ZM173.893 30.2C174.405 29.816 175.269 29.208 176.485 28.376C177.765 27.48 179.173 26.488 180.709 25.4C182.309 24.248 183.877 23.128 185.413 22.04C186.949 20.888 188.229 19.864 189.253 18.968C191.301 17.176 192.997 15.704 194.341 14.552C195.749 13.4 196.965 12.056 197.989 10.52C198.245 10.2 198.405 9.912 198.469 9.656C198.533 9.4 198.565 9.176 198.565 8.984C198.565 8.6 198.373 8.312 197.989 8.12C197.669 7.928 197.253 7.832 196.741 7.832C195.781 7.832 194.533 8.344 192.997 9.368C191.461 10.392 189.797 11.768 188.005 13.496C186.213 15.16 184.421 16.984 182.629 18.968C180.837 20.952 179.173 22.936 177.637 24.92C176.101 26.84 174.853 28.6 173.893 30.2ZM207.672 58.136C203.832 58.136 201.912 56.248 201.912 52.472C201.912 51 202.296 49.304 203.064 47.384C203.896 45.4 204.984 43.416 206.328 41.432C207.672 39.448 209.176 37.624 210.84 35.96C212.504 34.232 214.2 32.856 215.928 31.832C217.72 30.744 219.384 30.2 220.92 30.2C221.432 30.2 221.784 30.328 221.976 30.584C222.232 30.776 222.424 31.128 222.552 31.64C222.68 31.896 222.776 32.184 222.84 32.504C222.904 32.824 223 33.144 223.128 33.464C223.384 33.912 223.608 34.36 223.8 34.808C223.992 35.256 224.088 35.736 224.088 36.248C224.088 36.888 223.928 37.464 223.608 37.976C223.288 38.424 222.904 38.84 222.456 39.224C221.816 39.8 220.856 40.536 219.576 41.432C218.296 42.264 216.888 43.128 215.352 44.024C213.88 44.856 212.44 45.592 211.032 46.232C209.688 46.872 208.6 47.256 207.768 47.384C207.192 48.28 206.584 49.4 205.944 50.744C205.368 52.024 205.08 53.208 205.08 54.296C205.08 54.872 205.208 55.384 205.464 55.832C205.784 56.28 206.264 56.504 206.904 56.504C207.928 56.504 209.272 56.024 210.936 55.064C212.664 54.04 214.456 52.824 216.312 51.416C218.168 49.944 219.864 48.536 221.4 47.192C223 45.784 224.184 44.696 224.952 43.928L228.024 40.664C228.408 40.28 228.824 40.088 229.272 40.088C229.656 40.088 229.848 40.248 229.848 40.568C229.848 40.952 229.304 41.752 228.216 42.968C227.128 44.12 225.816 45.432 224.28 46.904C222.808 48.312 221.432 49.624 220.152 50.84C218.872 51.992 218.04 52.728 217.656 53.048C216.312 54.2 214.776 55.352 213.048 56.504C211.32 57.592 209.528 58.136 207.672 58.136ZM209.4 44.888C210.04 44.504 211 43.896 212.28 43.064C213.624 42.232 215 41.304 216.408 40.28C217.816 39.256 219 38.232 219.96 37.208C220.984 36.184 221.496 35.288 221.496 34.52C221.496 34.328 221.464 34.168 221.4 34.04C221.336 33.976 221.208 33.944 221.016 33.944C220.184 33.944 219.192 34.392 218.04 35.288C216.888 36.184 215.736 37.272 214.584 38.552C213.432 39.768 212.376 40.984 211.416 42.2C210.52 43.352 209.848 44.248 209.4 44.888ZM257.57 22.808C256.098 22.808 255.362 22.264 255.362 21.176C255.362 20.408 255.778 19.576 256.61 18.68C257.442 17.784 258.658 17.144 260.258 16.76C261.218 16.504 261.986 16.376 262.562 16.376C263.202 16.312 263.81 16.184 264.386 15.992C264.13 17.208 263.586 18.52 262.754 19.928C261.986 21.336 260.962 22.2 259.682 22.52C259.042 22.712 258.338 22.808 257.57 22.808ZM242.21 61.016C241.186 61.016 240.226 60.6 239.33 59.768C238.498 58.936 237.986 58.04 237.794 57.08C237.986 55.864 238.402 54.392 239.042 52.664C239.746 50.872 240.546 49.016 241.442 47.096C242.338 45.176 243.234 43.384 244.13 41.72C245.026 39.992 245.794 38.616 246.434 37.592C245.218 38.68 243.906 39.896 242.498 41.24C241.154 42.584 239.874 43.832 238.658 44.984C238.594 45.048 238.434 45.176 238.178 45.368C237.986 45.56 237.794 45.656 237.602 45.656C237.154 45.656 236.93 45.464 236.93 45.08C236.93 44.76 237.058 44.472 237.314 44.216C239.042 42.296 240.834 40.376 242.69 38.456C244.61 36.536 246.466 34.552 248.258 32.504C248.834 31.8 249.314 31.256 249.698 30.872C250.146 30.424 250.818 30.2 251.714 30.2C252.098 30.2 252.674 30.296 253.442 30.488C254.274 30.616 254.946 30.872 255.458 31.256C256.034 31.64 256.13 32.12 255.746 32.696C255.298 33.4 254.53 34.552 253.442 36.152C252.354 37.752 251.106 39.576 249.698 41.624C248.354 43.672 247.01 45.752 245.666 47.864C244.386 49.912 243.33 51.768 242.498 53.432C241.666 55.096 241.25 56.344 241.25 57.176C241.25 57.56 241.378 57.752 241.634 57.752C242.018 57.752 242.658 57.4 243.554 56.696C244.514 55.992 245.442 55.256 246.338 54.488C247.298 53.656 247.938 53.112 248.258 52.856C250.114 51.256 251.938 49.624 253.73 47.96C255.522 46.232 257.218 44.44 258.818 42.584C258.946 42.456 259.106 42.264 259.298 42.008C259.554 41.752 259.81 41.624 260.066 41.624C260.386 41.624 260.546 41.816 260.546 42.2C260.546 42.648 260.386 43.096 260.066 43.544C259.234 44.568 258.306 45.592 257.282 46.616C256.258 47.576 255.298 48.536 254.402 49.496C252.738 51.16 251.106 52.824 249.506 54.488C247.97 56.088 246.434 57.752 244.898 59.48C244.578 59.864 244.162 60.216 243.65 60.536C243.202 60.856 242.722 61.016 242.21 61.016ZM201.144 131.672C199.864 131.672 198.52 131.128 197.112 130.04C195.704 128.952 195 127.704 195 126.296C195 125.016 195.32 123.512 195.96 121.784C196.6 120.056 197.336 118.488 198.168 117.08C196.184 119.192 194.168 121.304 192.12 123.416C190.136 125.528 188.184 127.672 186.264 129.848C185.624 130.616 184.856 131 183.96 131C182.744 131 181.592 130.36 180.504 129.08C179.48 127.8 178.968 126.584 178.968 125.432C178.968 125.112 179 124.856 179.064 124.664C179.512 123.448 180.024 122.264 180.6 121.112C181.24 119.896 181.88 118.744 182.52 117.656C183.224 116.44 183.96 115.288 184.728 114.2C185.56 113.048 186.392 111.896 187.224 110.744C187.544 110.36 187.832 109.976 188.088 109.592C188.408 109.144 188.696 108.696 188.952 108.248C189.144 107.928 189.24 107.544 189.24 107.096C189.24 106.648 189.208 106.264 189.144 105.944C189.784 105.112 190.648 104.312 191.736 103.544C192.824 102.712 193.88 102.296 194.904 102.296C195.16 102.296 195.576 102.392 196.152 102.584C196.792 102.712 197.368 102.904 197.88 103.16C198.456 103.352 198.744 103.576 198.744 103.832C198.744 104.088 198.616 104.344 198.36 104.6C198.04 104.92 197.688 105.24 197.304 105.56C196.92 105.88 196.568 106.232 196.248 106.616C194.776 108.088 193.368 109.656 192.024 111.32C190.68 112.92 189.4 114.552 188.184 116.216C187.8 116.792 187.192 117.656 186.36 118.808C185.592 119.896 184.888 121.016 184.248 122.168C183.608 123.32 183.288 124.248 183.288 124.952C183.288 125.592 183.576 125.912 184.152 125.912C184.792 125.912 185.72 125.496 186.936 124.664C188.216 123.768 189.592 122.648 191.064 121.304C192.536 119.896 193.976 118.456 195.384 116.984C196.856 115.512 198.136 114.168 199.224 112.952C200.376 111.736 201.176 110.84 201.624 110.264C202.968 108.664 204.28 106.872 205.56 104.888C206.072 104.12 206.68 103.448 207.384 102.872C208.152 102.232 208.984 101.912 209.88 101.912C210.392 101.912 211.032 101.976 211.8 102.104C212.632 102.168 213.048 102.552 213.048 103.256C213.048 103.512 212.952 103.768 212.76 104.024C212.632 104.28 212.472 104.504 212.28 104.696C210.168 106.872 208.152 109.176 206.232 111.608C204.376 113.976 202.808 116.568 201.528 119.384C201.08 120.344 200.632 121.624 200.184 123.224C199.736 124.76 199.512 126.072 199.512 127.16C199.512 128.248 199.928 128.792 200.76 128.792C201.336 128.792 201.912 128.6 202.488 128.216C203.192 127.832 204.152 127.064 205.368 125.912C206.584 124.696 207.864 123.352 209.208 121.88C210.616 120.344 211.928 118.904 213.144 117.56C214.36 116.152 215.288 115.064 215.928 114.296C216.056 114.168 216.184 114.072 216.312 114.008C216.44 113.88 216.568 113.816 216.696 113.816C217.144 113.816 217.368 114.072 217.368 114.584C217.368 114.84 217.304 115.032 217.176 115.16C217.048 115.288 216.92 115.448 216.792 115.64C214.808 117.944 212.824 120.28 210.84 122.648C208.92 125.016 206.968 127.352 204.984 129.656C204.536 130.232 203.992 130.712 203.352 131.096C202.712 131.48 201.976 131.672 201.144 131.672ZM238.828 135.032C238.06 135.032 237.26 134.84 236.428 134.456C235.66 134.136 234.892 133.688 234.124 133.112C233.292 132.408 232.492 131.416 231.724 130.136C230.956 128.856 230.316 127.512 229.804 126.104L222.412 134.168C222.22 134.36 222.092 134.456 222.028 134.456C221.772 134.456 221.644 134.264 221.644 133.88C221.644 133.304 221.836 132.824 222.22 132.44L229.324 124.376C229.132 123.608 229.036 122.872 229.036 122.168C228.588 121.848 227.98 121.464 227.212 121.016C226.508 120.504 226.156 119.672 226.156 118.52C226.156 117.176 226.572 115.864 227.404 114.584C228.236 113.304 228.94 112.664 229.516 112.664C229.964 112.664 230.188 113.048 230.188 113.816C230.188 114.072 230.188 114.744 230.188 115.832C230.252 116.92 230.316 118.04 230.38 119.192C230.444 120.28 230.508 121.016 230.572 121.4C230.956 121.656 231.276 121.816 231.532 121.88C234.028 119 236.652 116.024 239.404 112.952C242.156 109.88 244.62 107.256 246.796 105.08C247.884 103.416 249.068 102.008 250.348 100.856C251.692 99.704 253.228 99.128 254.956 99.128C256.172 99.128 257.036 99.352 257.548 99.8C258.06 100.248 258.316 100.76 258.316 101.336C258.316 101.912 258.06 102.456 257.548 102.968C257.1 103.416 256.428 103.64 255.532 103.64C254.124 103.576 252.908 103.64 251.884 103.832C250.86 103.96 250.124 104.408 249.676 105.176C249.228 106.008 248.716 107.384 248.14 109.304C247.564 111.224 246.988 113.4 246.412 115.832C245.9 118.264 245.452 120.632 245.068 122.936C246.412 122.68 247.692 122.36 248.908 121.976C250.188 121.528 251.564 120.792 253.036 119.768C254.508 118.744 256.204 117.24 258.124 115.256C258.444 114.872 258.764 114.68 259.084 114.68C259.276 114.68 259.372 114.808 259.372 115.064C259.372 115.192 259.308 115.416 259.18 115.736C259.052 116.056 258.796 116.472 258.412 116.984C257.644 118.008 256.684 119.032 255.532 120.056C254.444 121.016 253.484 121.752 252.652 122.264C250.924 123.288 249.292 123.928 247.756 124.184C246.22 124.376 245.228 124.504 244.78 124.568C244.524 125.912 244.3 127.032 244.108 127.928C243.916 128.76 243.788 129.368 243.724 129.752C243.404 131.608 242.764 132.952 241.804 133.784C240.908 134.616 239.916 135.032 238.828 135.032ZM241.036 122.936C241.356 121.464 241.772 119.512 242.284 117.08C242.86 114.648 243.628 112.216 244.588 109.784C242.924 111.64 241.068 113.656 239.02 115.832C237.036 118.008 235.084 120.184 233.164 122.36C234.38 122.616 235.692 122.808 237.1 122.936C238.508 123 239.82 123 241.036 122.936ZM237.388 130.424C237.9 130.424 238.412 130.072 238.924 129.368C239.5 128.6 240.044 127.192 240.556 125.144C240.556 124.952 240.588 124.824 240.652 124.76C239.116 124.696 237.612 124.6 236.14 124.472C234.732 124.28 233.388 123.96 232.108 123.512L231.34 124.376C231.852 125.4 232.46 126.456 233.164 127.544C233.868 128.568 234.668 129.304 235.564 129.752C235.884 129.944 236.204 130.104 236.524 130.232C236.844 130.36 237.132 130.424 237.388 130.424ZM286.19 131.864C285.614 131.864 284.942 131.608 284.174 131.096C283.47 130.584 282.862 130.008 282.35 129.368C281.838 128.664 281.582 128.024 281.582 127.448C281.582 126.488 281.934 125.208 282.638 123.608C283.342 121.944 284.142 120.312 285.038 118.712C285.998 117.112 286.734 115.928 287.246 115.16C286.35 115.928 285.198 117.176 283.79 118.904C282.446 120.568 280.974 122.36 279.374 124.28C277.838 126.136 276.334 127.736 274.862 129.08C273.454 130.424 272.238 131.096 271.214 131.096C269.806 131.096 268.654 130.616 267.758 129.656C266.926 128.632 266.51 127.416 266.51 126.008C266.51 124.088 267.054 122.04 268.142 119.864C269.23 117.624 270.638 115.48 272.366 113.432C274.158 111.32 276.078 109.4 278.126 107.672C280.238 105.944 282.286 104.568 284.27 103.544C286.318 102.52 288.142 102.008 289.742 102.008C291.47 102.008 292.878 102.424 293.966 103.256C295.054 104.024 295.598 105.208 295.598 106.808C295.598 107.064 295.534 107.544 295.406 108.248C295.342 108.952 295.118 109.304 294.734 109.304C294.542 109.304 294.222 109.016 293.774 108.44C293.39 107.864 292.846 107.288 292.142 106.712C291.438 106.136 290.542 105.848 289.454 105.848C287.662 105.848 285.774 106.52 283.79 107.864C281.87 109.144 280.014 110.808 278.222 112.856C276.43 114.84 274.862 116.888 273.518 119C272.174 121.112 271.15 122.936 270.446 124.472C270.254 124.92 270.062 125.4 269.87 125.912C269.742 126.424 269.678 126.936 269.678 127.448C269.678 128.024 269.838 128.312 270.158 128.312C270.478 128.312 271.15 127.96 272.174 127.256C273.262 126.552 274.03 126.04 274.478 125.72C276.718 124.12 278.83 122.296 280.814 120.248C282.862 118.2 284.686 116.088 286.286 113.912C286.798 113.208 287.278 112.504 287.726 111.8C288.174 111.096 288.622 110.424 289.07 109.784C289.39 109.336 289.71 109.112 290.03 109.112C290.734 109.112 291.406 109.592 292.046 110.552C292.75 111.512 293.102 112.344 293.102 113.048C293.102 113.368 293.038 113.56 292.91 113.624C292.846 113.688 292.654 113.88 292.334 114.2C291.374 115.16 290.414 116.504 289.454 118.232C288.558 119.96 287.758 121.72 287.054 123.512C286.414 125.24 285.934 126.712 285.614 127.928C285.55 128.12 285.486 128.376 285.422 128.696C285.422 128.952 285.582 129.048 285.902 128.984C286.542 128.792 287.566 128.088 288.974 126.872C290.446 125.592 292.014 124.152 293.678 122.552C295.406 120.888 296.942 119.352 298.286 117.944C299.694 116.536 300.622 115.544 301.07 114.968C301.198 114.84 301.326 114.712 301.454 114.584C301.646 114.392 301.838 114.296 302.03 114.296C302.478 114.296 302.702 114.52 302.702 114.968C302.702 115.224 302.19 115.992 301.166 117.272C300.142 118.488 298.862 119.928 297.326 121.592C295.79 123.192 294.222 124.792 292.622 126.392C291.022 127.928 289.614 129.24 288.398 130.328C287.246 131.352 286.51 131.864 286.19 131.864ZM348.921 132.152C348.217 132.152 347.385 131.864 346.425 131.288C345.465 130.776 344.601 130.136 343.833 129.368C343.129 128.536 342.777 127.704 342.777 126.872C342.777 125.784 343.225 124.408 344.121 122.744C345.017 121.08 346.105 119.352 347.385 117.56C348.729 115.768 350.009 114.104 351.225 112.568C352.505 110.968 353.529 109.688 354.297 108.728C355.193 107.576 355.609 106.936 355.545 106.808C355.481 106.616 355.449 106.424 355.449 106.232C353.657 107.128 351.641 108.472 349.401 110.264C347.161 111.992 345.017 113.816 342.969 115.736C340.921 117.656 339.257 119.384 337.977 120.92C337.081 121.944 336.217 123.032 335.385 124.184C334.617 125.272 333.849 126.392 333.081 127.544C332.633 128.184 332.057 128.856 331.353 129.56C330.713 130.264 329.977 130.616 329.145 130.616C328.697 130.616 328.281 130.456 327.897 130.136C327.577 129.816 327.417 129.432 327.417 128.984C327.417 128.088 327.993 126.744 329.145 124.952C330.361 123.096 331.609 121.08 332.889 118.904C333.721 117.496 334.617 116.056 335.577 114.584C336.601 113.048 337.465 111.672 338.169 110.456C338.937 109.24 339.321 108.408 339.321 107.96H339.225C339.033 107.96 338.585 108.12 337.881 108.44C337.241 108.76 336.889 108.952 336.825 109.016C333.689 111.128 330.681 113.752 327.801 116.888C324.985 120.024 322.393 123 320.025 125.816C319.577 126.392 319.097 127 318.585 127.64C318.073 128.216 317.561 128.792 317.049 129.368C316.793 129.624 316.441 129.848 315.993 130.04C315.545 130.168 315.129 130.232 314.745 130.232C314.361 130.232 313.817 130.104 313.113 129.848C312.473 129.592 312.153 129.144 312.153 128.504C312.153 127.736 312.505 126.616 313.209 125.144C313.913 123.672 314.777 122.008 315.801 120.152C316.889 118.296 318.009 116.472 319.161 114.68C320.377 112.824 321.465 111.16 322.425 109.688C323.449 108.152 324.185 107.032 324.633 106.328C322.649 108.056 320.857 109.656 319.257 111.128C317.721 112.536 315.961 114.456 313.977 116.888C313.849 117.016 313.593 117.272 313.209 117.656C312.825 118.04 312.441 118.264 312.057 118.328C311.929 118.328 311.769 118.232 311.577 118.04C311.449 117.848 311.417 117.688 311.481 117.56C311.545 117.24 311.993 116.6 312.825 115.64C313.657 114.616 314.681 113.464 315.897 112.184C317.113 110.904 318.329 109.624 319.545 108.344C320.761 107.064 321.817 105.944 322.713 104.984C323.673 104.024 324.249 103.416 324.441 103.16C325.849 101.688 327.097 100.504 328.185 99.608C329.337 98.712 330.425 98.264 331.449 98.264C332.025 98.264 332.697 98.52 333.465 99.032C334.233 99.544 334.617 100.152 334.617 100.856C334.617 101.112 334.553 101.272 334.425 101.336C331.545 103.704 328.985 106.424 326.745 109.496C324.505 112.504 322.393 115.512 320.409 118.52C320.345 118.584 320.121 118.936 319.737 119.576C319.417 120.216 319.033 120.92 318.585 121.688C318.137 122.456 317.753 123.128 317.433 123.704C317.113 124.28 316.985 124.536 317.049 124.472C320.441 121.272 323.993 117.88 327.705 114.296C331.481 110.648 335.129 107.352 338.649 104.408C339.161 103.96 339.737 103.576 340.377 103.256C341.017 102.936 341.689 102.776 342.393 102.776C343.161 102.776 343.769 103.032 344.217 103.544C344.729 103.992 344.985 104.6 344.985 105.368C344.985 106.2 344.729 107.032 344.217 107.864C343.705 108.696 343.225 109.464 342.777 110.168C342.137 111.32 341.433 112.472 340.665 113.624C339.961 114.776 339.449 115.704 339.129 116.408C342.073 113.784 344.889 111.256 347.577 108.824C350.265 106.328 352.985 104.184 355.738 102.392C356.378 101.944 357.146 101.72 358.042 101.72C358.618 101.72 359.354 101.816 360.25 102.008C361.209 102.2 362.041 102.488 362.745 102.872C363.513 103.256 363.897 103.8 363.897 104.504C363.897 104.888 363.769 105.272 363.513 105.656C363.257 105.976 362.969 106.264 362.649 106.52L358.137 110.36C357.305 111.128 356.281 112.216 355.065 113.624C353.913 114.968 352.761 116.472 351.609 118.136C350.521 119.736 349.593 121.4 348.825 123.128C348.121 124.856 347.769 126.456 347.769 127.928C347.769 128.824 347.993 129.272 348.441 129.272C348.697 129.272 348.985 129.208 349.305 129.08C349.625 128.888 349.977 128.696 350.361 128.504C351.705 127.736 353.145 126.616 354.681 125.144C356.217 123.672 357.721 122.104 359.193 120.44C360.729 118.776 362.073 117.304 363.225 116.024C364.377 114.744 365.241 113.944 365.817 113.624C365.945 113.496 366.105 113.464 366.297 113.528C366.553 113.592 366.681 113.72 366.681 113.912C366.681 114.168 366.553 114.456 366.297 114.776C366.042 115.096 365.85 115.352 365.721 115.544C364.633 116.824 363.609 118.072 362.649 119.288C361.753 120.44 360.729 121.656 359.577 122.936C358.233 124.472 356.729 126.104 355.065 127.832C353.465 129.496 351.769 130.84 349.977 131.864C349.721 132.056 349.369 132.152 348.921 132.152ZM395.896 94.808C394.424 94.808 393.688 94.264 393.688 93.176C393.688 92.408 394.104 91.576 394.936 90.68C395.768 89.784 396.984 89.144 398.584 88.76C399.544 88.504 400.312 88.376 400.888 88.376C401.528 88.312 402.136 88.184 402.712 87.992C402.456 89.208 401.912 90.52 401.08 91.928C400.312 93.336 399.288 94.2 398.008 94.52C397.368 94.712 396.664 94.808 395.896 94.808ZM380.536 133.016C379.512 133.016 378.552 132.6 377.656 131.768C376.824 130.936 376.312 130.04 376.12 129.08C376.312 127.864 376.728 126.392 377.368 124.664C378.072 122.872 378.872 121.016 379.768 119.096C380.664 117.176 381.56 115.384 382.456 113.72C383.352 111.992 384.12 110.616 384.76 109.592C383.544 110.68 382.232 111.896 380.824 113.24C379.48 114.584 378.2 115.832 376.984 116.984C376.92 117.048 376.76 117.176 376.504 117.368C376.312 117.56 376.12 117.656 375.928 117.656C375.48 117.656 375.256 117.464 375.256 117.08C375.256 116.76 375.384 116.472 375.64 116.216C377.368 114.296 379.16 112.376 381.016 110.456C382.936 108.536 384.792 106.552 386.584 104.504C387.16 103.8 387.64 103.256 388.024 102.872C388.472 102.424 389.144 102.2 390.04 102.2C390.424 102.2 391 102.296 391.768 102.488C392.6 102.616 393.272 102.872 393.784 103.256C394.36 103.64 394.456 104.12 394.072 104.696C393.624 105.4 392.856 106.552 391.768 108.152C390.68 109.752 389.432 111.576 388.024 113.624C386.68 115.672 385.336 117.752 383.992 119.864C382.712 121.912 381.656 123.768 380.824 125.432C379.992 127.096 379.576 128.344 379.576 129.176C379.576 129.56 379.704 129.752 379.96 129.752C380.344 129.752 380.984 129.4 381.88 128.696C382.84 127.992 383.768 127.256 384.664 126.488C385.624 125.656 386.264 125.112 386.584 124.856C388.44 123.256 390.264 121.624 392.056 119.96C393.848 118.232 395.544 116.44 397.144 114.584C397.272 114.456 397.432 114.264 397.624 114.008C397.88 113.752 398.136 113.624 398.392 113.624C398.712 113.624 398.872 113.816 398.872 114.2C398.872 114.648 398.712 115.096 398.392 115.544C397.56 116.568 396.632 117.592 395.608 118.616C394.584 119.576 393.624 120.536 392.728 121.496C391.064 123.16 389.432 124.824 387.832 126.488C386.296 128.088 384.76 129.752 383.224 131.48C382.904 131.864 382.488 132.216 381.976 132.536C381.528 132.856 381.048 133.016 380.536 133.016Z" fill="#333333"/>
<path d="M10.4 95.768C7.456 95.768 5.984 94.296 5.984 91.352C5.984 91.032 6.016 90.712 6.08 90.392C6.08 90.072 6.112 89.752 6.176 89.432C6.688 87.128 7.776 84.92 9.44 82.808C11.104 80.696 13.056 78.712 15.296 76.856C17.536 75.064 19.808 73.368 22.112 71.768C24.48 70.232 26.592 68.888 28.448 67.736C29.536 67.032 30.912 66.168 32.576 65.144C34.304 64.12 36.128 63 38.048 61.784C39.968 60.632 41.792 59.544 43.52 58.52C44.224 56.728 44.704 54.744 44.96 52.568C45.28 50.328 45.44 48.248 45.44 46.328V45.56C44.672 46.712 43.552 48.056 42.08 49.592C40.608 51.128 38.944 52.632 37.088 54.104C35.232 55.512 33.408 56.696 31.616 57.656C29.824 58.616 28.192 59.096 26.72 59.096C25.696 59.096 24.992 58.776 24.608 58.136C24.288 57.496 24.128 56.76 24.128 55.928C24.128 53.688 24.608 51.384 25.568 49.016C26.528 46.648 27.616 44.472 28.832 42.488C30.048 40.44 31.136 38.744 32.096 37.4C33.056 35.992 33.536 35.192 33.536 35C33.536 34.936 33.472 34.904 33.344 34.904C33.088 34.904 32.8 34.904 32.48 34.904C32.224 34.904 32.192 34.712 32.384 34.328C33.28 33.24 34.4 32.28 35.744 31.448C37.088 30.616 38.368 30.2 39.584 30.2C40.032 30.2 40.544 30.392 41.12 30.776C41.76 31.096 42.08 31.512 42.08 32.024C42.08 32.344 41.888 32.696 41.504 33.08C41.056 33.528 40.512 34.04 39.872 34.616C39.296 35.192 38.496 36.088 37.472 37.304C36.896 37.944 36.096 39 35.072 40.472C34.048 41.88 32.992 43.512 31.904 45.368C30.816 47.16 29.888 48.952 29.12 50.744C28.416 52.472 28.064 53.976 28.064 55.256C28.064 55.448 28.064 55.672 28.064 55.928C28.128 56.12 28.288 56.312 28.544 56.504C29.44 56.568 30.56 56.184 31.904 55.352C33.248 54.456 34.656 53.336 36.128 51.992C37.664 50.584 39.104 49.112 40.448 47.576C41.856 45.976 43.072 44.504 44.096 43.16C45.184 41.752 45.952 40.632 46.4 39.8C47.104 38.52 48.16 37.88 49.568 37.88C50.592 37.88 51.168 38.104 51.296 38.552C51.488 39 51.584 39.608 51.584 40.376C51.584 42.872 51.424 45.08 51.104 47C50.848 48.856 50.336 50.968 49.568 53.336C53.664 49.816 57.568 46.104 61.28 42.2C61.344 42.072 61.472 41.912 61.664 41.72C61.92 41.528 62.112 41.432 62.24 41.432C62.624 41.432 62.816 41.624 62.816 42.008C62.816 42.52 62.624 43.032 62.24 43.544C61.664 44.248 61.024 44.952 60.32 45.656C59.68 46.36 59.04 47.064 58.4 47.768C56.864 49.432 55.296 51.096 53.696 52.76C52.096 54.36 50.4 55.896 48.608 57.368C45.664 65.112 41.792 71.896 36.992 77.72C32.256 83.608 26.272 88.632 19.04 92.792C17.824 93.496 16.448 94.168 14.912 94.808C13.376 95.448 11.872 95.768 10.4 95.768ZM12.608 93.368C14.336 93.368 16.224 92.728 18.272 91.448C20.256 90.232 22.24 88.696 24.224 86.84C26.208 84.984 28 83.128 29.6 81.272C31.264 79.48 32.576 77.976 33.536 76.76C34.624 75.288 35.68 73.816 36.704 72.344C37.728 70.936 38.688 69.464 39.584 67.928C40.928 65.688 42.048 63.512 42.944 61.4C43.008 61.208 42.944 61.08 42.752 61.016C42.624 61.016 42.56 61.016 42.56 61.016C40.576 62.424 38.56 63.8 36.512 65.144C34.528 66.552 32.512 67.928 30.464 69.272C29.44 69.912 28.064 70.84 26.336 72.056C24.608 73.336 22.752 74.744 20.768 76.28C18.784 77.88 16.896 79.512 15.104 81.176C13.312 82.904 11.84 84.568 10.688 86.168C9.536 87.832 8.96 89.304 8.96 90.584C8.96 91.608 9.376 92.312 10.208 92.696C10.976 93.144 11.776 93.368 12.608 93.368ZM75.4438 60.056C73.5877 60.056 72.2117 59.32 71.3157 57.848C70.4197 56.312 69.9717 54.744 69.9717 53.144C69.9717 50.968 70.5477 48.632 71.6997 46.136C72.8517 43.576 74.2277 41.144 75.8278 38.84C77.4917 36.536 78.9637 34.648 80.2438 33.176C80.5638 32.792 80.9798 32.6 81.4918 32.6C82.0678 32.6 82.6438 32.824 83.2198 33.272C84.5638 32.312 86.0998 31.448 87.8278 30.68C89.6198 29.912 91.3478 29.528 93.0118 29.528C95.8918 29.528 97.3318 31 97.3318 33.944C97.3318 36.76 96.6278 39.352 95.2198 41.72C93.8758 44.088 92.3717 46.392 90.7078 48.632C90.2598 49.208 89.8118 49.752 89.3638 50.264C88.9798 50.776 88.5318 51.288 88.0198 51.8C90.8358 51.032 93.2998 49.752 95.4117 47.96C97.5238 46.168 99.6038 44.312 101.652 42.392C101.908 42.136 102.132 41.944 102.324 41.816C102.58 41.624 102.9 41.528 103.284 41.528C103.604 41.528 103.764 41.752 103.764 42.2C103.764 42.264 103.668 42.424 103.476 42.68C103.284 42.936 103.156 43.128 103.092 43.256C100.98 45.816 98.3558 48.216 95.2198 50.456C92.1478 52.632 88.9158 53.976 85.5237 54.488C84.3078 55.704 82.7718 56.952 80.9158 58.232C79.0598 59.448 77.2357 60.056 75.4438 60.056ZM82.9318 52.472C83.1877 52.472 83.4117 52.472 83.6038 52.472C83.8598 52.472 84.1158 52.44 84.3718 52.376C85.6518 50.84 86.9638 49.016 88.3078 46.904C89.7158 44.792 90.8998 42.616 91.8597 40.376C92.8198 38.072 93.2998 35.992 93.2998 34.136C93.2998 32.984 92.7558 32.408 91.6677 32.408C90.5798 32.408 89.3318 32.728 87.9238 33.368C86.5158 34.008 85.3318 34.68 84.3718 35.384V35.672C84.3718 36.312 83.8598 37.24 82.8358 38.456C81.8758 39.608 80.8198 40.792 79.6678 42.008C78.5798 43.224 77.7798 44.248 77.2678 45.08C77.0758 47.192 77.4918 48.952 78.5157 50.36C79.5398 51.768 81.0118 52.472 82.9318 52.472ZM75.5397 58.424C76.7557 58.424 77.9397 57.976 79.0917 57.08C80.3078 56.184 81.3318 55.352 82.1638 54.584C80.6277 54.456 79.2197 53.944 77.9398 53.048C76.7238 52.088 75.6037 51.032 74.5797 49.88C74.3877 50.264 74.1317 51 73.8117 52.088C73.4918 53.176 73.3318 54.264 73.3318 55.352C73.3318 56.184 73.4918 56.92 73.8117 57.56C74.1317 58.136 74.7077 58.424 75.5397 58.424ZM133.329 59.672C132.049 59.672 130.705 59.128 129.297 58.04C127.889 56.952 127.185 55.704 127.185 54.296C127.185 53.016 127.505 51.512 128.145 49.784C128.785 48.056 129.521 46.488 130.353 45.08C128.369 47.192 126.353 49.304 124.305 51.416C122.321 53.528 120.369 55.672 118.449 57.848C117.809 58.616 117.041 59 116.145 59C114.929 59 113.777 58.36 112.689 57.08C111.665 55.8 111.153 54.584 111.153 53.432C111.153 53.112 111.185 52.856 111.249 52.664C111.697 51.448 112.209 50.264 112.785 49.112C113.425 47.896 114.065 46.744 114.705 45.656C115.409 44.44 116.145 43.288 116.913 42.2C117.745 41.048 118.577 39.896 119.409 38.744C119.729 38.36 120.017 37.976 120.273 37.592C120.593 37.144 120.881 36.696 121.137 36.248C121.329 35.928 121.425 35.544 121.425 35.096C121.425 34.648 121.393 34.264 121.329 33.944C121.969 33.112 122.833 32.312 123.921 31.544C125.009 30.712 126.065 30.296 127.089 30.296C127.345 30.296 127.761 30.392 128.337 30.584C128.977 30.712 129.553 30.904 130.065 31.16C130.641 31.352 130.929 31.576 130.929 31.832C130.929 32.088 130.801 32.344 130.545 32.6C130.225 32.92 129.873 33.24 129.489 33.56C129.105 33.88 128.753 34.232 128.433 34.616C126.961 36.088 125.553 37.656 124.209 39.32C122.865 40.92 121.585 42.552 120.369 44.216C119.985 44.792 119.377 45.656 118.545 46.808C117.777 47.896 117.073 49.016 116.433 50.168C115.793 51.32 115.473 52.248 115.473 52.952C115.473 53.592 115.761 53.912 116.337 53.912C116.977 53.912 117.905 53.496 119.121 52.664C120.401 51.768 121.777 50.648 123.249 49.304C124.721 47.896 126.161 46.456 127.569 44.984C129.041 43.512 130.321 42.168 131.409 40.952C132.561 39.736 133.361 38.84 133.809 38.264C135.153 36.664 136.465 34.872 137.745 32.888C138.257 32.12 138.865 31.448 139.569 30.872C140.337 30.232 141.169 29.912 142.065 29.912C142.577 29.912 143.217 29.976 143.985 30.104C144.817 30.168 145.233 30.552 145.233 31.256C145.233 31.512 145.137 31.768 144.945 32.024C144.817 32.28 144.657 32.504 144.465 32.696C142.353 34.872 140.337 37.176 138.417 39.608C136.561 41.976 134.993 44.568 133.713 47.384C133.265 48.344 132.817 49.624 132.369 51.224C131.921 52.76 131.697 54.072 131.697 55.16C131.697 56.248 132.113 56.792 132.945 56.792C133.521 56.792 134.097 56.6 134.673 56.216C135.377 55.832 136.337 55.064 137.553 53.912C138.769 52.696 140.049 51.352 141.393 49.88C142.801 48.344 144.113 46.904 145.329 45.56C146.545 44.152 147.473 43.064 148.113 42.296C148.241 42.168 148.369 42.072 148.497 42.008C148.625 41.88 148.753 41.816 148.881 41.816C149.329 41.816 149.553 42.072 149.553 42.584C149.553 42.84 149.489 43.032 149.361 43.16C149.233 43.288 149.105 43.448 148.977 43.64C146.993 45.944 145.009 48.28 143.025 50.648C141.105 53.016 139.153 55.352 137.169 57.656C136.721 58.232 136.177 58.712 135.537 59.096C134.897 59.48 134.161 59.672 133.329 59.672ZM174.085 60.056C173.125 60.056 172.005 59.736 170.725 59.096C169.445 58.456 168.805 57.592 168.805 56.504C168.805 55.544 169.157 54.328 169.861 52.856C170.565 51.384 171.429 49.816 172.453 48.152C173.477 46.488 174.533 44.888 175.621 43.352C176.709 41.752 177.637 40.408 178.405 39.32C179.237 38.168 179.749 37.4 179.941 37.016C180.837 35.8 181.381 35.032 181.573 34.712C181.765 34.392 181.893 34.136 181.957 33.944C181.445 34.328 180.645 34.936 179.557 35.768C178.469 36.536 177.381 37.336 176.293 38.168C175.205 39 174.405 39.64 173.893 40.088C170.309 43.224 167.301 46.232 164.869 49.112C162.501 51.928 160.293 54.936 158.245 58.136C158.181 58.2 158.021 58.264 157.765 58.328C157.509 58.328 157.317 58.328 157.189 58.328C156.805 58.328 156.229 58.232 155.461 58.04C154.757 57.848 154.469 57.432 154.597 56.792C154.981 55.832 155.493 54.808 156.133 53.72C156.773 52.632 157.669 51.16 158.821 49.304C159.973 47.384 161.477 44.696 163.333 41.24C163.909 40.152 164.869 38.36 166.213 35.864C167.621 33.368 169.317 30.52 171.301 27.32C173.349 24.12 175.621 20.952 178.117 17.816C180.677 14.616 183.429 11.768 186.373 9.272C189.317 6.776 192.389 4.984 195.589 3.896C196.421 3.576 197.157 3.41599 197.797 3.41599C199.013 3.41599 199.845 3.832 200.293 4.664C200.805 5.432 201.477 6.072 202.309 6.584C202.821 6.904 203.077 7.416 203.077 8.12C203.077 9.144 202.213 10.552 200.485 12.344C198.821 14.072 196.677 15.992 194.053 18.104C191.429 20.152 188.677 22.2 185.797 24.248C182.917 26.296 180.197 28.184 177.637 29.912C175.141 31.64 173.221 32.984 171.877 33.944C171.621 34.456 171.109 35.288 170.341 36.44C169.637 37.528 168.869 38.712 168.037 39.992C167.205 41.272 166.437 42.456 165.733 43.544C165.029 44.632 164.581 45.4 164.389 45.848C166.181 44.184 168.069 42.424 170.053 40.568C172.101 38.712 174.085 36.92 176.005 35.192C177.989 33.464 179.717 31.992 181.189 30.776C181.509 30.52 181.893 30.36 182.341 30.296C182.853 30.232 183.269 30.2 183.589 30.2C184.485 30.2 185.541 30.584 186.757 31.352C187.973 32.12 188.581 33.048 188.581 34.136C188.581 34.84 188.197 35.544 187.429 36.248C185.509 37.976 183.557 39.992 181.573 42.296C179.589 44.536 177.797 46.904 176.197 49.4C175.749 50.168 175.109 51.288 174.277 52.76C173.509 54.232 173.125 55.416 173.125 56.312C173.125 56.952 173.317 57.272 173.701 57.272C174.469 57.272 175.525 56.856 176.869 56.024C178.277 55.192 179.781 54.136 181.381 52.856C183.045 51.512 184.677 50.136 186.277 48.728C187.941 47.32 189.413 46.008 190.693 44.792C191.973 43.576 192.901 42.648 193.477 42.008C193.861 41.624 194.181 41.432 194.437 41.432C194.821 41.432 195.013 41.624 195.013 42.008C195.013 42.2 194.885 42.488 194.629 42.872C193.797 43.96 192.581 45.336 190.981 47C189.381 48.6 187.621 50.264 185.701 51.992C183.781 53.656 181.925 55.192 180.133 56.6C178.405 57.944 176.965 58.968 175.813 59.672C175.365 59.928 174.789 60.056 174.085 60.056ZM173.893 30.2C174.405 29.816 175.269 29.208 176.485 28.376C177.765 27.48 179.173 26.488 180.709 25.4C182.309 24.248 183.877 23.128 185.413 22.04C186.949 20.888 188.229 19.864 189.253 18.968C191.301 17.176 192.997 15.704 194.341 14.552C195.749 13.4 196.965 12.056 197.989 10.52C198.245 10.2 198.405 9.912 198.469 9.656C198.533 9.4 198.565 9.176 198.565 8.984C198.565 8.6 198.373 8.312 197.989 8.12C197.669 7.928 197.253 7.832 196.741 7.832C195.781 7.832 194.533 8.344 192.997 9.368C191.461 10.392 189.797 11.768 188.005 13.496C186.213 15.16 184.421 16.984 182.629 18.968C180.837 20.952 179.173 22.936 177.637 24.92C176.101 26.84 174.853 28.6 173.893 30.2ZM207.672 58.136C203.832 58.136 201.912 56.248 201.912 52.472C201.912 51 202.296 49.304 203.064 47.384C203.896 45.4 204.984 43.416 206.328 41.432C207.672 39.448 209.176 37.624 210.84 35.96C212.504 34.232 214.2 32.856 215.928 31.832C217.72 30.744 219.384 30.2 220.92 30.2C221.432 30.2 221.784 30.328 221.976 30.584C222.232 30.776 222.424 31.128 222.552 31.64C222.68 31.896 222.776 32.184 222.84 32.504C222.904 32.824 223 33.144 223.128 33.464C223.384 33.912 223.608 34.36 223.8 34.808C223.992 35.256 224.088 35.736 224.088 36.248C224.088 36.888 223.928 37.464 223.608 37.976C223.288 38.424 222.904 38.84 222.456 39.224C221.816 39.8 220.856 40.536 219.576 41.432C218.296 42.264 216.888 43.128 215.352 44.024C213.88 44.856 212.44 45.592 211.032 46.232C209.688 46.872 208.6 47.256 207.768 47.384C207.192 48.28 206.584 49.4 205.944 50.744C205.368 52.024 205.08 53.208 205.08 54.296C205.08 54.872 205.208 55.384 205.464 55.832C205.784 56.28 206.264 56.504 206.904 56.504C207.928 56.504 209.272 56.024 210.936 55.064C212.664 54.04 214.456 52.824 216.312 51.416C218.168 49.944 219.864 48.536 221.4 47.192C223 45.784 224.184 44.696 224.952 43.928L228.024 40.664C228.408 40.28 228.824 40.088 229.272 40.088C229.656 40.088 229.848 40.248 229.848 40.568C229.848 40.952 229.304 41.752 228.216 42.968C227.128 44.12 225.816 45.432 224.28 46.904C222.808 48.312 221.432 49.624 220.152 50.84C218.872 51.992 218.04 52.728 217.656 53.048C216.312 54.2 214.776 55.352 213.048 56.504C211.32 57.592 209.528 58.136 207.672 58.136ZM209.4 44.888C210.04 44.504 211 43.896 212.28 43.064C213.624 42.232 215 41.304 216.408 40.28C217.816 39.256 219 38.232 219.96 37.208C220.984 36.184 221.496 35.288 221.496 34.52C221.496 34.328 221.464 34.168 221.4 34.04C221.336 33.976 221.208 33.944 221.016 33.944C220.184 33.944 219.192 34.392 218.04 35.288C216.888 36.184 215.736 37.272 214.584 38.552C213.432 39.768 212.376 40.984 211.416 42.2C210.52 43.352 209.848 44.248 209.4 44.888ZM257.57 22.808C256.098 22.808 255.362 22.264 255.362 21.176C255.362 20.408 255.778 19.576 256.61 18.68C257.442 17.784 258.658 17.144 260.258 16.76C261.218 16.504 261.986 16.376 262.562 16.376C263.202 16.312 263.81 16.184 264.386 15.992C264.13 17.208 263.586 18.52 262.754 19.928C261.986 21.336 260.962 22.2 259.682 22.52C259.042 22.712 258.338 22.808 257.57 22.808ZM242.21 61.016C241.186 61.016 240.226 60.6 239.33 59.768C238.498 58.936 237.986 58.04 237.794 57.08C237.986 55.864 238.402 54.392 239.042 52.664C239.746 50.872 240.546 49.016 241.442 47.096C242.338 45.176 243.234 43.384 244.13 41.72C245.026 39.992 245.794 38.616 246.434 37.592C245.218 38.68 243.906 39.896 242.498 41.24C241.154 42.584 239.874 43.832 238.658 44.984C238.594 45.048 238.434 45.176 238.178 45.368C237.986 45.56 237.794 45.656 237.602 45.656C237.154 45.656 236.93 45.464 236.93 45.08C236.93 44.76 237.058 44.472 237.314 44.216C239.042 42.296 240.834 40.376 242.69 38.456C244.61 36.536 246.466 34.552 248.258 32.504C248.834 31.8 249.314 31.256 249.698 30.872C250.146 30.424 250.818 30.2 251.714 30.2C252.098 30.2 252.674 30.296 253.442 30.488C254.274 30.616 254.946 30.872 255.458 31.256C256.034 31.64 256.13 32.12 255.746 32.696C255.298 33.4 254.53 34.552 253.442 36.152C252.354 37.752 251.106 39.576 249.698 41.624C248.354 43.672 247.01 45.752 245.666 47.864C244.386 49.912 243.33 51.768 242.498 53.432C241.666 55.096 241.25 56.344 241.25 57.176C241.25 57.56 241.378 57.752 241.634 57.752C242.018 57.752 242.658 57.4 243.554 56.696C244.514 55.992 245.442 55.256 246.338 54.488C247.298 53.656 247.938 53.112 248.258 52.856C250.114 51.256 251.938 49.624 253.73 47.96C255.522 46.232 257.218 44.44 258.818 42.584C258.946 42.456 259.106 42.264 259.298 42.008C259.554 41.752 259.81 41.624 260.066 41.624C260.386 41.624 260.546 41.816 260.546 42.2C260.546 42.648 260.386 43.096 260.066 43.544C259.234 44.568 258.306 45.592 257.282 46.616C256.258 47.576 255.298 48.536 254.402 49.496C252.738 51.16 251.106 52.824 249.506 54.488C247.97 56.088 246.434 57.752 244.898 59.48C244.578 59.864 244.162 60.216 243.65 60.536C243.202 60.856 242.722 61.016 242.21 61.016ZM201.144 131.672C199.864 131.672 198.52 131.128 197.112 130.04C195.704 128.952 195 127.704 195 126.296C195 125.016 195.32 123.512 195.96 121.784C196.6 120.056 197.336 118.488 198.168 117.08C196.184 119.192 194.168 121.304 192.12 123.416C190.136 125.528 188.184 127.672 186.264 129.848C185.624 130.616 184.856 131 183.96 131C182.744 131 181.592 130.36 180.504 129.08C179.48 127.8 178.968 126.584 178.968 125.432C178.968 125.112 179 124.856 179.064 124.664C179.512 123.448 180.024 122.264 180.6 121.112C181.24 119.896 181.88 118.744 182.52 117.656C183.224 116.44 183.96 115.288 184.728 114.2C185.56 113.048 186.392 111.896 187.224 110.744C187.544 110.36 187.832 109.976 188.088 109.592C188.408 109.144 188.696 108.696 188.952 108.248C189.144 107.928 189.24 107.544 189.24 107.096C189.24 106.648 189.208 106.264 189.144 105.944C189.784 105.112 190.648 104.312 191.736 103.544C192.824 102.712 193.88 102.296 194.904 102.296C195.16 102.296 195.576 102.392 196.152 102.584C196.792 102.712 197.368 102.904 197.88 103.16C198.456 103.352 198.744 103.576 198.744 103.832C198.744 104.088 198.616 104.344 198.36 104.6C198.04 104.92 197.688 105.24 197.304 105.56C196.92 105.88 196.568 106.232 196.248 106.616C194.776 108.088 193.368 109.656 192.024 111.32C190.68 112.92 189.4 114.552 188.184 116.216C187.8 116.792 187.192 117.656 186.36 118.808C185.592 119.896 184.888 121.016 184.248 122.168C183.608 123.32 183.288 124.248 183.288 124.952C183.288 125.592 183.576 125.912 184.152 125.912C184.792 125.912 185.72 125.496 186.936 124.664C188.216 123.768 189.592 122.648 191.064 121.304C192.536 119.896 193.976 118.456 195.384 116.984C196.856 115.512 198.136 114.168 199.224 112.952C200.376 111.736 201.176 110.84 201.624 110.264C202.968 108.664 204.28 106.872 205.56 104.888C206.072 104.12 206.68 103.448 207.384 102.872C208.152 102.232 208.984 101.912 209.88 101.912C210.392 101.912 211.032 101.976 211.8 102.104C212.632 102.168 213.048 102.552 213.048 103.256C213.048 103.512 212.952 103.768 212.76 104.024C212.632 104.28 212.472 104.504 212.28 104.696C210.168 106.872 208.152 109.176 206.232 111.608C204.376 113.976 202.808 116.568 201.528 119.384C201.08 120.344 200.632 121.624 200.184 123.224C199.736 124.76 199.512 126.072 199.512 127.16C199.512 128.248 199.928 128.792 200.76 128.792C201.336 128.792 201.912 128.6 202.488 128.216C203.192 127.832 204.152 127.064 205.368 125.912C206.584 124.696 207.864 123.352 209.208 121.88C210.616 120.344 211.928 118.904 213.144 117.56C214.36 116.152 215.288 115.064 215.928 114.296C216.056 114.168 216.184 114.072 216.312 114.008C216.44 113.88 216.568 113.816 216.696 113.816C217.144 113.816 217.368 114.072 217.368 114.584C217.368 114.84 217.304 115.032 217.176 115.16C217.048 115.288 216.92 115.448 216.792 115.64C214.808 117.944 212.824 120.28 210.84 122.648C208.92 125.016 206.968 127.352 204.984 129.656C204.536 130.232 203.992 130.712 203.352 131.096C202.712 131.48 201.976 131.672 201.144 131.672ZM238.828 135.032C238.06 135.032 237.26 134.84 236.428 134.456C235.66 134.136 234.892 133.688 234.124 133.112C233.292 132.408 232.492 131.416 231.724 130.136C230.956 128.856 230.316 127.512 229.804 126.104L222.412 134.168C222.22 134.36 222.092 134.456 222.028 134.456C221.772 134.456 221.644 134.264 221.644 133.88C221.644 133.304 221.836 132.824 222.22 132.44L229.324 124.376C229.132 123.608 229.036 122.872 229.036 122.168C228.588 121.848 227.98 121.464 227.212 121.016C226.508 120.504 226.156 119.672 226.156 118.52C226.156 117.176 226.572 115.864 227.404 114.584C228.236 113.304 228.94 112.664 229.516 112.664C229.964 112.664 230.188 113.048 230.188 113.816C230.188 114.072 230.188 114.744 230.188 115.832C230.252 116.92 230.316 118.04 230.38 119.192C230.444 120.28 230.508 121.016 230.572 121.4C230.956 121.656 231.276 121.816 231.532 121.88C234.028 119 236.652 116.024 239.404 112.952C242.156 109.88 244.62 107.256 246.796 105.08C247.884 103.416 249.068 102.008 250.348 100.856C251.692 99.704 253.228 99.128 254.956 99.128C256.172 99.128 257.036 99.352 257.548 99.8C258.06 100.248 258.316 100.76 258.316 101.336C258.316 101.912 258.06 102.456 257.548 102.968C257.1 103.416 256.428 103.64 255.532 103.64C254.124 103.576 252.908 103.64 251.884 103.832C250.86 103.96 250.124 104.408 249.676 105.176C249.228 106.008 248.716 107.384 248.14 109.304C247.564 111.224 246.988 113.4 246.412 115.832C245.9 118.264 245.452 120.632 245.068 122.936C246.412 122.68 247.692 122.36 248.908 121.976C250.188 121.528 251.564 120.792 253.036 119.768C254.508 118.744 256.204 117.24 258.124 115.256C258.444 114.872 258.764 114.68 259.084 114.68C259.276 114.68 259.372 114.808 259.372 115.064C259.372 115.192 259.308 115.416 259.18 115.736C259.052 116.056 258.796 116.472 258.412 116.984C257.644 118.008 256.684 119.032 255.532 120.056C254.444 121.016 253.484 121.752 252.652 122.264C250.924 123.288 249.292 123.928 247.756 124.184C246.22 124.376 245.228 124.504 244.78 124.568C244.524 125.912 244.3 127.032 244.108 127.928C243.916 128.76 243.788 129.368 243.724 129.752C243.404 131.608 242.764 132.952 241.804 133.784C240.908 134.616 239.916 135.032 238.828 135.032ZM241.036 122.936C241.356 121.464 241.772 119.512 242.284 117.08C242.86 114.648 243.628 112.216 244.588 109.784C242.924 111.64 241.068 113.656 239.02 115.832C237.036 118.008 235.084 120.184 233.164 122.36C234.38 122.616 235.692 122.808 237.1 122.936C238.508 123 239.82 123 241.036 122.936ZM237.388 130.424C237.9 130.424 238.412 130.072 238.924 129.368C239.5 128.6 240.044 127.192 240.556 125.144C240.556 124.952 240.588 124.824 240.652 124.76C239.116 124.696 237.612 124.6 236.14 124.472C234.732 124.28 233.388 123.96 232.108 123.512L231.34 124.376C231.852 125.4 232.46 126.456 233.164 127.544C233.868 128.568 234.668 129.304 235.564 129.752C235.884 129.944 236.204 130.104 236.524 130.232C236.844 130.36 237.132 130.424 237.388 130.424ZM286.19 131.864C285.614 131.864 284.942 131.608 284.174 131.096C283.47 130.584 282.862 130.008 282.35 129.368C281.838 128.664 281.582 128.024 281.582 127.448C281.582 126.488 281.934 125.208 282.638 123.608C283.342 121.944 284.142 120.312 285.038 118.712C285.998 117.112 286.734 115.928 287.246 115.16C286.35 115.928 285.198 117.176 283.79 118.904C282.446 120.568 280.974 122.36 279.374 124.28C277.838 126.136 276.334 127.736 274.862 129.08C273.454 130.424 272.238 131.096 271.214 131.096C269.806 131.096 268.654 130.616 267.758 129.656C266.926 128.632 266.51 127.416 266.51 126.008C266.51 124.088 267.054 122.04 268.142 119.864C269.23 117.624 270.638 115.48 272.366 113.432C274.158 111.32 276.078 109.4 278.126 107.672C280.238 105.944 282.286 104.568 284.27 103.544C286.318 102.52 288.142 102.008 289.742 102.008C291.47 102.008 292.878 102.424 293.966 103.256C295.054 104.024 295.598 105.208 295.598 106.808C295.598 107.064 295.534 107.544 295.406 108.248C295.342 108.952 295.118 109.304 294.734 109.304C294.542 109.304 294.222 109.016 293.774 108.44C293.39 107.864 292.846 107.288 292.142 106.712C291.438 106.136 290.542 105.848 289.454 105.848C287.662 105.848 285.774 106.52 283.79 107.864C281.87 109.144 280.014 110.808 278.222 112.856C276.43 114.84 274.862 116.888 273.518 119C272.174 121.112 271.15 122.936 270.446 124.472C270.254 124.92 270.062 125.4 269.87 125.912C269.742 126.424 269.678 126.936 269.678 127.448C269.678 128.024 269.838 128.312 270.158 128.312C270.478 128.312 271.15 127.96 272.174 127.256C273.262 126.552 274.03 126.04 274.478 125.72C276.718 124.12 278.83 122.296 280.814 120.248C282.862 118.2 284.686 116.088 286.286 113.912C286.798 113.208 287.278 112.504 287.726 111.8C288.174 111.096 288.622 110.424 289.07 109.784C289.39 109.336 289.71 109.112 290.03 109.112C290.734 109.112 291.406 109.592 292.046 110.552C292.75 111.512 293.102 112.344 293.102 113.048C293.102 113.368 293.038 113.56 292.91 113.624C292.846 113.688 292.654 113.88 292.334 114.2C291.374 115.16 290.414 116.504 289.454 118.232C288.558 119.96 287.758 121.72 287.054 123.512C286.414 125.24 285.934 126.712 285.614 127.928C285.55 128.12 285.486 128.376 285.422 128.696C285.422 128.952 285.582 129.048 285.902 128.984C286.542 128.792 287.566 128.088 288.974 126.872C290.446 125.592 292.014 124.152 293.678 122.552C295.406 120.888 296.942 119.352 298.286 117.944C299.694 116.536 300.622 115.544 301.07 114.968C301.198 114.84 301.326 114.712 301.454 114.584C301.646 114.392 301.838 114.296 302.03 114.296C302.478 114.296 302.702 114.52 302.702 114.968C302.702 115.224 302.19 115.992 301.166 117.272C300.142 118.488 298.862 119.928 297.326 121.592C295.79 123.192 294.222 124.792 292.622 126.392C291.022 127.928 289.614 129.24 288.398 130.328C287.246 131.352 286.51 131.864 286.19 131.864ZM348.921 132.152C348.217 132.152 347.385 131.864 346.425 131.288C345.465 130.776 344.601 130.136 343.833 129.368C343.129 128.536 342.777 127.704 342.777 126.872C342.777 125.784 343.225 124.408 344.121 122.744C345.017 121.08 346.105 119.352 347.385 117.56C348.729 115.768 350.009 114.104 351.225 112.568C352.505 110.968 353.529 109.688 354.297 108.728C355.193 107.576 355.609 106.936 355.545 106.808C355.481 106.616 355.449 106.424 355.449 106.232C353.657 107.128 351.641 108.472 349.401 110.264C347.161 111.992 345.017 113.816 342.969 115.736C340.921 117.656 339.257 119.384 337.977 120.92C337.081 121.944 336.217 123.032 335.385 124.184C334.617 125.272 333.849 126.392 333.081 127.544C332.633 128.184 332.057 128.856 331.353 129.56C330.713 130.264 329.977 130.616 329.145 130.616C328.697 130.616 328.281 130.456 327.897 130.136C327.577 129.816 327.417 129.432 327.417 128.984C327.417 128.088 327.993 126.744 329.145 124.952C330.361 123.096 331.609 121.08 332.889 118.904C333.721 117.496 334.617 116.056 335.577 114.584C336.601 113.048 337.465 111.672 338.169 110.456C338.937 109.24 339.321 108.408 339.321 107.96H339.225C339.033 107.96 338.585 108.12 337.881 108.44C337.241 108.76 336.889 108.952 336.825 109.016C333.689 111.128 330.681 113.752 327.801 116.888C324.985 120.024 322.393 123 320.025 125.816C319.577 126.392 319.097 127 318.585 127.64C318.073 128.216 317.561 128.792 317.049 129.368C316.793 129.624 316.441 129.848 315.993 130.04C315.545 130.168 315.129 130.232 314.745 130.232C314.361 130.232 313.817 130.104 313.113 129.848C312.473 129.592 312.153 129.144 312.153 128.504C312.153 127.736 312.505 126.616 313.209 125.144C313.913 123.672 314.777 122.008 315.801 120.152C316.889 118.296 318.009 116.472 319.161 114.68C320.377 112.824 321.465 111.16 322.425 109.688C323.449 108.152 324.185 107.032 324.633 106.328C322.649 108.056 320.857 109.656 319.257 111.128C317.721 112.536 315.961 114.456 313.977 116.888C313.849 117.016 313.593 117.272 313.209 117.656C312.825 118.04 312.441 118.264 312.057 118.328C311.929 118.328 311.769 118.232 311.577 118.04C311.449 117.848 311.417 117.688 311.481 117.56C311.545 117.24 311.993 116.6 312.825 115.64C313.657 114.616 314.681 113.464 315.897 112.184C317.113 110.904 318.329 109.624 319.545 108.344C320.761 107.064 321.817 105.944 322.713 104.984C323.673 104.024 324.249 103.416 324.441 103.16C325.849 101.688 327.097 100.504 328.185 99.608C329.337 98.712 330.425 98.264 331.449 98.264C332.025 98.264 332.697 98.52 333.465 99.032C334.233 99.544 334.617 100.152 334.617 100.856C334.617 101.112 334.553 101.272 334.425 101.336C331.545 103.704 328.985 106.424 326.745 109.496C324.505 112.504 322.393 115.512 320.409 118.52C320.345 118.584 320.121 118.936 319.737 119.576C319.417 120.216 319.033 120.92 318.585 121.688C318.137 122.456 317.753 123.128 317.433 123.704C317.113 124.28 316.985 124.536 317.049 124.472C320.441 121.272 323.993 117.88 327.705 114.296C331.481 110.648 335.129 107.352 338.649 104.408C339.161 103.96 339.737 103.576 340.377 103.256C341.017 102.936 341.689 102.776 342.393 102.776C343.161 102.776 343.769 103.032 344.217 103.544C344.729 103.992 344.985 104.6 344.985 105.368C344.985 106.2 344.729 107.032 344.217 107.864C343.705 108.696 343.225 109.464 342.777 110.168C342.137 111.32 341.433 112.472 340.665 113.624C339.961 114.776 339.449 115.704 339.129 116.408C342.073 113.784 344.889 111.256 347.577 108.824C350.265 106.328 352.985 104.184 355.738 102.392C356.378 101.944 357.146 101.72 358.042 101.72C358.618 101.72 359.354 101.816 360.25 102.008C361.209 102.2 362.041 102.488 362.745 102.872C363.513 103.256 363.897 103.8 363.897 104.504C363.897 104.888 363.769 105.272 363.513 105.656C363.257 105.976 362.969 106.264 362.649 106.52L358.137 110.36C357.305 111.128 356.281 112.216 355.065 113.624C353.913 114.968 352.761 116.472 351.609 118.136C350.521 119.736 349.593 121.4 348.825 123.128C348.121 124.856 347.769 126.456 347.769 127.928C347.769 128.824 347.993 129.272 348.441 129.272C348.697 129.272 348.985 129.208 349.305 129.08C349.625 128.888 349.977 128.696 350.361 128.504C351.705 127.736 353.145 126.616 354.681 125.144C356.217 123.672 357.721 122.104 359.193 120.44C360.729 118.776 362.073 117.304 363.225 116.024C364.377 114.744 365.241 113.944 365.817 113.624C365.945 113.496 366.105 113.464 366.297 113.528C366.553 113.592 366.681 113.72 366.681 113.912C366.681 114.168 366.553 114.456 366.297 114.776C366.042 115.096 365.85 115.352 365.721 115.544C364.633 116.824 363.609 118.072 362.649 119.288C361.753 120.44 360.729 121.656 359.577 122.936C358.233 124.472 356.729 126.104 355.065 127.832C353.465 129.496 351.769 130.84 349.977 131.864C349.721 132.056 349.369 132.152 348.921 132.152ZM395.896 94.808C394.424 94.808 393.688 94.264 393.688 93.176C393.688 92.408 394.104 91.576 394.936 90.68C395.768 89.784 396.984 89.144 398.584 88.76C399.544 88.504 400.312 88.376 400.888 88.376C401.528 88.312 402.136 88.184 402.712 87.992C402.456 89.208 401.912 90.52 401.08 91.928C400.312 93.336 399.288 94.2 398.008 94.52C397.368 94.712 396.664 94.808 395.896 94.808ZM380.536 133.016C379.512 133.016 378.552 132.6 377.656 131.768C376.824 130.936 376.312 130.04 376.12 129.08C376.312 127.864 376.728 126.392 377.368 124.664C378.072 122.872 378.872 121.016 379.768 119.096C380.664 117.176 381.56 115.384 382.456 113.72C383.352 111.992 384.12 110.616 384.76 109.592C383.544 110.68 382.232 111.896 380.824 113.24C379.48 114.584 378.2 115.832 376.984 116.984C376.92 117.048 376.76 117.176 376.504 117.368C376.312 117.56 376.12 117.656 375.928 117.656C375.48 117.656 375.256 117.464 375.256 117.08C375.256 116.76 375.384 116.472 375.64 116.216C377.368 114.296 379.16 112.376 381.016 110.456C382.936 108.536 384.792 106.552 386.584 104.504C387.16 103.8 387.64 103.256 388.024 102.872C388.472 102.424 389.144 102.2 390.04 102.2C390.424 102.2 391 102.296 391.768 102.488C392.6 102.616 393.272 102.872 393.784 103.256C394.36 103.64 394.456 104.12 394.072 104.696C393.624 105.4 392.856 106.552 391.768 108.152C390.68 109.752 389.432 111.576 388.024 113.624C386.68 115.672 385.336 117.752 383.992 119.864C382.712 121.912 381.656 123.768 380.824 125.432C379.992 127.096 379.576 128.344 379.576 129.176C379.576 129.56 379.704 129.752 379.96 129.752C380.344 129.752 380.984 129.4 381.88 128.696C382.84 127.992 383.768 127.256 384.664 126.488C385.624 125.656 386.264 125.112 386.584 124.856C388.44 123.256 390.264 121.624 392.056 119.96C393.848 118.232 395.544 116.44 397.144 114.584C397.272 114.456 397.432 114.264 397.624 114.008C397.88 113.752 398.136 113.624 398.392 113.624C398.712 113.624 398.872 113.816 398.872 114.2C398.872 114.648 398.712 115.096 398.392 115.544C397.56 116.568 396.632 117.592 395.608 118.616C394.584 119.576 393.624 120.536 392.728 121.496C391.064 123.16 389.432 124.824 387.832 126.488C386.296 128.088 384.76 129.752 383.224 131.48C382.904 131.864 382.488 132.216 381.976 132.536C381.528 132.856 381.048 133.016 380.536 133.016Z" fill="black" fill-opacity="0.2"/>
</g>
<defs>
<filter id="filter0_d_126_143" x="0.984009" y="0.416016" width="410.728" height="145.616" filterUnits="userSpaceOnUse" color-interpolation-filters="sRGB">
<feFlood flood-opacity="0" result="BackgroundImageFix"/>
<feColorMatrix in="SourceAlpha" type="matrix" values="0 0 0 0 0 0 0 0 0 0 0 0 0 0 0 0 0 0 127 0" result="hardAlpha"/>
<feOffset dx="2" dy="4"/>
<feGaussianBlur stdDeviation="3.5"/>
<feComposite in2="hardAlpha" operator="out"/>
<feColorMatrix type="matrix" values="0 0 0 0 0 0 0 0 0 0 0 0 0 0 0 0 0 0 0.25 0"/>
<feBlend mode="hard-light" in2="BackgroundImageFix" result="effect1_dropShadow_126_143"/>
<feBlend mode="normal" in="SourceGraphic" in2="effect1_dropShadow_126_143" result="shape"/>
</filter>
</defs>
</svg>
